<?xml version="1.0" encoding="UTF-8" standalone="no"?>
<!-- Created with Inkscape (http://www.inkscape.org/) -->

<svg
   width="100"
   height="100"
   viewBox="0 0 26.458333 26.458334"
   version="1.1"
   id="svg67584"
   inkscape:version="1.1 (c68e22c387, 2021-05-23)"
   sodipodi:docname="crustaces_icon.svg"
   xmlns:inkscape="http://www.inkscape.org/namespaces/inkscape"
   xmlns:sodipodi="http://sodipodi.sourceforge.net/DTD/sodipodi-0.dtd"
   xmlns="http://www.w3.org/2000/svg"
   xmlns:svg="http://www.w3.org/2000/svg">
  <sodipodi:namedview
     id="namedview67586"
     pagecolor="#ffffff"
     bordercolor="#666666"
     borderopacity="1.0"
     inkscape:pageshadow="2"
     inkscape:pageopacity="0.0"
     inkscape:pagecheckerboard="0"
     inkscape:document-units="mm"
     showgrid="false"
     units="px"
     inkscape:zoom="2.1115193"
     inkscape:cx="44.517708"
     inkscape:cy="50.911209"
     inkscape:window-width="2400"
     inkscape:window-height="1271"
     inkscape:window-x="2391"
     inkscape:window-y="-9"
     inkscape:window-maximized="1"
     inkscape:current-layer="layer1" />
  <defs
     id="defs67581" />
  <g
     inkscape:label="Calque 1"
     inkscape:groupmode="layer"
     id="layer1">
    <path
       style="fill:#525252;stroke-width:0.2;fill-opacity:1;stroke:#525252;stroke-opacity:1;stroke-miterlimit:4;stroke-dasharray:none"
       d="m 11.865425,24.844871 c 4.89e-4,-0.08443 0.04613,-0.322374 0.10153,-0.528762 0.128858,-0.480079 0.132652,-0.45519 -0.07741,-0.507914 -0.308515,-0.07743 -1.118951,-0.505026 -1.553423,-0.819601 -0.4765615,-0.34505 -0.7753954,-0.619213 -1.1742255,-1.077285 l -0.2806536,-0.322342 -0.46694,0.392169 c -0.4497259,0.377711 -0.4702242,0.408395 -0.5560193,0.832289 -0.1003401,0.49576 -0.1488935,0.571948 -0.3221293,0.50547 -0.1029544,-0.03951 -0.1144386,-0.09888 -0.076313,-0.394542 0.089888,-0.697091 0.1475168,-0.80027 0.6847776,-1.226033 L 8.6498784,21.297914 8.3448691,20.733805 C 8.1771142,20.423544 7.95195,19.928277 7.8445037,19.633211 l -0.195357,-0.536484 -0.4819496,-0.01999 c -0.475276,-0.01971 -0.4877569,-0.01576 -0.9012749,0.285134 -0.2306287,0.167816 -0.4622233,0.288659 -0.5146546,0.268539 -0.2080344,-0.07983 -0.082411,-0.291551 0.373549,-0.629569 0.4530323,-0.335846 0.4841613,-0.347594 0.9210673,-0.347594 0.2487038,0 0.4521886,-0.028 0.4521886,-0.06223 0,-0.03422 -0.046048,-0.302869 -0.1023288,-0.596988 -0.056281,-0.29412 -0.1023344,-0.633466 -0.1023411,-0.754101 -1.62e-5,-0.300995 -0.1624735,-0.370714 -0.8390465,-0.360076 -0.8395106,0.01319 -0.81066,0.01886 -0.7861069,-0.154029 0.020944,-0.14746 0.052055,-0.154271 0.7893581,-0.172802 l 0.7675563,-0.01929 V 15.478447 14.423159 H 6.6342497 6.0433354 L 5.5426143,14.046287 c -0.2753967,-0.207281 -0.500721,-0.400705 -0.500721,-0.429832 0,-0.06563 0.1469773,-0.216704 0.2108214,-0.216704 0.025892,0 0.2347536,0.13816 0.4641368,0.307022 0.4157223,0.306038 0.4188876,0.307022 0.9864611,0.307022 h 0.5694005 l 0.080034,-0.572111 c 0.067265,-0.480832 0.1738126,-0.94518 0.457422,-1.993516 C 7.8420481,11.33033 7.7380601,11.21613 7.2297921,10.810807 6.8892237,10.539218 6.5955961,10.250745 6.5772863,10.169756 6.372221,9.2627031 6.3685012,9.1988195 6.517426,9.1416721 c 0.1786656,-0.068559 0.2800022,0.075006 0.3288384,0.4658795 0.05503,0.4404444 0.082206,0.4785654 0.6760798,0.9483294 L 7.9900916,10.92588 8.3535701,10.201283 C 8.6804671,9.5496096 9.4213554,8.4353377 9.6019888,8.3236998 9.6460477,8.2964708 9.5823936,8.0826428 9.4319995,7.752678 9.2081884,7.2616354 9.1948431,7.1945432 9.2388727,6.7817106 9.2864502,6.335611 9.3527598,6.2188104 9.5216459,6.2836185 c 0.064294,0.024677 0.091471,0.1755036 0.091471,0.5076597 0,0.3726282 0.037194,0.5459573 0.175887,0.8196555 L 9.9648905,7.9580306 10.18131,7.7570192 C 10.516309,7.4458718 10.898476,7.1708518 11.43528,6.8546201 11.984708,6.5309516 11.952282,6.6350297 11.766217,5.7924159 L 11.690887,5.4512796 10.391532,5.314482 9.0921763,5.1776843 8.4245854,4.6322094 C 8.0574103,4.3321988 7.6841371,4.025331 7.5950898,3.9502805 7.4789064,3.8523657 7.335006,3.5085647 7.0855272,2.7328685 6.8943158,2.1383422 6.754441,1.608728 6.774694,1.5559498 c 0.020253,-0.052779 0.097873,-0.095968 0.1724901,-0.095968 0.1152357,0 0.1874025,0.1627609 0.4792178,1.0808024 L 7.769954,3.621587 8.3894258,4.1270667 c 0.3407096,0.2780148 0.7033126,0.5523487 0.8057845,0.6096304 0.1171777,0.065504 0.6533459,0.1500853 1.4449157,0.2279405 0.701903,0.069041 1.292135,0.15877 1.334415,0.2028725 0.0417,0.043501 0.12596,0.3373267 0.187254,0.6529585 0.0613,0.3156318 0.122172,0.5846039 0.135284,0.5977159 0.01312,0.013116 0.155298,-0.02254 0.315971,-0.079225 0.364226,-0.1285069 0.840151,-0.1317827 1.249459,-0.00862 l 0.313899,0.094468 0.07113,-0.3316872 c 0.03913,-0.182429 0.0908,-0.4546275 0.114821,-0.6048864 0.02403,-0.1502599 0.07823,-0.3011511 0.120457,-0.3353155 0.04223,-0.034168 0.629411,-0.1150021 1.30486,-0.17964 0.675449,-0.064642 1.31029,-0.1566078 1.410758,-0.2043778 0.100466,-0.047765 0.477671,-0.3271132 0.83823,-0.6207627 L 18.692231,3.614233 19.03646,2.5330804 c 0.313668,-0.9851684 0.357366,-1.079277 0.492199,-1.0600085 0.20695,0.029568 0.184201,0.1907174 -0.192968,1.366921 l -0.318222,0.9923813 -0.821926,0.6729869 -0.821924,0.6729869 -1.303248,0.136454 -1.303247,0.1364541 -0.07517,0.3411363 c -0.186215,0.8450054 -0.214996,0.7454353 0.296726,1.0265603 0.498329,0.2737665 0.865044,0.5381388 1.254075,0.904089 l 0.25039,0.2355328 0.176031,-0.34738 c 0.138843,-0.2739949 0.176031,-0.4472109 0.176031,-0.8199398 0,-0.3463515 0.026,-0.4825358 0.09736,-0.509916 0.151473,-0.058129 0.229339,0.091144 0.279159,0.5351373 0.04185,0.3729594 0.02498,0.4544104 -0.192927,0.931675 l -0.238786,0.5229855 0.170479,0.159287 c 0.265121,0.2477126 0.957404,1.3169461 1.236167,1.9092635 0.138542,0.294376 0.271008,0.53532 0.294369,0.535432 0.03845,2.05e-4 0.824827,-0.607144 0.97507,-0.753055 0.0343,-0.03331 0.09679,-0.2508924 0.138853,-0.4835152 0.07932,-0.4386348 0.234962,-0.6399528 0.381474,-0.493442 0.06881,0.068806 0.0066,0.6576898 -0.112227,1.0618172 -0.01879,0.06391 -0.311242,0.337176 -0.649896,0.607238 -0.511049,0.407543 -0.608497,0.51538 -0.573169,0.634285 0.183464,0.617484 0.387909,1.505508 0.457645,1.987824 l 0.0835,0.577502 h 0.566072 c 0.563629,0 0.567871,-0.0013 0.983133,-0.307023 0.229383,-0.168862 0.438244,-0.307022 0.464135,-0.307022 0.06385,0 0.210822,0.151078 0.210822,0.216704 0,0.02913 -0.225325,0.22255 -0.500721,0.429831 l -0.500721,0.376873 H 19.824074 19.23316 v 1.055287 1.055288 l 0.767556,0.01929 c 0.737303,0.01853 0.768416,0.02535 0.789358,0.172802 0.023,0.161958 -0.0069,0.165969 -1.372064,0.183526 -0.135812,0.0018 -0.197659,0.04181 -0.215724,0.139729 -0.05612,0.30412 -0.244141,1.505208 -0.243123,1.552993 6.19e-4,0.02815 0.204573,0.05117 0.453277,0.05117 0.436906,0 0.468034,0.01175 0.921067,0.347594 0.45596,0.338017 0.581583,0.549739 0.373549,0.629569 -0.05243,0.02012 -0.282215,-0.0994 -0.510629,-0.26561 -0.397854,-0.289496 -0.435476,-0.302189 -0.895654,-0.302189 -0.455282,0 -0.483896,0.0093 -0.548214,0.178485 -0.235266,0.618794 -0.512225,1.222487 -0.716411,1.561572 -0.129668,0.215334 -0.235759,0.415985 -0.235759,0.44589 0,0.0299 0.229404,0.233425 0.509789,0.452267 0.542834,0.423688 0.597759,0.52132 0.688306,1.223524 0.03813,0.295664 0.02664,0.355036 -0.07632,0.394542 -0.177413,0.06808 -0.243127,-0.03438 -0.328738,-0.512559 -0.0743,-0.415033 -0.09112,-0.440327 -0.547664,-0.823748 -0.259052,-0.217562 -0.489318,-0.394405 -0.511704,-0.392984 -0.02238,0.0015 -0.148158,0.13999 -0.279495,0.307932 -0.468812,0.599476 -1.521586,1.377891 -2.302744,1.702636 -0.253252,0.105279 -0.485416,0.213123 -0.51592,0.239645 -0.03051,0.02652 -0.0075,0.233401 0.05117,0.45973 0.14411,0.556139 0.138511,0.698835 -0.02742,0.698835 -0.167301,0 -0.238013,-0.131781 -0.342052,-0.63745 -0.0741,-0.360139 -0.09626,-0.394695 -0.229378,-0.357676 -0.323181,0.08987 -0.913331,0.116777 -1.184638,0.05401 l -0.286783,-0.06636 -0.07904,0.384339 c -0.101027,0.49117 -0.172831,0.623134 -0.339081,0.623134 -0.09377,0 -0.13381,-0.04613 -0.133244,-0.153511 z m 2.011893,-1.252316 c 0.961102,-0.228659 2.394909,-1.116253 3.059158,-1.893767 0.17495,-0.20478 0.318089,-0.390455 0.318089,-0.412615 0,-0.02216 -1.827864,-0.04029 -4.06192,-0.04029 H 9.1307252 l 0.080701,0.15079 c 0.1555129,0.29058 1.0743118,1.129818 1.5862528,1.448896 0.627911,0.391359 1.34887,0.701248 1.910494,0.821182 0.432466,0.09235 0.482423,0.08919 1.169145,-0.0742 z M 17.933324,20.2163 c 0.189557,-0.378646 0.344649,-0.731723 0.344649,-0.784613 0,-0.08188 -0.755212,-0.09617 -5.081932,-0.09617 H 8.1141089 l 0.135002,0.342503 c 0.1558152,0.395307 0.4617236,1.016922 0.5617235,1.141439 0.053503,0.06662 1.02144,0.08528 4.4231656,0.08528 h 4.354674 z m 0.543283,-1.376572 c 0.05224,-0.137396 0.199653,-0.843754 0.305896,-1.465738 l 0.03787,-0.221738 h -5.58863 -5.5886363 l 0.034227,0.255852 c 0.050062,0.374223 0.2375253,1.254971 0.3049584,1.432771 l 0.058222,0.153511 h 5.1886459 5.188645 z m 0.372408,-2.182123 c 0.02263,-0.08443 0.04156,-0.514263 0.04207,-0.955181 l 9.28e-4,-0.801671 H 13.229159 7.5662999 v 0.847261 c 0,0.465994 0.018636,0.895824 0.041413,0.955181 0.037297,0.0972 0.5960672,0.10792 5.6207881,0.10792 h 5.579374 z m -0.02563,-2.353839 c -4.9e-4,-0.214368 -0.186776,-1.491564 -0.243846,-1.671567 -0.03562,-0.112365 -0.35074,-0.119397 -5.350383,-0.119397 -4.9996445,0 -5.3147575,0.0071 -5.3503837,0.119397 -0.05707,0.180003 -0.2433868,1.457199 -0.2438461,1.671567 l -4.126e-4,0.187625 h 5.5946324 5.594632 l -4.13e-4,-0.187625 z m -0.408962,-2.298014 c 0,-0.118697 -0.365006,-1.119632 -0.511829,-1.403555 L 17.79688,10.397758 H 13.228793 8.6607087 L 8.5314128,10.65361 c -0.1298413,0.256932 -0.4875224,1.276268 -0.4875224,1.389363 0,0.0346 2.2176756,0.06047 5.1852686,0.06047 4.453838,0 5.185269,-0.01378 5.185269,-0.09769 z M 17.553392,9.9031106 C 17.315655,9.500519 16.864098,8.8674837 16.604374,8.5726793 L 16.288802,8.214486 H 13.247608 10.206413 L 9.9403597,8.5044523 C 9.6874155,8.7801303 9.22595,9.3944981 8.9666667,9.8007696 l -0.1197428,0.187625 h 4.3784151 c 3.484107,0 4.368128,-0.01741 4.328053,-0.08528 z M 15.753566,7.7735513 c 0,-0.017369 -0.186022,-0.157897 -0.413383,-0.3122945 C 14.783321,7.0831 14.024504,6.73 13.558754,6.6323079 13.205207,6.5581527 13.131668,6.5665016 12.591593,6.7421865 12.053278,6.9172984 11.254972,7.3390462 10.841207,7.6669239 l -0.170568,0.1351614 2.541464,0.00157 c 1.397804,8.248e-4 2.541463,-0.012691 2.541463,-0.03006 z"
       id="path834" />
  </g>
</svg>
