<?xml version="1.0" encoding="UTF-8" standalone="no"?>
<!-- Created with Inkscape (http://www.inkscape.org/) -->

<svg
   width="100"
   height="100"
   viewBox="0 0 26.458333 26.458334"
   version="1.1"
   id="svg67584"
   inkscape:version="1.1 (c68e22c387, 2021-05-23)"
   sodipodi:docname="etang_icon.svg"
   xmlns:inkscape="http://www.inkscape.org/namespaces/inkscape"
   xmlns:sodipodi="http://sodipodi.sourceforge.net/DTD/sodipodi-0.dtd"
   xmlns="http://www.w3.org/2000/svg"
   xmlns:svg="http://www.w3.org/2000/svg">
  <sodipodi:namedview
     id="namedview67586"
     pagecolor="#ffffff"
     bordercolor="#666666"
     borderopacity="1.0"
     inkscape:pageshadow="2"
     inkscape:pageopacity="0.0"
     inkscape:pagecheckerboard="0"
     inkscape:document-units="mm"
     showgrid="false"
     units="px"
     inkscape:zoom="8.446077"
     inkscape:cx="44.636107"
     inkscape:cy="50.852011"
     inkscape:window-width="2400"
     inkscape:window-height="1271"
     inkscape:window-x="2391"
     inkscape:window-y="-9"
     inkscape:window-maximized="1"
     inkscape:current-layer="layer1" />
  <defs
     id="defs67581" />
  <g
     inkscape:label="Calque 1"
     inkscape:groupmode="layer"
     id="layer1">
    <g
       id="g4005"
       transform="matrix(4.6389898,0,0,4.690977,-178.16616,-250.08847)"
       style="fill:#11749a;fill-opacity:1;stroke:#11749a;stroke-width:0.19293;stroke-linejoin:round;stroke-miterlimit:4;stroke-dasharray:none;stroke-opacity:1">
      <path
         d="m 38.826394,54.840698 c 0.156325,-0.0607 0.372688,0.05411 0.522787,-0.01225 0.156802,-0.06934 0.253752,-0.161058 0.331695,-0.313799 0.103704,-0.203226 0.22176,-0.197527 0.342574,0.01654 0.129907,0.230182 0.326647,0.344955 0.594155,0.346614 0.252181,0.0016 0.510672,-0.169143 0.607677,-0.401309 0.03629,-0.08686 0.125702,-0.131723 0.203228,-0.101973 0.02176,0.0084 0.0594,0.05201 0.08363,0.09702 0.07056,0.131059 0.212186,0.278355 0.325172,0.338188 0.14752,0.07812 0.447434,0.07812 0.594954,0 0.123915,-0.06562 0.268774,-0.219086 0.317233,-0.336077 0.05404,-0.130474 0.218222,-0.150077 0.276579,-0.03302 0.09289,0.186328 -0.298529,0.615191 -0.6352,0.695955 -0.07521,0.01805 -0.219102,0.02677 -0.332853,0.02019 -0.233848,-0.01355 -0.432415,-0.09728 -0.593074,-0.250106 l -0.100379,-0.09549 -0.08101,0.08358 c -0.04456,0.04597 -0.151873,0.122024 -0.238479,0.169008 -0.149928,0.08133 -0.170398,0.08542 -0.427476,0.08542 -0.237996,0 -0.28714,-0.008 -0.414525,-0.06776 -0.07949,-0.03727 -0.191605,-0.110303 -0.249154,-0.162293 l -0.104632,-0.09453 -0.140657,0.114567 c -0.212788,0.173318 -0.672506,0.217204 -0.672506,0.217204 -0.349429,-0.08518 -0.393055,-0.174977 -0.209736,-0.315666 z"
         style="fill:#11749a;fill-opacity:1;stroke:#11749a;stroke-width:0.19293;stroke-linejoin:round;stroke-miterlimit:4;stroke-dasharray:none;stroke-opacity:1"
         id="path3796"
         sodipodi:nodetypes="cccccccccscsccccccscccsccc" />
      <path
         d="m 39.675579,56.215672 c 0.142819,0.0595 0.372688,0.05411 0.522787,-0.01225 0.156802,-0.06934 0.253752,-0.161058 0.331695,-0.313799 0.103704,-0.203226 0.22176,-0.197527 0.342574,0.01654 0.129907,0.230182 0.326647,0.344955 0.594155,0.346614 0.252181,0.0016 0.510672,-0.169143 0.607677,-0.401309 0.03629,-0.08686 0.125702,-0.131723 0.203228,-0.101973 0.02176,0.0084 0.0594,0.05201 0.08363,0.09702 0.07056,0.131059 0.212186,0.278355 0.325172,0.338188 0.14752,0.07812 0.447434,0.07812 0.594954,0 0.123915,-0.06562 0.268774,-0.219086 0.317233,-0.336077 0.05404,-0.130474 0.218222,-0.150077 0.276579,-0.03302 0.09289,0.186328 -0.298529,0.615191 -0.6352,0.695955 -0.07521,0.01805 -0.219102,0.02677 -0.332853,0.02019 -0.233848,-0.01355 -0.432415,-0.09728 -0.593074,-0.250106 l -0.100379,-0.09549 -0.08101,0.08358 c -0.04456,0.04597 -0.151873,0.122024 -0.238479,0.169008 -0.149928,0.08133 -0.170398,0.08542 -0.427476,0.08542 -0.237996,0 -0.28714,-0.008 -0.414525,-0.06776 -0.07949,-0.03727 -0.191605,-0.110303 -0.249154,-0.162293 l -0.104632,-0.09453 -0.140657,0.114567 c -0.212788,0.173318 -0.672506,0.217204 -0.672506,0.217204 -0.349429,-0.08518 -0.406561,-0.181655 -0.209736,-0.315666 z"
         style="fill:#11749a;fill-opacity:1;stroke:#11749a;stroke-width:0.19293;stroke-linejoin:round;stroke-miterlimit:4;stroke-dasharray:none;stroke-opacity:1"
         id="path3796-4" />
      <path
         d="m 38.732415,57.53475 c 0.142819,0.0595 0.372688,0.05411 0.522787,-0.01225 0.156802,-0.06934 0.253752,-0.161058 0.331695,-0.313799 0.103704,-0.203226 0.22176,-0.197527 0.342574,0.01654 0.129907,0.230182 0.326647,0.344955 0.594155,0.346614 0.252181,0.0016 0.510672,-0.169143 0.607677,-0.401309 0.03629,-0.08686 0.125702,-0.131723 0.203228,-0.101973 0.02176,0.0084 0.0594,0.05201 0.08363,0.09702 0.07056,0.131059 0.212186,0.278355 0.325172,0.338188 0.14752,0.07812 0.447434,0.07812 0.594954,0 0.123915,-0.06562 0.268774,-0.219086 0.317233,-0.336077 0.05404,-0.130474 0.218222,-0.150077 0.276579,-0.03302 0.09289,0.186328 -0.298529,0.615191 -0.6352,0.695955 -0.07521,0.01805 -0.219102,0.02677 -0.332853,0.02019 -0.233848,-0.01355 -0.432415,-0.09728 -0.593074,-0.250106 l -0.100379,-0.09549 -0.08101,0.08358 c -0.04456,0.04597 -0.151873,0.122024 -0.238479,0.169008 -0.149928,0.08133 -0.170398,0.08542 -0.427476,0.08542 -0.237996,0 -0.28714,-0.008 -0.414525,-0.06776 -0.07949,-0.03727 -0.191605,-0.110303 -0.249154,-0.162293 l -0.104632,-0.09453 -0.140657,0.114567 c -0.212788,0.173318 -0.672506,0.217204 -0.672506,0.217204 -0.349429,-0.08518 -0.406561,-0.181655 -0.209736,-0.315666 z"
         style="fill:#11749a;fill-opacity:1;stroke:#11749a;stroke-width:0.19293;stroke-linejoin:round;stroke-miterlimit:4;stroke-dasharray:none;stroke-opacity:1"
         id="path3796-8" />
    </g>
  </g>
</svg>
