<?xml version="1.0" encoding="UTF-8" standalone="no"?>
<!-- Created with Inkscape (http://www.inkscape.org/) -->

<svg
   width="100"
   height="100"
   viewBox="0 0 26.458333 26.458334"
   version="1.1"
   id="svg67584"
   inkscape:version="1.1 (c68e22c387, 2021-05-23)"
   sodipodi:docname="haie_icon.svg"
   xmlns:inkscape="http://www.inkscape.org/namespaces/inkscape"
   xmlns:sodipodi="http://sodipodi.sourceforge.net/DTD/sodipodi-0.dtd"
   xmlns="http://www.w3.org/2000/svg"
   xmlns:svg="http://www.w3.org/2000/svg">
  <sodipodi:namedview
     id="namedview67586"
     pagecolor="#ffffff"
     bordercolor="#666666"
     borderopacity="1.0"
     inkscape:pageshadow="2"
     inkscape:pageopacity="0.0"
     inkscape:pagecheckerboard="0"
     inkscape:document-units="mm"
     showgrid="false"
     units="px"
     inkscape:zoom="8.446077"
     inkscape:cx="44.636107"
     inkscape:cy="50.852011"
     inkscape:window-width="2400"
     inkscape:window-height="1271"
     inkscape:window-x="2391"
     inkscape:window-y="-9"
     inkscape:window-maximized="1"
     inkscape:current-layer="layer1" />
  <defs
     id="defs67581" />
  <g
     inkscape:label="Calque 1"
     inkscape:groupmode="layer"
     id="layer1">
    <path
       style="fill:#c6d7ba;fill-opacity:1;stroke-width:0.999999"
       d="M 12.243917,25.671703 V 23.686209 21.700715 L 11.406512,21.527753 C 8.4002559,20.906815 5.9850229,18.82823 5.0567872,16.063079 4.0066251,12.934692 4.9311384,8.2312097 7.2850317,4.7269736 8.1817605,3.3920069 9.8683127,1.8025175 10.969437,1.2546087 c 0.851251,-0.42359487 1.046324,-0.46730617 2.085538,-0.46802637 1.060499,-6.593e-4 1.224945,0.038227 2.193503,0.51633587 1.955821,0.9658529 4.170796,3.5752325 5.343178,6.2946061 0.943106,2.1875527 1.233573,3.5152057 1.239346,5.6647977 0.0043,1.605528 -0.03934,2.014575 -0.302988,2.817754 -0.830613,2.533475 -3.322832,4.703305 -6.193399,5.392243 l -0.944192,0.226644 v 1.986398 1.986398 c -2.146506,-5.6e-5 0,0 -2.146506,-5.6e-5 z m -0.02825,-7.324546 -0.03879,-1.15338 -1.676945,-1.048926 C 8.7688338,15.062052 8.4288553,14.708994 8.5638669,14.134315 c 0.2421572,-1.030732 1.0470213,-1.073686 2.5134091,-0.134131 0.575793,0.368914 1.073846,0.670755 1.106787,0.670755 0.03269,0 0.0599,-0.875366 0.0599,-1.945257 0,-1.766379 0.02493,-1.969927 0.268307,-2.213563 0.335506,-0.335508 1.074416,-0.352404 1.465966,-0.03324 0.212796,0.173239 0.313293,0.453622 0.383818,1.070366 l 0.09551,0.835595 1.006162,-0.599309 c 0.553399,-0.329635 1.10718,-0.599992 1.230647,-0.600823 0.412625,-0.0027 1.050001,0.658749 1.050001,1.089758 0,0.534617 -0.343651,0.846269 -1.978791,1.794566 l -1.375099,0.797484 v 2.317163 c 0,2.657179 -0.07208,2.541147 1.267505,2.039942 1.887496,-0.706206 3.316418,-2.159093 3.849462,-3.914026 C 20.08916,13.394438 19.636088,10.443378 18.379678,7.9634645 17.354658,5.9403323 15.810558,4.1140547 14.459437,3.3268312 13.647637,2.8538734 12.586839,2.8003008 11.842123,3.1947547 11.172871,3.5492093 9.7560057,4.9435654 9.1260862,5.867608 8.4099854,6.918085 7.4987146,8.8689208 7.1444151,10.109961 6.7768302,11.39746 6.6404328,13.811153 6.8782128,14.820175 c 0.4725138,2.005145 2.0075387,3.680101 4.0439472,4.412672 0.394952,0.142103 0.85627,0.260494 1.025164,0.263155 0.299498,0.0047 0.30609,-0.02327 0.268307,-1.148543 z"
       id="path18144"
       sodipodi:nodetypes="cccssscccssccccccccsssssccccsssscssscccscscscc" />
  </g>
</svg>
