<?xml version="1.0" encoding="UTF-8" standalone="no"?>
<!-- Created with Inkscape (http://www.inkscape.org/) -->

<svg
   width="100"
   height="100"
   viewBox="0 0 26.458333 26.458334"
   version="1.1"
   id="svg67584"
   inkscape:version="1.1 (c68e22c387, 2021-05-23)"
   sodipodi:docname="herbes_icon.svg"
   xmlns:inkscape="http://www.inkscape.org/namespaces/inkscape"
   xmlns:sodipodi="http://sodipodi.sourceforge.net/DTD/sodipodi-0.dtd"
   xmlns="http://www.w3.org/2000/svg"
   xmlns:svg="http://www.w3.org/2000/svg">
  <sodipodi:namedview
     id="namedview67586"
     pagecolor="#ffffff"
     bordercolor="#666666"
     borderopacity="1.0"
     inkscape:pageshadow="2"
     inkscape:pageopacity="0.0"
     inkscape:pagecheckerboard="0"
     inkscape:document-units="mm"
     showgrid="false"
     units="px"
     inkscape:zoom="8.446077"
     inkscape:cx="44.636107"
     inkscape:cy="50.852011"
     inkscape:window-width="2400"
     inkscape:window-height="1271"
     inkscape:window-x="2391"
     inkscape:window-y="-9"
     inkscape:window-maximized="1"
     inkscape:current-layer="layer1" />
  <defs
     id="defs67581" />
  <g
     inkscape:label="Calque 1"
     inkscape:groupmode="layer"
     id="layer1">
    <path
       style="fill:#daac5a;fill-opacity:1;stroke-width:0.999999"
       d="m 1.2004465,23.441837 c -0.129413,-0.129413 -0.23527081,-0.34705 -0.23527081,-0.483628 0,-0.136577 0.10585611,-0.354215 0.23527081,-0.483627 L 1.435719,22.23931 h 2.256868 2.2568613 v -0.410247 c 0,-0.580367 -0.2559773,-2.576344 -0.485732,-3.78755 C 5.2025062,16.664589 4.7051873,14.781312 4.2218676,13.338929 3.9688491,12.583831 3.84615,12.070442 3.8832946,11.922368 c 0.082649,-0.329359 0.6382721,-0.584226 0.9570267,-0.438973 0.3172985,0.14454 1.6442735,1.753042 2.4287884,2.94402 0.347276,0.5272 0.661804,0.994426 0.698972,1.038318 C 8.1923737,15.730642 7.1959567,11.047732 6.4681433,8.4166024 6.2355464,7.5758192 6.0452686,6.7834842 6.0452686,6.6558588 c 0,-0.3154776 0.3232143,-0.615455 0.6631351,-0.615455 0.6572143,0 2.5269194,2.0740088 3.6863153,4.0891272 0.540851,0.939989 1.089957,2.185421 1.451551,3.292098 0.146306,0.447732 0.287719,0.852881 0.314226,0.9003 0.02674,0.04721 0.253988,-0.509224 0.505471,-1.236946 1.164675,-3.3706652 3.235822,-6.7043852 5.791029,-9.3212656 0.8063,-0.8257544 1.006617,-0.9826577 1.254346,-0.9824745 0.355467,2.549e-4 0.711628,0.3409054 0.711628,0.6806146 0,0.1302127 -0.238741,0.9469459 -0.530555,1.8149995 -0.647037,1.9247806 -1.452735,4.6636021 -1.90235,6.466714 -0.376059,1.508213 -1.04903,4.721816 -0.969165,4.628152 0.01316,-0.01483 0.310586,-0.410134 0.661769,-0.878037 0.351201,-0.467927 0.906531,-1.154083 1.234114,-1.524813 0.744928,-0.843052 2.539545,-2.452365 2.813828,-2.523289 0.29136,-0.07532 0.787154,0.209048 0.858241,0.492273 0.04323,0.172073 -0.0871,0.566223 -0.466731,1.412063 -1.293244,2.881311 -1.996914,5.40746 -2.322649,8.338237 l -0.06126,0.551148 h 2.647171 2.64717 l 0.235272,0.235273 c 0.287548,0.287547 0.300119,0.61492 0.0364,0.949947 l -0.198638,0.252566 H 13.270531 1.4354708 Z m 7.286825,-1.753652 C 8.3004656,20.078611 7.7722412,18.30624 7.0518131,16.871789 6.8079508,16.386285 6.5882085,16.009264 6.5634072,16.034037 c -0.025023,0.02502 0.039817,0.428278 0.1430573,0.896621 0.2599023,1.176709 0.5658805,3.255121 0.6438898,4.374124 l 0.06514,0.934551 h 0.5678713 0.5678713 z m 2.6638095,-0.670957 c 0.029,-0.672161 0.106939,-1.696572 0.172642,-2.276475 C 11.439075,17.722379 11.434244,17.64409 11.181915,16.44714 10.680541,14.06924 9.7143229,11.613881 8.6878417,10.109353 8.437837,9.7429643 8.257515,9.5294228 8.2870944,9.6348841 8.4592814,10.24848 8.8512123,12.044413 9.102878,13.373095 c 0.5344801,2.821729 0.752853,4.689841 0.8430423,7.212824 l 0.059109,1.653438 h 0.546425 0.546427 z m 3.904265,0.470715 c 0,-3.118101 1.014575,-8.656167 2.482048,-13.5482497 0.216444,-0.7214859 0.393522,-1.3425602 0.393522,-1.3801779 0,-0.037551 -0.213655,0.213883 -0.47481,0.5588267 -2.132114,2.8164577 -3.611954,6.1483619 -4.358272,9.8127939 -0.293122,1.439314 -0.53431,3.477839 -0.53448,4.517448 l -1.13e-4,0.790773 h 1.246068 1.246071 z m 3.304851,0.200289 c 0.217466,-2.007888 0.580147,-3.789593 1.10411,-5.424298 0.166265,-0.518782 0.282826,-0.962738 0.258991,-0.986566 -0.06917,-0.06917 -1.347111,1.671913 -1.780503,2.425795 -0.694064,1.207327 -1.230154,2.76029 -1.392217,4.032999 l -0.06411,0.503195 h 0.906991 0.906996 z"
       id="path4039" />
  </g>
</svg>
