<?xml version="1.0" encoding="UTF-8" standalone="no"?>
<!-- Created with Inkscape (http://www.inkscape.org/) -->

<svg
   width="175mm"
   height="16.199968mm"
   viewBox="0 0 175.00002 16.199969"
   version="1.1"
   id="svg415175"
   inkscape:version="1.1 (c68e22c387, 2021-05-23)"
   sodipodi:docname="obepine_title.svg"
   xmlns:inkscape="http://www.inkscape.org/namespaces/inkscape"
   xmlns:sodipodi="http://sodipodi.sourceforge.net/DTD/sodipodi-0.dtd"
   xmlns="http://www.w3.org/2000/svg"
   xmlns:svg="http://www.w3.org/2000/svg">
  <sodipodi:namedview
     id="namedview415177"
     pagecolor="#086570"
     bordercolor="#666666"
     borderopacity="1.0"
     inkscape:pageshadow="2"
     inkscape:pageopacity="1"
     inkscape:pagecheckerboard="0"
     inkscape:document-units="mm"
     showgrid="false"
     lock-margins="false"
     fit-margin-top="1"
     fit-margin-left="3"
     fit-margin-right="3"
     fit-margin-bottom="2"
     inkscape:zoom="2.8284272"
     inkscape:cx="228.74904"
     inkscape:cy="83.968928"
     inkscape:window-width="2400"
     inkscape:window-height="1271"
     inkscape:window-x="2391"
     inkscape:window-y="-9"
     inkscape:window-maximized="1"
     inkscape:current-layer="layer1" />
  <defs
     id="defs415172" />
  <g
     inkscape:label="Calque 1"
     inkscape:groupmode="layer"
     id="layer1"
     transform="translate(-44.151901,-137.00757)">
    <g
       aria-label="OBÉPINE"
       id="text10383-4"
       style="font-size:12.2343px;line-height:1.25;font-family:Roboto;-inkscape-font-specification:'Roboto, Normal';letter-spacing:0.89411px;fill:#ffffff;stroke-width:0.264584">
      <path
         d="m 51.568483,150.03388 q -1.211196,0 -2.226643,-0.56278 -1.003212,-0.56277 -1.602693,-1.56599 -0.587246,-1.01544 -0.587246,-2.27558 0,-1.26013 0.587246,-2.26334 0.599481,-1.00321 1.602693,-1.56599 1.015447,-0.56278 2.226643,-0.56278 1.211196,0 2.214408,0.56278 1.015447,0.56278 1.590459,1.56599 0.587247,1.00321 0.587247,2.26334 0,1.26014 -0.587247,2.27558 -0.587246,1.00322 -1.590459,1.56599 -1.003212,0.56278 -2.214408,0.56278 z m 0,-1.90855 q 1.027681,0 1.639396,-0.68512 0.623949,-0.68512 0.623949,-1.81068 0,-1.13779 -0.623949,-1.81067 -0.611715,-0.68512 -1.639396,-0.68512 -1.039915,0 -1.663865,0.67288 -0.611715,0.67289 -0.611715,1.82291 0,1.13779 0.611715,1.82292 0.62395,0.67288 1.663865,0.67288 z"
         style="font-weight:bold;font-family:Poppins;-inkscape-font-specification:'Poppins Bold'"
         id="path415385" />
      <path
         d="m 63.216533,145.54389 q 0.746293,0.15905 1.198962,0.7463 0.452669,0.57501 0.452669,1.3213 0,1.07662 -0.758527,1.7128 -0.746292,0.62395 -2.092065,0.62395 h -4.000616 v -8.58848 h 3.866039 q 1.30907,0 2.043128,0.59948 0.746292,0.59949 0.746292,1.62717 0,0.75852 -0.403732,1.26013 -0.391497,0.50161 -1.05215,0.69735 z m -3.107512,-0.70959 h 1.370242 q 0.51384,0 0.782995,-0.22021 0.281389,-0.23245 0.281389,-0.67289 0,-0.44043 -0.281389,-0.67289 -0.269155,-0.23245 -0.782995,-0.23245 h -1.370242 z m 1.541522,3.42561 q 0.526075,0 0.807464,-0.23245 0.293623,-0.24469 0.293623,-0.69736 0,-0.45267 -0.305857,-0.70959 -0.293624,-0.25692 -0.819698,-0.25692 h -1.517054 v 1.89632 z"
         style="font-weight:bold;font-family:Poppins;-inkscape-font-specification:'Poppins Bold'"
         id="path415387" />
      <path
         d="m 69.065516,143.03586 v 1.73727 h 2.801654 v 1.61493 h -2.801654 v 1.88408 h 3.168683 v 1.6761 H 66.97345 v -8.58848 h 5.260749 v 1.6761 z m 1.90855,-3.40113 -2.948466,1.23566 v -1.44365 l 2.948466,-1.41917 z"
         style="font-weight:bold;font-family:Poppins;-inkscape-font-specification:'Poppins Bold'"
         id="path415389" />
      <path
         d="m 81.031649,144.12472 q 0,0.74629 -0.342561,1.37024 -0.34256,0.61171 -1.05215,0.99098 -0.709589,0.37926 -1.761739,0.37926 h -1.296835 v 3.08304 h -2.092066 v -8.58848 h 3.388901 q 1.027682,0 1.737271,0.3548 0.709589,0.35479 1.064384,0.97874 0.354795,0.62395 0.354795,1.43142 z m -3.315496,1.07661 q 0.599481,0 0.893104,-0.28138 0.293624,-0.28139 0.293624,-0.79523 0,-0.51385 -0.293624,-0.79523 -0.293623,-0.28139 -0.893104,-0.28139 h -1.137789 v 2.15323 z"
         style="font-weight:bold;font-family:Poppins;-inkscape-font-specification:'Poppins Bold'"
         id="path415391" />
      <path
         d="m 85.106661,141.35976 v 8.58848 h -2.092065 v -8.58848 z"
         style="font-weight:bold;font-family:Poppins;-inkscape-font-specification:'Poppins Bold'"
         id="path415393" />
      <path
         d="m 95.20094,149.94824 h -2.092065 l -3.49901,-5.29745 v 5.29745 H 87.5178 v -8.58848 h 2.092065 l 3.49901,5.32192 v -5.32192 h 2.092065 z"
         style="font-weight:bold;font-family:Poppins;-inkscape-font-specification:'Poppins Bold'"
         id="path415395" />
      <path
         d="m 99.704157,143.03586 v 1.73727 h 2.801653 v 1.61493 h -2.801653 v 1.88408 h 3.168683 v 1.6761 h -5.260748 v -8.58848 h 5.260748 v 1.6761 z"
         style="font-weight:bold;font-family:Poppins;-inkscape-font-specification:'Poppins Bold'"
         id="path415397" />
    </g>
    <path
       d="m 183.09349,148.50967 q 0,0.12415 -0.0143,0.26262 h -2.09144 q 0.0239,0.38678 0.26262,0.60643 0.24353,0.21487 0.58732,0.21487 0.28173,0 0.46795,-0.12893 0.191,-0.13369 0.2674,-0.35334 h 0.46795 q -0.10505,0.37722 -0.4202,0.61597 -0.31515,0.23397 -0.7831,0.23397 -0.37244,0 -0.66849,-0.16712 -0.29128,-0.16713 -0.4584,-0.47272 -0.16713,-0.31038 -0.16713,-0.71625 0,-0.40588 0.16235,-0.71148 0.16235,-0.3056 0.45363,-0.46795 0.29605,-0.16712 0.67804,-0.16712 0.37245,0 0.65895,0.16235 0.2865,0.16235 0.4393,0.44885 0.15758,0.28172 0.15758,0.63985 z m -0.44885,-0.0907 q 0,-0.2483 -0.10982,-0.42497 -0.10983,-0.18145 -0.30083,-0.27218 -0.18622,-0.0955 -0.41542,-0.0955 -0.32947,0 -0.56345,0.2101 -0.2292,0.2101 -0.26262,0.58255 z m -0.35812,-1.85747 -1.01707,0.54435 v -0.3247 l 1.01707,-0.59687 z"
       style="font-size:4.77499px;line-height:1.05;font-family:Poppins;-inkscape-font-specification:Poppins;letter-spacing:0px;fill:#ffffff;stroke-width:0.264584"
       id="path415466-3" />
    <path
       d="m 122.12178,144.93797 q -0.46317,0 -0.84517,-0.21487 -0.382,-0.21965 -0.60643,-0.60642 -0.21965,-0.39155 -0.21965,-0.8786 0,-0.48705 0.21965,-0.87383 0.22443,-0.39154 0.60643,-0.60642 0.382,-0.21965 0.84517,-0.21965 0.46795,0 0.84995,0.21965 0.382,0.21488 0.60165,0.60165 0.21965,0.38677 0.21965,0.8786 0,0.49182 -0.21965,0.8786 -0.21965,0.38677 -0.60165,0.60642 -0.382,0.21487 -0.84995,0.21487 z m 0,-0.37722 q 0.34857,0 0.62552,-0.16235 0.28173,-0.16235 0.4393,-0.46317 0.16235,-0.30083 0.16235,-0.69715 0,-0.4011 -0.16235,-0.69715 -0.15757,-0.30082 -0.43452,-0.46317 -0.27695,-0.16235 -0.6303,-0.16235 -0.35335,0 -0.6303,0.16235 -0.27695,0.16235 -0.4393,0.46317 -0.15757,0.29605 -0.15757,0.69715 0,0.39632 0.15757,0.69715 0.16235,0.30082 0.4393,0.46317 0.28172,0.16235 0.6303,0.16235 z"
       style="font-size:4.77499px;line-height:1.05;font-family:Poppins;-inkscape-font-specification:Poppins;letter-spacing:0px;fill:#ffffff;stroke-width:0.264584"
       id="path415400" />
    <path
       d="m 124.80055,142.7749 q 0.1337,-0.23397 0.39154,-0.382 0.25785,-0.14802 0.58733,-0.14802 0.35335,0 0.63507,0.16712 0.28173,0.16713 0.44408,0.47273 0.16235,0.30082 0.16235,0.70192 0,0.39633 -0.16235,0.7067 -0.16235,0.31038 -0.44885,0.48227 -0.28173,0.1719 -0.6303,0.1719 -0.33903,0 -0.59688,-0.14802 -0.25307,-0.14802 -0.38199,-0.37722 v 0.48227 h -0.43453 v -3.53349 h 0.43453 z m 1.77629,0.81175 q 0,-0.29605 -0.11937,-0.5157 -0.11938,-0.21965 -0.3247,-0.33425 -0.20055,-0.1146 -0.44408,-0.1146 -0.23875,0 -0.44407,0.11938 -0.20055,0.1146 -0.3247,0.33902 -0.11937,0.21965 -0.11937,0.51093 0,0.29605 0.11937,0.52047 0.12415,0.21965 0.3247,0.33903 0.20532,0.1146 0.44407,0.1146 0.24353,0 0.44408,-0.1146 0.20532,-0.11938 0.3247,-0.33903 0.11937,-0.22442 0.11937,-0.52525 z"
       style="font-size:4.77499px;line-height:1.05;font-family:Poppins;-inkscape-font-specification:Poppins;letter-spacing:0px;fill:#ffffff;stroke-width:0.264584"
       id="path415402" />
    <path
       d="m 128.52026,144.94752 q -0.30083,0 -0.53958,-0.10027 -0.23875,-0.10505 -0.37722,-0.2865 -0.13848,-0.18622 -0.1528,-0.42497 h 0.44885 q 0.0191,0.19577 0.18145,0.31992 0.16712,0.12415 0.43452,0.12415 0.2483,0 0.39155,-0.10982 0.14325,-0.10983 0.14325,-0.27695 0,-0.1719 -0.1528,-0.25308 -0.1528,-0.0859 -0.47272,-0.16712 -0.29128,-0.0764 -0.4775,-0.1528 -0.18145,-0.0812 -0.31515,-0.23398 -0.12893,-0.15757 -0.12893,-0.41065 0,-0.20055 0.11938,-0.36767 0.11937,-0.16713 0.33902,-0.26263 0.21965,-0.10027 0.50138,-0.10027 0.43452,0 0.70192,0.21965 0.2674,0.21965 0.2865,0.60165 h -0.43453 q -0.0143,-0.20533 -0.16712,-0.32948 -0.14802,-0.12415 -0.4011,-0.12415 -0.23397,0 -0.37245,0.10028 -0.13847,0.10027 -0.13847,0.26262 0,0.12893 0.0812,0.21488 0.0859,0.0812 0.2101,0.1337 0.12892,0.0478 0.35335,0.10982 0.28172,0.0764 0.45839,0.1528 0.17668,0.0716 0.30083,0.21965 0.12892,0.14803 0.1337,0.38678 0,0.21487 -0.11938,0.38677 -0.11937,0.1719 -0.33902,0.27217 -0.21487,0.0955 -0.4966,0.0955 z"
       style="font-size:4.77499px;line-height:1.05;font-family:Poppins;-inkscape-font-specification:Poppins;letter-spacing:0px;fill:#ffffff;stroke-width:0.264584"
       id="path415404" />
    <path
       d="m 132.47395,143.49593 q 0,0.12415 -0.0143,0.26262 h -2.09145 q 0.0239,0.38678 0.26263,0.60643 0.24352,0.21487 0.58732,0.21487 0.28172,0 0.46795,-0.12892 0.191,-0.1337 0.2674,-0.35335 h 0.46795 q -0.10505,0.37722 -0.4202,0.61597 -0.31515,0.23397 -0.7831,0.23397 -0.37245,0 -0.6685,-0.16712 -0.29128,-0.16712 -0.4584,-0.47272 -0.16712,-0.31038 -0.16712,-0.71625 0,-0.40588 0.16235,-0.71148 0.16235,-0.3056 0.45362,-0.46795 0.29605,-0.16712 0.67805,-0.16712 0.37245,0 0.65895,0.16235 0.2865,0.16235 0.4393,0.44885 0.15757,0.28172 0.15757,0.63985 z m -0.44885,-0.0907 q 0,-0.2483 -0.10983,-0.42497 -0.10982,-0.18145 -0.30082,-0.27218 -0.18623,-0.0955 -0.41543,-0.0955 -0.32947,0 -0.56345,0.2101 -0.22919,0.2101 -0.26262,0.58255 z"
       style="font-size:4.77499px;line-height:1.05;font-family:Poppins;-inkscape-font-specification:Poppins;letter-spacing:0px;fill:#ffffff;stroke-width:0.264584"
       id="path415406" />
    <path
       d="m 133.48146,142.71283 q 0.1146,-0.22443 0.3247,-0.34858 0.21488,-0.12414 0.52048,-0.12414 v 0.44884 h -0.1146 q -0.73058,0 -0.73058,0.79265 v 1.42295 h -0.43452 v -2.6167 h 0.43452 z"
       style="font-size:4.77499px;line-height:1.05;font-family:Poppins;-inkscape-font-specification:Poppins;letter-spacing:0px;fill:#ffffff;stroke-width:0.264584"
       id="path415408" />
    <path
       d="m 135.80211,144.50345 0.81174,-2.2156 h 0.46318 l -1.02663,2.6167 h -0.50615 l -1.02662,-2.6167 h 0.46795 z"
       style="font-size:4.77499px;line-height:1.05;font-family:Poppins;-inkscape-font-specification:Poppins;letter-spacing:0px;fill:#ffffff;stroke-width:0.264584"
       id="path415410" />
    <path
       d="m 137.34442,143.58665 q 0,-0.4011 0.16235,-0.70192 0.16235,-0.3056 0.44407,-0.47273 0.2865,-0.16712 0.63508,-0.16712 0.3438,0 0.59687,0.14802 0.25308,0.14803 0.37723,0.37245 v -0.4775 h 0.4393 v 2.6167 h -0.4393 v -0.48705 q -0.12893,0.2292 -0.38678,0.382 -0.25307,0.14802 -0.5921,0.14802 -0.34857,0 -0.6303,-0.1719 -0.28172,-0.17189 -0.44407,-0.48227 -0.16235,-0.31037 -0.16235,-0.7067 z m 2.2156,0.005 q 0,-0.29605 -0.11938,-0.5157 -0.11937,-0.21965 -0.3247,-0.33425 -0.20055,-0.11938 -0.44407,-0.11938 -0.24353,0 -0.44408,0.1146 -0.20055,0.1146 -0.31992,0.33425 -0.11937,0.21965 -0.11937,0.5157 0,0.30083 0.11937,0.52525 0.11937,0.21965 0.31992,0.33903 0.20055,0.1146 0.44408,0.1146 0.24352,0 0.44407,-0.1146 0.20533,-0.11938 0.3247,-0.33903 0.11938,-0.22442 0.11938,-0.52047 z"
       style="font-size:4.77499px;line-height:1.05;font-family:Poppins;-inkscape-font-specification:Poppins;letter-spacing:0px;fill:#ffffff;stroke-width:0.264584"
       id="path415412" />
    <path
       d="m 141.26468,142.64598 v 1.54232 q 0,0.191 0.0812,0.27218 0.0812,0.0764 0.28173,0.0764 h 0.31992 v 0.36767 h -0.39155 q -0.3629,0 -0.54435,-0.16713 -0.18145,-0.16712 -0.18145,-0.54912 v -1.54232 h -0.33902 v -0.35813 h 0.33902 v -0.65894 h 0.43453 v 0.65894 h 0.68282 v 0.35813 z"
       style="font-size:4.77499px;line-height:1.05;font-family:Poppins;-inkscape-font-specification:Poppins;letter-spacing:0px;fill:#ffffff;stroke-width:0.264584"
       id="path415414" />
    <path
       d="m 143.61397,144.94752 q -0.36768,0 -0.6685,-0.16712 -0.29605,-0.16712 -0.46795,-0.47272 -0.16712,-0.31038 -0.16712,-0.71625 0,-0.4011 0.1719,-0.7067 0.17667,-0.31038 0.47749,-0.47273 0.30083,-0.16712 0.67328,-0.16712 0.37245,0 0.67327,0.16712 0.30083,0.16235 0.47273,0.46795 0.17667,0.3056 0.17667,0.71148 0,0.40587 -0.18145,0.71625 -0.17667,0.3056 -0.48227,0.47272 -0.3056,0.16712 -0.67805,0.16712 z m 0,-0.38199 q 0.23397,0 0.4393,-0.10983 0.20532,-0.10982 0.32947,-0.32947 0.12893,-0.21965 0.12893,-0.5348 0,-0.31515 -0.12415,-0.5348 -0.12415,-0.21965 -0.3247,-0.3247 -0.20055,-0.10983 -0.43453,-0.10983 -0.23875,0 -0.4393,0.10983 -0.19577,0.10505 -0.31515,0.3247 -0.11937,0.21965 -0.11937,0.5348 0,0.31992 0.1146,0.53957 0.11937,0.21965 0.31515,0.32948 0.19577,0.10505 0.42975,0.10505 z"
       style="font-size:4.77499px;line-height:1.05;font-family:Poppins;-inkscape-font-specification:Poppins;letter-spacing:0px;fill:#ffffff;stroke-width:0.264584"
       id="path415416" />
    <path
       d="m 145.75316,141.86288 q -0.12415,0 -0.2101,-0.0859 -0.0859,-0.0859 -0.0859,-0.2101 0,-0.12415 0.0859,-0.2101 0.0859,-0.0859 0.2101,-0.0859 0.11938,0 0.20055,0.0859 0.0859,0.0859 0.0859,0.2101 0,0.12415 -0.0859,0.2101 -0.0812,0.0859 -0.20055,0.0859 z m 0.2101,0.42497 v 2.6167 h -0.43452 v -2.6167 z"
       style="font-size:4.77499px;line-height:1.05;font-family:Poppins;-inkscape-font-specification:Poppins;letter-spacing:0px;fill:#ffffff;stroke-width:0.264584"
       id="path415418" />
    <path
       d="m 147.1379,142.71283 q 0.1146,-0.22443 0.3247,-0.34858 0.21487,-0.12414 0.52047,-0.12414 v 0.44884 h -0.1146 q -0.73057,0 -0.73057,0.79265 v 1.42295 h -0.43452 v -2.6167 h 0.43452 z"
       style="font-size:4.77499px;line-height:1.05;font-family:Poppins;-inkscape-font-specification:Poppins;letter-spacing:0px;fill:#ffffff;stroke-width:0.264584"
       id="path415420" />
    <path
       d="m 150.87194,143.49593 q 0,0.12415 -0.0143,0.26262 h -2.09145 q 0.0239,0.38678 0.26263,0.60643 0.24352,0.21487 0.58732,0.21487 0.28173,0 0.46795,-0.12892 0.191,-0.1337 0.2674,-0.35335 h 0.46795 q -0.10505,0.37722 -0.4202,0.61597 -0.31515,0.23397 -0.7831,0.23397 -0.37245,0 -0.6685,-0.16712 -0.29127,-0.16712 -0.4584,-0.47272 -0.16712,-0.31038 -0.16712,-0.71625 0,-0.40588 0.16235,-0.71148 0.16235,-0.3056 0.45362,-0.46795 0.29605,-0.16712 0.67805,-0.16712 0.37245,0 0.65895,0.16235 0.2865,0.16235 0.4393,0.44885 0.15757,0.28172 0.15757,0.63985 z m -0.44885,-0.0907 q 0,-0.2483 -0.10983,-0.42497 -0.10982,-0.18145 -0.30082,-0.27218 -0.18622,-0.0955 -0.41542,-0.0955 -0.32948,0 -0.56345,0.2101 -0.2292,0.2101 -0.26263,0.58255 z"
       style="font-size:4.77499px;line-height:1.05;font-family:Poppins;-inkscape-font-specification:Poppins;letter-spacing:0px;fill:#ffffff;stroke-width:0.264584"
       id="path415422" />
    <path
       d="m 152.5575,143.58665 q 0,-0.4011 0.16235,-0.70192 0.16235,-0.3056 0.44407,-0.47273 0.2865,-0.16712 0.63985,-0.16712 0.3056,0 0.56822,0.14325 0.26263,0.13847 0.4011,0.36767 v -1.38474 h 0.4393 v 3.53349 h -0.4393 v -0.49182 q -0.12892,0.23397 -0.382,0.38677 -0.25307,0.14802 -0.5921,0.14802 -0.34857,0 -0.63507,-0.1719 -0.28172,-0.17189 -0.44407,-0.48227 -0.16235,-0.31037 -0.16235,-0.7067 z m 2.21559,0.005 q 0,-0.29605 -0.11937,-0.5157 -0.11938,-0.21965 -0.3247,-0.33425 -0.20055,-0.11938 -0.44408,-0.11938 -0.24352,0 -0.44407,0.1146 -0.20055,0.1146 -0.31992,0.33425 -0.11938,0.21965 -0.11938,0.5157 0,0.30083 0.11938,0.52525 0.11937,0.21965 0.31992,0.33903 0.20055,0.1146 0.44407,0.1146 0.24353,0 0.44408,-0.1146 0.20532,-0.11938 0.3247,-0.33903 0.11937,-0.22442 0.11937,-0.52047 z"
       style="font-size:4.77499px;line-height:1.05;font-family:Poppins;-inkscape-font-specification:Poppins;letter-spacing:0px;fill:#ffffff;stroke-width:0.264584"
       id="path415424" />
    <path
       d="m 158.33523,143.49593 q 0,0.12415 -0.0143,0.26262 h -2.09145 q 0.0239,0.38678 0.26263,0.60643 0.24352,0.21487 0.58732,0.21487 0.28172,0 0.46795,-0.12892 0.191,-0.1337 0.2674,-0.35335 h 0.46795 q -0.10505,0.37722 -0.4202,0.61597 -0.31515,0.23397 -0.7831,0.23397 -0.37245,0 -0.6685,-0.16712 -0.29127,-0.16712 -0.4584,-0.47272 -0.16712,-0.31038 -0.16712,-0.71625 0,-0.40588 0.16235,-0.71148 0.16235,-0.3056 0.45362,-0.46795 0.29605,-0.16712 0.67805,-0.16712 0.37245,0 0.65895,0.16235 0.2865,0.16235 0.4393,0.44885 0.15757,0.28172 0.15757,0.63985 z m -0.44885,-0.0907 q 0,-0.2483 -0.10983,-0.42497 -0.10982,-0.18145 -0.30082,-0.27218 -0.18623,-0.0955 -0.41542,-0.0955 -0.32948,0 -0.56345,0.2101 -0.2292,0.2101 -0.26263,0.58255 z"
       style="font-size:4.77499px;line-height:1.05;font-family:Poppins;-inkscape-font-specification:Poppins;letter-spacing:0px;fill:#ffffff;stroke-width:0.264584"
       id="path415426" />
    <path
       d="m 160.61766,141.37106 v 3.53349 h -0.43452 v -3.53349 z"
       style="font-size:4.77499px;line-height:1.05;font-family:Poppins;-inkscape-font-specification:Poppins;letter-spacing:0px;fill:#ffffff;stroke-width:0.264584"
       id="path415428" />
    <path
       d="m 161.19543,143.58665 q 0,-0.4011 0.16235,-0.70192 0.16235,-0.3056 0.44407,-0.47273 0.2865,-0.16712 0.63508,-0.16712 0.3438,0 0.59687,0.14802 0.25307,0.14803 0.37722,0.37245 v -0.4775 h 0.4393 v 2.6167 h -0.4393 v -0.48705 q -0.12892,0.2292 -0.38677,0.382 -0.25307,0.14802 -0.5921,0.14802 -0.34857,0 -0.6303,-0.1719 -0.28172,-0.17189 -0.44407,-0.48227 -0.16235,-0.31037 -0.16235,-0.7067 z m 2.21559,0.005 q 0,-0.29605 -0.11937,-0.5157 -0.11938,-0.21965 -0.3247,-0.33425 -0.20055,-0.11938 -0.44407,-0.11938 -0.24353,0 -0.44408,0.1146 -0.20055,0.1146 -0.31992,0.33425 -0.11938,0.21965 -0.11938,0.5157 0,0.30083 0.11938,0.52525 0.11937,0.21965 0.31992,0.33903 0.20055,0.1146 0.44408,0.1146 0.24352,0 0.44407,-0.1146 0.20532,-0.11938 0.3247,-0.33903 0.11937,-0.22442 0.11937,-0.52047 z"
       style="font-size:4.77499px;line-height:1.05;font-family:Poppins;-inkscape-font-specification:Poppins;letter-spacing:0px;fill:#ffffff;stroke-width:0.264584"
       id="path415430" />
    <path
       d="m 166.2951,142.7749 q 0.1337,-0.23397 0.39155,-0.382 0.25785,-0.14802 0.58733,-0.14802 0.35334,0 0.63507,0.16712 0.28172,0.16713 0.44407,0.47273 0.16235,0.30082 0.16235,0.70192 0,0.39633 -0.16235,0.7067 -0.16235,0.31038 -0.44885,0.48227 -0.28172,0.1719 -0.63029,0.1719 -0.33903,0 -0.59688,-0.14802 -0.25307,-0.14802 -0.382,-0.37722 v 0.48227 h -0.43452 v -3.53349 h 0.43452 z m 1.7763,0.81175 q 0,-0.29605 -0.11938,-0.5157 -0.11937,-0.21965 -0.32469,-0.33425 -0.20056,-0.1146 -0.44408,-0.1146 -0.23875,0 -0.44407,0.11938 -0.20055,0.1146 -0.3247,0.33902 -0.11938,0.21965 -0.11938,0.51093 0,0.29605 0.11938,0.52047 0.12415,0.21965 0.3247,0.33903 0.20532,0.1146 0.44407,0.1146 0.24352,0 0.44408,-0.1146 0.20532,-0.11938 0.32469,-0.33903 0.11938,-0.22442 0.11938,-0.52525 z"
       style="font-size:4.77499px;line-height:1.05;font-family:Poppins;-inkscape-font-specification:Poppins;letter-spacing:0px;fill:#ffffff;stroke-width:0.264584"
       id="path415432" />
    <path
       d="m 169.31289,141.86288 q -0.12415,0 -0.2101,-0.0859 -0.0859,-0.0859 -0.0859,-0.2101 0,-0.12415 0.0859,-0.2101 0.0859,-0.0859 0.2101,-0.0859 0.11937,0 0.20055,0.0859 0.0859,0.0859 0.0859,0.2101 0,0.12415 -0.0859,0.2101 -0.0812,0.0859 -0.20055,0.0859 z m 0.2101,0.42497 v 2.6167 h -0.43452 v -2.6167 z"
       style="font-size:4.77499px;line-height:1.05;font-family:Poppins;-inkscape-font-specification:Poppins;letter-spacing:0px;fill:#ffffff;stroke-width:0.264584"
       id="path415434" />
    <path
       d="m 171.40433,144.94752 q -0.36768,0 -0.6685,-0.16712 -0.29605,-0.16712 -0.46795,-0.47272 -0.16712,-0.31038 -0.16712,-0.71625 0,-0.4011 0.1719,-0.7067 0.17667,-0.31038 0.47749,-0.47273 0.30083,-0.16712 0.67328,-0.16712 0.37245,0 0.67327,0.16712 0.30083,0.16235 0.47273,0.46795 0.17667,0.3056 0.17667,0.71148 0,0.40587 -0.18145,0.71625 -0.17667,0.3056 -0.48227,0.47272 -0.3056,0.16712 -0.67805,0.16712 z m 0,-0.38199 q 0.23397,0 0.4393,-0.10983 0.20532,-0.10982 0.32947,-0.32947 0.12893,-0.21965 0.12893,-0.5348 0,-0.31515 -0.12415,-0.5348 -0.12415,-0.21965 -0.3247,-0.3247 -0.20055,-0.10983 -0.43453,-0.10983 -0.23875,0 -0.4393,0.10983 -0.19577,0.10505 -0.31515,0.3247 -0.11937,0.21965 -0.11937,0.5348 0,0.31992 0.1146,0.53957 0.11937,0.21965 0.31515,0.32948 0.19577,0.10505 0.42975,0.10505 z"
       style="font-size:4.77499px;line-height:1.05;font-family:Poppins;-inkscape-font-specification:Poppins;letter-spacing:0px;fill:#ffffff;stroke-width:0.264584"
       id="path415436" />
    <path
       d="m 173.15675,143.58665 q 0,-0.4011 0.16235,-0.70192 0.16235,-0.3056 0.44407,-0.47273 0.2865,-0.16712 0.63985,-0.16712 0.3056,0 0.56822,0.14325 0.26263,0.13847 0.4011,0.36767 v -1.38474 h 0.4393 v 3.53349 h -0.4393 v -0.49182 q -0.12892,0.23397 -0.382,0.38677 -0.25307,0.14802 -0.5921,0.14802 -0.34857,0 -0.63507,-0.1719 -0.28172,-0.17189 -0.44407,-0.48227 -0.16235,-0.31037 -0.16235,-0.7067 z m 2.21559,0.005 q 0,-0.29605 -0.11937,-0.5157 -0.11938,-0.21965 -0.3247,-0.33425 -0.20055,-0.11938 -0.44408,-0.11938 -0.24352,0 -0.44407,0.1146 -0.20055,0.1146 -0.31992,0.33425 -0.11938,0.21965 -0.11938,0.5157 0,0.30083 0.11938,0.52525 0.11937,0.21965 0.31992,0.33903 0.20055,0.1146 0.44407,0.1146 0.24353,0 0.44408,-0.1146 0.20532,-0.11938 0.3247,-0.33903 0.11937,-0.22442 0.11937,-0.52047 z"
       style="font-size:4.77499px;line-height:1.05;font-family:Poppins;-inkscape-font-specification:Poppins;letter-spacing:0px;fill:#ffffff;stroke-width:0.264584"
       id="path415438" />
    <path
       d="m 176.77141,141.86288 q -0.12415,0 -0.2101,-0.0859 -0.0859,-0.0859 -0.0859,-0.2101 0,-0.12415 0.0859,-0.2101 0.086,-0.0859 0.2101,-0.0859 0.11937,0 0.20055,0.0859 0.0859,0.0859 0.0859,0.2101 0,0.12415 -0.0859,0.2101 -0.0812,0.0859 -0.20055,0.0859 z m 0.2101,0.42497 v 2.6167 h -0.43453 v -2.6167 z"
       style="font-size:4.77499px;line-height:1.05;font-family:Poppins;-inkscape-font-specification:Poppins;letter-spacing:0px;fill:#ffffff;stroke-width:0.264584"
       id="path415440" />
    <path
       d="m 178.69572,144.50345 0.81175,-2.2156 h 0.46317 l -1.02662,2.6167 h -0.50615 l -1.02662,-2.6167 h 0.46794 z"
       style="font-size:4.77499px;line-height:1.05;font-family:Poppins;-inkscape-font-specification:Poppins;letter-spacing:0px;fill:#ffffff;stroke-width:0.264584"
       id="path415442" />
    <path
       d="m 182.78788,143.49593 q 0,0.12415 -0.0143,0.26262 h -2.09144 q 0.0239,0.38678 0.26262,0.60643 0.24353,0.21487 0.58733,0.21487 0.28172,0 0.46795,-0.12892 0.191,-0.1337 0.2674,-0.35335 h 0.46794 q -0.10505,0.37722 -0.42019,0.61597 -0.31515,0.23397 -0.7831,0.23397 -0.37245,0 -0.6685,-0.16712 -0.29128,-0.16712 -0.4584,-0.47272 -0.16713,-0.31038 -0.16713,-0.71625 0,-0.40588 0.16235,-0.71148 0.16235,-0.3056 0.45363,-0.46795 0.29605,-0.16712 0.67805,-0.16712 0.37245,0 0.65895,0.16235 0.28649,0.16235 0.43929,0.44885 0.15758,0.28172 0.15758,0.63985 z m -0.44885,-0.0907 q 0,-0.2483 -0.10982,-0.42497 -0.10983,-0.18145 -0.30083,-0.27218 -0.18622,-0.0955 -0.41542,-0.0955 -0.32948,0 -0.56345,0.2101 -0.2292,0.2101 -0.26263,0.58255 z"
       style="font-size:4.77499px;line-height:1.05;font-family:Poppins;-inkscape-font-specification:Poppins;letter-spacing:0px;fill:#ffffff;stroke-width:0.264584"
       id="path415444" />
    <path
       d="m 183.7954,142.71283 q 0.1146,-0.22443 0.3247,-0.34858 0.21487,-0.12414 0.52047,-0.12414 v 0.44884 h -0.1146 q -0.73057,0 -0.73057,0.79265 v 1.42295 h -0.43452 v -2.6167 h 0.43452 z"
       style="font-size:4.77499px;line-height:1.05;font-family:Poppins;-inkscape-font-specification:Poppins;letter-spacing:0px;fill:#ffffff;stroke-width:0.264584"
       id="path415446" />
    <path
       d="m 186.06829,144.94752 q -0.30082,0 -0.53957,-0.10027 -0.23875,-0.10505 -0.37723,-0.2865 -0.13847,-0.18622 -0.1528,-0.42497 h 0.44885 q 0.0191,0.19577 0.18145,0.31992 0.16713,0.12415 0.43453,0.12415 0.24829,0 0.39154,-0.10982 0.14325,-0.10983 0.14325,-0.27695 0,-0.1719 -0.1528,-0.25308 -0.1528,-0.0859 -0.47272,-0.16712 -0.29127,-0.0764 -0.4775,-0.1528 -0.18145,-0.0812 -0.31515,-0.23398 -0.12892,-0.15757 -0.12892,-0.41065 0,-0.20055 0.11937,-0.36767 0.11938,-0.16713 0.33903,-0.26263 0.21965,-0.10027 0.50137,-0.10027 0.43452,0 0.70192,0.21965 0.2674,0.21965 0.2865,0.60165 h -0.43452 q -0.0143,-0.20533 -0.16713,-0.32948 -0.14802,-0.12415 -0.40109,-0.12415 -0.23398,0 -0.37245,0.10028 -0.13848,0.10027 -0.13848,0.26262 0,0.12893 0.0812,0.21488 0.0859,0.0812 0.2101,0.1337 0.12892,0.0478 0.35335,0.10982 0.28172,0.0764 0.45839,0.1528 0.17668,0.0716 0.30083,0.21965 0.12892,0.14803 0.1337,0.38678 0,0.21487 -0.11938,0.38677 -0.11937,0.1719 -0.33902,0.27217 -0.21488,0.0955 -0.4966,0.0955 z"
       style="font-size:4.77499px;line-height:1.05;font-family:Poppins;-inkscape-font-specification:Poppins;letter-spacing:0px;fill:#ffffff;stroke-width:0.264584"
       id="path415448" />
    <path
       d="m 187.85891,141.86288 q -0.12415,0 -0.2101,-0.0859 -0.0859,-0.0859 -0.0859,-0.2101 0,-0.12415 0.0859,-0.2101 0.0859,-0.0859 0.2101,-0.0859 0.11937,0 0.20054,0.0859 0.0859,0.0859 0.0859,0.2101 0,0.12415 -0.0859,0.2101 -0.0812,0.0859 -0.20054,0.0859 z m 0.21009,0.42497 v 2.6167 h -0.43452 v -2.6167 z"
       style="font-size:4.77499px;line-height:1.05;font-family:Poppins;-inkscape-font-specification:Poppins;letter-spacing:0px;fill:#ffffff;stroke-width:0.264584"
       id="path415450" />
    <path
       d="m 189.33915,142.64598 v 1.54232 q 0,0.191 0.0812,0.27218 0.0812,0.0764 0.28173,0.0764 h 0.31992 v 0.36767 h -0.39155 q -0.3629,0 -0.54435,-0.16713 -0.18145,-0.16712 -0.18145,-0.54912 v -1.54232 h -0.33902 v -0.35813 h 0.33902 v -0.65894 h 0.43453 v 0.65894 h 0.68282 v 0.35813 z"
       style="font-size:4.77499px;line-height:1.05;font-family:Poppins;-inkscape-font-specification:Poppins;letter-spacing:0px;fill:#ffffff;stroke-width:0.264584"
       id="path415452" />
    <path
       d="m 192.93471,143.49593 q 0,0.12415 -0.0143,0.26262 h -2.09145 q 0.0239,0.38678 0.26262,0.60643 0.24353,0.21487 0.58733,0.21487 0.28172,0 0.46795,-0.12892 0.191,-0.1337 0.2674,-0.35335 h 0.46795 q -0.10505,0.37722 -0.4202,0.61597 -0.31515,0.23397 -0.7831,0.23397 -0.37245,0 -0.6685,-0.16712 -0.29127,-0.16712 -0.4584,-0.47272 -0.16712,-0.31038 -0.16712,-0.71625 0,-0.40588 0.16235,-0.71148 0.16235,-0.3056 0.45362,-0.46795 0.29605,-0.16712 0.67805,-0.16712 0.37245,0 0.65895,0.16235 0.2865,0.16235 0.4393,0.44885 0.15757,0.28172 0.15757,0.63985 z m -0.44885,-0.0907 q 0,-0.2483 -0.10982,-0.42497 -0.10983,-0.18145 -0.30083,-0.27218 -0.18622,-0.0955 -0.41542,-0.0955 -0.32948,0 -0.56345,0.2101 -0.2292,0.2101 -0.26263,0.58255 z m -0.35812,-1.85747 -1.01708,0.54435 v -0.3247 l 1.01708,-0.59687 z"
       style="font-size:4.77499px;line-height:1.05;font-family:Poppins;-inkscape-font-specification:Poppins;letter-spacing:0px;fill:#ffffff;stroke-width:0.264584"
       id="path415454" />
    <path
       d="m 197.17011,143.49593 q 0,0.12415 -0.0143,0.26262 h -2.09144 q 0.0239,0.38678 0.26262,0.60643 0.24353,0.21487 0.58733,0.21487 0.28172,0 0.46794,-0.12892 0.191,-0.1337 0.2674,-0.35335 h 0.46795 q -0.10505,0.37722 -0.4202,0.61597 -0.31515,0.23397 -0.78309,0.23397 -0.37245,0 -0.6685,-0.16712 -0.29128,-0.16712 -0.4584,-0.47272 -0.16713,-0.31038 -0.16713,-0.71625 0,-0.40588 0.16235,-0.71148 0.16235,-0.3056 0.45363,-0.46795 0.29605,-0.16712 0.67805,-0.16712 0.37244,0 0.65894,0.16235 0.2865,0.16235 0.4393,0.44885 0.15758,0.28172 0.15758,0.63985 z m -0.44885,-0.0907 q 0,-0.2483 -0.10983,-0.42497 -0.10982,-0.18145 -0.30082,-0.27218 -0.18622,-0.0955 -0.41542,-0.0955 -0.32948,0 -0.56345,0.2101 -0.2292,0.2101 -0.26263,0.58255 z"
       style="font-size:4.77499px;line-height:1.05;font-family:Poppins;-inkscape-font-specification:Poppins;letter-spacing:0px;fill:#ffffff;stroke-width:0.264584"
       id="path415456" />
    <path
       d="m 198.27313,142.64598 v 1.54232 q 0,0.191 0.0812,0.27218 0.0812,0.0764 0.28172,0.0764 h 0.31993 v 0.36767 h -0.39155 q -0.3629,0 -0.54435,-0.16713 -0.18145,-0.16712 -0.18145,-0.54912 v -1.54232 h -0.33903 v -0.35813 h 0.33903 v -0.65894 h 0.43452 v 0.65894 h 0.68283 v 0.35813 z"
       style="font-size:4.77499px;line-height:1.05;font-family:Poppins;-inkscape-font-specification:Poppins;letter-spacing:0px;fill:#ffffff;stroke-width:0.264584"
       id="path415458" />
    <path
       d="m 200.59376,143.58665 q 0,-0.4011 0.16235,-0.70192 0.16235,-0.3056 0.44407,-0.47273 0.2865,-0.16712 0.63985,-0.16712 0.3056,0 0.56822,0.14325 0.26263,0.13847 0.4011,0.36767 v -1.38474 h 0.4393 v 3.53349 h -0.4393 v -0.49182 q -0.12892,0.23397 -0.382,0.38677 -0.25307,0.14802 -0.59209,0.14802 -0.34858,0 -0.63508,-0.1719 -0.28172,-0.17189 -0.44407,-0.48227 -0.16235,-0.31037 -0.16235,-0.7067 z m 2.21559,0.005 q 0,-0.29605 -0.11937,-0.5157 -0.11938,-0.21965 -0.3247,-0.33425 -0.20055,-0.11938 -0.44407,-0.11938 -0.24353,0 -0.44408,0.1146 -0.20055,0.1146 -0.31992,0.33425 -0.11938,0.21965 -0.11938,0.5157 0,0.30083 0.11938,0.52525 0.11937,0.21965 0.31992,0.33903 0.20055,0.1146 0.44408,0.1146 0.24352,0 0.44407,-0.1146 0.20532,-0.11938 0.3247,-0.33903 0.11937,-0.22442 0.11937,-0.52047 z"
       style="font-size:4.77499px;line-height:1.05;font-family:Poppins;-inkscape-font-specification:Poppins;letter-spacing:0px;fill:#ffffff;stroke-width:0.264584"
       id="path415460" />
    <path
       d="m 206.37149,143.49593 q 0,0.12415 -0.0143,0.26262 h -2.09144 q 0.0239,0.38678 0.26262,0.60643 0.24352,0.21487 0.58732,0.21487 0.28173,0 0.46795,-0.12892 0.191,-0.1337 0.2674,-0.35335 h 0.46795 q -0.10505,0.37722 -0.4202,0.61597 -0.31515,0.23397 -0.7831,0.23397 -0.37245,0 -0.6685,-0.16712 -0.29127,-0.16712 -0.45839,-0.47272 -0.16713,-0.31038 -0.16713,-0.71625 0,-0.40588 0.16235,-0.71148 0.16235,-0.3056 0.45362,-0.46795 0.29605,-0.16712 0.67805,-0.16712 0.37245,0 0.65895,0.16235 0.2865,0.16235 0.4393,0.44885 0.15758,0.28172 0.15758,0.63985 z m -0.44885,-0.0907 q 0,-0.2483 -0.10983,-0.42497 -0.10982,-0.18145 -0.30082,-0.27218 -0.18623,-0.0955 -0.41543,-0.0955 -0.32947,0 -0.56345,0.2101 -0.22919,0.2101 -0.26262,0.58255 z"
       style="font-size:4.77499px;line-height:1.05;font-family:Poppins;-inkscape-font-specification:Poppins;letter-spacing:0px;fill:#ffffff;stroke-width:0.264584"
       id="path415462" />
    <path
       d="m 207.87083,144.94752 q -0.30082,0 -0.53957,-0.10027 -0.23875,-0.10505 -0.37722,-0.2865 -0.13848,-0.18622 -0.1528,-0.42497 h 0.44885 q 0.0191,0.19577 0.18144,0.31992 0.16713,0.12415 0.43453,0.12415 0.2483,0 0.39155,-0.10982 0.14325,-0.10983 0.14325,-0.27695 0,-0.1719 -0.1528,-0.25308 -0.1528,-0.0859 -0.47273,-0.16712 -0.29127,-0.0764 -0.47749,-0.1528 -0.18145,-0.0812 -0.31515,-0.23398 -0.12893,-0.15757 -0.12893,-0.41065 0,-0.20055 0.11938,-0.36767 0.11937,-0.16713 0.33902,-0.26263 0.21965,-0.10027 0.50137,-0.10027 0.43453,0 0.70193,0.21965 0.2674,0.21965 0.2865,0.60165 h -0.43453 q -0.0143,-0.20533 -0.16712,-0.32948 -0.14803,-0.12415 -0.4011,-0.12415 -0.23398,0 -0.37245,0.10028 -0.13847,0.10027 -0.13847,0.26262 0,0.12893 0.0812,0.21488 0.0859,0.0812 0.2101,0.1337 0.12892,0.0478 0.35335,0.10982 0.28172,0.0764 0.4584,0.1528 0.17667,0.0716 0.30082,0.21965 0.12893,0.14803 0.1337,0.38678 0,0.21487 -0.11937,0.38677 -0.11938,0.1719 -0.33903,0.27217 -0.21487,0.0955 -0.4966,0.0955 z"
       style="font-size:4.77499px;line-height:1.05;font-family:Poppins;-inkscape-font-specification:Poppins;letter-spacing:0px;fill:#ffffff;stroke-width:0.264584"
       id="path415464" />
    <path
       d="m 123.00038,148.50967 q 0,0.12415 -0.0143,0.26262 h -2.09145 q 0.0239,0.38678 0.26263,0.60643 0.24352,0.21487 0.58732,0.21487 0.28173,0 0.46795,-0.12893 0.191,-0.13369 0.2674,-0.35334 h 0.46795 q -0.10505,0.37722 -0.4202,0.61597 -0.31515,0.23397 -0.7831,0.23397 -0.37245,0 -0.6685,-0.16712 -0.29127,-0.16713 -0.4584,-0.47272 -0.16712,-0.31038 -0.16712,-0.71625 0,-0.40588 0.16235,-0.71148 0.16235,-0.3056 0.45362,-0.46795 0.29605,-0.16712 0.67805,-0.16712 0.37245,0 0.65895,0.16235 0.2865,0.16235 0.4393,0.44885 0.15757,0.28172 0.15757,0.63985 z m -0.44885,-0.0907 q 0,-0.2483 -0.10983,-0.42497 -0.10982,-0.18145 -0.30082,-0.27218 -0.18622,-0.0955 -0.41542,-0.0955 -0.32948,0 -0.56345,0.2101 -0.2292,0.2101 -0.26263,0.58255 z m -0.35813,-1.85747 -1.01707,0.54435 v -0.3247 l 1.01707,-0.59687 z"
       style="font-size:4.77499px;line-height:1.05;font-family:Poppins;-inkscape-font-specification:Poppins;letter-spacing:0px;fill:#ffffff;stroke-width:0.264584"
       id="path415466" />
    <path
       d="m 124.0079,146.3848 v 3.53349 h -0.43453 v -3.53349 z"
       style="font-size:4.77499px;line-height:1.05;font-family:Poppins;-inkscape-font-specification:Poppins;letter-spacing:0px;fill:#ffffff;stroke-width:0.264584"
       id="path415468" />
    <path
       d="m 127.13551,148.50967 q 0,0.12415 -0.0143,0.26262 h -2.09145 q 0.0239,0.38678 0.26263,0.60643 0.24352,0.21487 0.58732,0.21487 0.28172,0 0.46795,-0.12893 0.191,-0.13369 0.2674,-0.35334 h 0.46795 q -0.10505,0.37722 -0.4202,0.61597 -0.31515,0.23397 -0.7831,0.23397 -0.37245,0 -0.6685,-0.16712 -0.29127,-0.16713 -0.4584,-0.47272 -0.16712,-0.31038 -0.16712,-0.71625 0,-0.40588 0.16235,-0.71148 0.16235,-0.3056 0.45362,-0.46795 0.29605,-0.16712 0.67805,-0.16712 0.37245,0 0.65895,0.16235 0.2865,0.16235 0.4393,0.44885 0.15757,0.28172 0.15757,0.63985 z m -0.44885,-0.0907 q 0,-0.2483 -0.10983,-0.42497 -0.10982,-0.18145 -0.30082,-0.27218 -0.18623,-0.0955 -0.41543,-0.0955 -0.32947,0 -0.56344,0.2101 -0.2292,0.2101 -0.26263,0.58255 z m -0.35813,-1.85747 -1.01707,0.54435 v -0.3247 l 1.01707,-0.59687 z"
       style="font-size:4.77499px;line-height:1.05;font-family:Poppins;-inkscape-font-specification:Poppins;letter-spacing:0px;fill:#ffffff;stroke-width:0.264584"
       id="path415470" />
    <path
       d="m 130.85522,147.25384 q 0.3056,0 0.54435,0.12893 0.23875,0.12415 0.37722,0.37722 0.13848,0.25308 0.13848,0.61598 v 1.54232 h -0.42975 v -1.48025 q 0,-0.39155 -0.19578,-0.59687 -0.191,-0.2101 -0.52047,-0.2101 -0.33903,0 -0.53958,0.21965 -0.20054,0.21487 -0.20054,0.62552 v 1.44205 h -0.42975 v -1.48025 q 0,-0.39155 -0.19578,-0.59687 -0.191,-0.2101 -0.52047,-0.2101 -0.33903,0 -0.53958,0.21965 -0.20055,0.21487 -0.20055,0.62552 v 1.44205 h -0.43452 v -2.6167 h 0.43452 v 0.37723 q 0.12893,-0.20533 0.3438,-0.31515 0.21965,-0.10983 0.48228,-0.10983 0.32947,0 0.58255,0.14803 0.25307,0.14802 0.37722,0.43452 0.10982,-0.27695 0.3629,-0.42975 0.25307,-0.1528 0.56345,-0.1528 z"
       style="font-size:4.77499px;line-height:1.05;font-family:Poppins;-inkscape-font-specification:Poppins;letter-spacing:0px;fill:#ffffff;stroke-width:0.264584"
       id="path415472" />
    <path
       d="m 135.01423,148.50967 q 0,0.12415 -0.0143,0.26262 h -2.09145 q 0.0239,0.38678 0.26263,0.60643 0.24352,0.21487 0.58732,0.21487 0.28173,0 0.46795,-0.12893 0.191,-0.13369 0.2674,-0.35334 h 0.46795 q -0.10505,0.37722 -0.4202,0.61597 -0.31515,0.23397 -0.7831,0.23397 -0.37245,0 -0.6685,-0.16712 -0.29127,-0.16713 -0.4584,-0.47272 -0.16712,-0.31038 -0.16712,-0.71625 0,-0.40588 0.16235,-0.71148 0.16235,-0.3056 0.45362,-0.46795 0.29605,-0.16712 0.67805,-0.16712 0.37245,0 0.65895,0.16235 0.2865,0.16235 0.4393,0.44885 0.15757,0.28172 0.15757,0.63985 z m -0.44885,-0.0907 q 0,-0.2483 -0.10983,-0.42497 -0.10982,-0.18145 -0.30082,-0.27218 -0.18622,-0.0955 -0.41542,-0.0955 -0.32948,0 -0.56345,0.2101 -0.2292,0.2101 -0.26263,0.58255 z"
       style="font-size:4.77499px;line-height:1.05;font-family:Poppins;-inkscape-font-specification:Poppins;letter-spacing:0px;fill:#ffffff;stroke-width:0.264584"
       id="path415474" />
    <path
       d="m 136.86215,147.25384 q 0.47749,0 0.77354,0.29128 0.29605,0.2865 0.29605,0.83085 v 1.54232 h -0.42975 v -1.48025 q 0,-0.39155 -0.19577,-0.59687 -0.19578,-0.2101 -0.5348,-0.2101 -0.3438,0 -0.54912,0.21487 -0.20055,0.21488 -0.20055,0.62553 v 1.44682 h -0.43453 v -2.6167 h 0.43453 v 0.37245 q 0.12892,-0.20055 0.34857,-0.31037 0.22443,-0.10983 0.49183,-0.10983 z"
       style="font-size:4.77499px;line-height:1.05;font-family:Poppins;-inkscape-font-specification:Poppins;letter-spacing:0px;fill:#ffffff;stroke-width:0.264584"
       id="path415476" />
    <path
       d="m 139.17324,147.65972 v 1.54232 q 0,0.191 0.0812,0.27217 0.0812,0.0764 0.28172,0.0764 h 0.31993 v 0.36768 h -0.39155 q -0.3629,0 -0.54435,-0.16713 -0.18145,-0.16712 -0.18145,-0.54912 v -1.54232 h -0.33903 v -0.35813 h 0.33903 v -0.65894 h 0.43452 v 0.65894 h 0.68283 v 0.35813 z"
       style="font-size:4.77499px;line-height:1.05;font-family:Poppins;-inkscape-font-specification:Poppins;letter-spacing:0px;fill:#ffffff;stroke-width:0.264584"
       id="path415478" />
    <path
       d="m 141.30765,149.96126 q -0.30082,0 -0.53957,-0.10027 -0.23875,-0.10505 -0.37723,-0.2865 -0.13847,-0.18622 -0.1528,-0.42497 h 0.44885 q 0.0191,0.19577 0.18145,0.31992 0.16713,0.12415 0.43452,0.12415 0.2483,0 0.39155,-0.10983 0.14325,-0.10982 0.14325,-0.27694 0,-0.1719 -0.1528,-0.25308 -0.1528,-0.0859 -0.47272,-0.16712 -0.29127,-0.0764 -0.4775,-0.1528 -0.18145,-0.0812 -0.31515,-0.23398 -0.12892,-0.15757 -0.12892,-0.41065 0,-0.20055 0.11937,-0.36767 0.11938,-0.16713 0.33903,-0.26263 0.21965,-0.10027 0.50137,-0.10027 0.43452,0 0.70192,0.21965 0.2674,0.21965 0.2865,0.60165 h -0.43452 q -0.0143,-0.20533 -0.16713,-0.32948 -0.14802,-0.12415 -0.40109,-0.12415 -0.23398,0 -0.37245,0.10028 -0.13848,0.10027 -0.13848,0.26262 0,0.12893 0.0812,0.21488 0.086,0.0812 0.2101,0.1337 0.12892,0.0478 0.35335,0.10982 0.28172,0.0764 0.4584,0.1528 0.17667,0.0716 0.30082,0.21965 0.12893,0.14803 0.1337,0.38678 0,0.21487 -0.11937,0.38677 -0.11938,0.1719 -0.33903,0.27217 -0.21487,0.0955 -0.4966,0.0955 z"
       style="font-size:4.77499px;line-height:1.05;font-family:Poppins;-inkscape-font-specification:Poppins;letter-spacing:0px;fill:#ffffff;stroke-width:0.264584"
       id="path415480" />
    <path
       d="m 144.58328,147.78387 q 0.12893,-0.22443 0.382,-0.37245 0.25785,-0.1528 0.59687,-0.1528 0.34858,0 0.6303,0.16712 0.2865,0.16713 0.44885,0.47273 0.16235,0.30082 0.16235,0.70192 0,0.39633 -0.16235,0.7067 -0.16235,0.31037 -0.44885,0.48227 -0.28172,0.1719 -0.6303,0.1719 -0.33424,0 -0.59209,-0.14802 -0.25308,-0.1528 -0.38678,-0.37723 v 1.72378 h -0.43452 v -3.8582 h 0.43452 z m 1.7763,0.81652 q 0,-0.29605 -0.11938,-0.5157 -0.11937,-0.21965 -0.3247,-0.33425 -0.20055,-0.1146 -0.44407,-0.1146 -0.23875,0 -0.44407,0.11938 -0.20055,0.1146 -0.3247,0.33902 -0.11938,0.21965 -0.11938,0.51093 0,0.29605 0.11938,0.52047 0.12415,0.21965 0.3247,0.33902 0.20532,0.1146 0.44407,0.1146 0.24352,0 0.44407,-0.1146 0.20533,-0.11937 0.3247,-0.33902 0.11938,-0.22442 0.11938,-0.52525 z"
       style="font-size:4.77499px;line-height:1.05;font-family:Poppins;-inkscape-font-specification:Poppins;letter-spacing:0px;fill:#ffffff;stroke-width:0.264584"
       id="path415482" />
    <path
       d="m 147.2143,148.60039 q 0,-0.4011 0.16235,-0.70192 0.16235,-0.3056 0.44407,-0.47273 0.2865,-0.16712 0.63507,-0.16712 0.3438,0 0.59688,0.14802 0.25307,0.14803 0.37722,0.37245 v -0.4775 h 0.4393 v 2.6167 h -0.4393 v -0.48705 q -0.12892,0.2292 -0.38677,0.382 -0.25308,0.14802 -0.5921,0.14802 -0.34857,0 -0.6303,-0.1719 -0.28172,-0.1719 -0.44407,-0.48227 -0.16235,-0.31037 -0.16235,-0.7067 z m 2.21559,0.005 q 0,-0.29605 -0.11937,-0.5157 -0.11938,-0.21965 -0.3247,-0.33425 -0.20055,-0.11938 -0.44408,-0.11938 -0.24352,0 -0.44407,0.1146 -0.20055,0.1146 -0.31993,0.33425 -0.11937,0.21965 -0.11937,0.5157 0,0.30083 0.11937,0.52525 0.11938,0.21965 0.31993,0.33902 0.20055,0.1146 0.44407,0.1146 0.24353,0 0.44408,-0.1146 0.20532,-0.11937 0.3247,-0.33902 0.11937,-0.22442 0.11937,-0.52047 z"
       style="font-size:4.77499px;line-height:1.05;font-family:Poppins;-inkscape-font-specification:Poppins;letter-spacing:0px;fill:#ffffff;stroke-width:0.264584"
       id="path415484" />
    <path
       d="m 152.85833,147.30159 -1.57575,3.84865 h -0.44885 l 0.5157,-1.2606 -1.05527,-2.58805 h 0.48227 l 0.8213,2.1201 0.81175,-2.1201 z"
       style="font-size:4.77499px;line-height:1.05;font-family:Poppins;-inkscape-font-specification:Poppins;letter-spacing:0px;fill:#ffffff;stroke-width:0.264584"
       id="path415486" />
    <path
       d="m 154.2192,149.96126 q -0.30083,0 -0.53958,-0.10027 -0.23875,-0.10505 -0.37722,-0.2865 -0.13848,-0.18622 -0.1528,-0.42497 h 0.44885 q 0.0191,0.19577 0.18145,0.31992 0.16712,0.12415 0.43452,0.12415 0.2483,0 0.39155,-0.10983 0.14325,-0.10982 0.14325,-0.27694 0,-0.1719 -0.1528,-0.25308 -0.1528,-0.0859 -0.47272,-0.16712 -0.29128,-0.0764 -0.4775,-0.1528 -0.18145,-0.0812 -0.31515,-0.23398 -0.12893,-0.15757 -0.12893,-0.41065 0,-0.20055 0.11938,-0.36767 0.11937,-0.16713 0.33902,-0.26263 0.21965,-0.10027 0.50138,-0.10027 0.43452,0 0.70192,0.21965 0.2674,0.21965 0.2865,0.60165 h -0.43452 q -0.0143,-0.20533 -0.16713,-0.32948 -0.14802,-0.12415 -0.4011,-0.12415 -0.23397,0 -0.37245,0.10028 -0.13847,0.10027 -0.13847,0.26262 0,0.12893 0.0812,0.21488 0.0859,0.0812 0.2101,0.1337 0.12892,0.0478 0.35335,0.10982 0.28172,0.0764 0.4584,0.1528 0.17667,0.0716 0.30082,0.21965 0.12892,0.14803 0.1337,0.38678 0,0.21487 -0.11938,0.38677 -0.11937,0.1719 -0.33902,0.27217 -0.21487,0.0955 -0.4966,0.0955 z"
       style="font-size:4.77499px;line-height:1.05;font-family:Poppins;-inkscape-font-specification:Poppins;letter-spacing:0px;fill:#ffffff;stroke-width:0.264584"
       id="path415488" />
    <path
       d="m 155.62304,148.60039 q 0,-0.4011 0.16235,-0.70192 0.16235,-0.3056 0.44407,-0.47273 0.2865,-0.16712 0.63508,-0.16712 0.3438,0 0.59687,0.14802 0.25308,0.14803 0.37723,0.37245 v -0.4775 h 0.4393 v 2.6167 h -0.4393 v -0.48705 q -0.12893,0.2292 -0.38678,0.382 -0.25307,0.14802 -0.5921,0.14802 -0.34857,0 -0.6303,-0.1719 -0.28172,-0.1719 -0.44407,-0.48227 -0.16235,-0.31037 -0.16235,-0.7067 z m 2.2156,0.005 q 0,-0.29605 -0.11938,-0.5157 -0.11937,-0.21965 -0.3247,-0.33425 -0.20055,-0.11938 -0.44407,-0.11938 -0.24353,0 -0.44408,0.1146 -0.20054,0.1146 -0.31992,0.33425 -0.11938,0.21965 -0.11938,0.5157 0,0.30083 0.11938,0.52525 0.11938,0.21965 0.31992,0.33902 0.20055,0.1146 0.44408,0.1146 0.24352,0 0.44407,-0.1146 0.20533,-0.11937 0.3247,-0.33902 0.11938,-0.22442 0.11938,-0.52047 z"
       style="font-size:4.77499px;line-height:1.05;font-family:Poppins;-inkscape-font-specification:Poppins;letter-spacing:0px;fill:#ffffff;stroke-width:0.264584"
       id="path415490" />
    <path
       d="m 160.09242,147.25862 q 0.33903,0 0.5921,0.14802 0.25785,0.14803 0.382,0.37245 v -0.4775 h 0.4393 v 2.674 q 0,0.35812 -0.1528,0.63507 -0.1528,0.28173 -0.4393,0.4393 -0.28172,0.15758 -0.65895,0.15758 -0.51569,0 -0.85949,-0.24353 -0.3438,-0.24352 -0.40588,-0.66372 h 0.42975 q 0.0716,0.23875 0.29605,0.382 0.22442,0.14802 0.53957,0.14802 0.35813,0 0.58255,-0.22442 0.2292,-0.22443 0.2292,-0.6303 v -0.54913 q -0.12892,0.2292 -0.382,0.382 -0.25307,0.1528 -0.59209,0.1528 -0.34858,0 -0.63508,-0.1719 -0.28172,-0.1719 -0.44407,-0.48227 -0.16235,-0.31037 -0.16235,-0.7067 0,-0.4011 0.16235,-0.70192 0.16235,-0.3056 0.44407,-0.47273 0.2865,-0.16712 0.63507,-0.16712 z m 0.9741,1.34655 q 0,-0.29605 -0.11937,-0.5157 -0.11938,-0.21965 -0.3247,-0.33425 -0.20055,-0.11938 -0.44408,-0.11938 -0.24352,0 -0.44407,0.1146 -0.20055,0.1146 -0.31992,0.33425 -0.11938,0.21965 -0.11938,0.5157 0,0.30083 0.11938,0.52525 0.11937,0.21965 0.31992,0.33902 0.20055,0.1146 0.44407,0.1146 0.24353,0 0.44408,-0.1146 0.20532,-0.11937 0.3247,-0.33902 0.11937,-0.22442 0.11937,-0.52047 z"
       style="font-size:4.77499px;line-height:1.05;font-family:Poppins;-inkscape-font-specification:Poppins;letter-spacing:0px;fill:#ffffff;stroke-width:0.264584"
       id="path415492" />
    <path
       d="m 164.62866,148.50967 q 0,0.12415 -0.0143,0.26262 h -2.09144 q 0.0239,0.38678 0.26262,0.60643 0.24353,0.21487 0.58733,0.21487 0.28172,0 0.46794,-0.12893 0.191,-0.13369 0.2674,-0.35334 h 0.46795 q -0.10505,0.37722 -0.4202,0.61597 -0.31515,0.23397 -0.78309,0.23397 -0.37245,0 -0.6685,-0.16712 -0.29128,-0.16713 -0.4584,-0.47272 -0.16713,-0.31038 -0.16713,-0.71625 0,-0.40588 0.16235,-0.71148 0.16235,-0.3056 0.45363,-0.46795 0.29605,-0.16712 0.67805,-0.16712 0.37244,0 0.65894,0.16235 0.2865,0.16235 0.4393,0.44885 0.15758,0.28172 0.15758,0.63985 z m -0.44885,-0.0907 q 0,-0.2483 -0.10982,-0.42497 -0.10983,-0.18145 -0.30083,-0.27218 -0.18622,-0.0955 -0.41542,-0.0955 -0.32947,0 -0.56345,0.2101 -0.2292,0.2101 -0.26262,0.58255 z"
       style="font-size:4.77499px;line-height:1.05;font-family:Poppins;-inkscape-font-specification:Poppins;letter-spacing:0px;fill:#ffffff;stroke-width:0.264584"
       id="path415494" />
    <path
       d="m 165.63618,147.72657 q 0.1146,-0.22443 0.3247,-0.34858 0.21487,-0.12415 0.52047,-0.12415 v 0.44885 h -0.1146 q -0.73057,0 -0.73057,0.79265 v 1.42295 h -0.43453 v -2.6167 h 0.43453 z"
       style="font-size:4.77499px;line-height:1.05;font-family:Poppins;-inkscape-font-specification:Poppins;letter-spacing:0px;fill:#ffffff;stroke-width:0.264584"
       id="path415496" />
    <path
       d="m 167.90907,149.96126 q -0.30083,0 -0.53957,-0.10027 -0.23875,-0.10505 -0.37723,-0.2865 -0.13847,-0.18622 -0.1528,-0.42497 h 0.44885 q 0.0191,0.19577 0.18145,0.31992 0.16712,0.12415 0.43452,0.12415 0.2483,0 0.39155,-0.10983 0.14325,-0.10982 0.14325,-0.27694 0,-0.1719 -0.1528,-0.25308 -0.1528,-0.0859 -0.47272,-0.16712 -0.29128,-0.0764 -0.4775,-0.1528 -0.18145,-0.0812 -0.31515,-0.23398 -0.12892,-0.15757 -0.12892,-0.41065 0,-0.20055 0.11937,-0.36767 0.11938,-0.16713 0.33903,-0.26263 0.21964,-0.10027 0.50137,-0.10027 0.43452,0 0.70192,0.21965 0.2674,0.21965 0.2865,0.60165 h -0.43452 q -0.0143,-0.20533 -0.16713,-0.32948 -0.14802,-0.12415 -0.4011,-0.12415 -0.23397,0 -0.37245,0.10028 -0.13847,0.10027 -0.13847,0.26262 0,0.12893 0.0812,0.21488 0.0859,0.0812 0.2101,0.1337 0.12892,0.0478 0.35335,0.10982 0.28172,0.0764 0.4584,0.1528 0.17667,0.0716 0.30082,0.21965 0.12893,0.14803 0.1337,0.38678 0,0.21487 -0.11937,0.38677 -0.11938,0.1719 -0.33903,0.27217 -0.21487,0.0955 -0.4966,0.0955 z"
       style="font-size:4.77499px;line-height:1.05;font-family:Poppins;-inkscape-font-specification:Poppins;letter-spacing:0px;fill:#ffffff;stroke-width:0.264584"
       id="path415498" />
    <path
       d="m 170.58783,148.60039 q 0,-0.4011 0.16235,-0.70192 0.16235,-0.3056 0.44407,-0.47273 0.2865,-0.16712 0.63985,-0.16712 0.3056,0 0.56822,0.14325 0.26263,0.13847 0.4011,0.36767 v -1.38474 h 0.4393 v 3.53349 h -0.4393 v -0.49183 q -0.12892,0.23398 -0.382,0.38678 -0.25307,0.14802 -0.59209,0.14802 -0.34858,0 -0.63508,-0.1719 -0.28172,-0.1719 -0.44407,-0.48227 -0.16235,-0.31037 -0.16235,-0.7067 z m 2.21559,0.005 q 0,-0.29605 -0.11937,-0.5157 -0.11938,-0.21965 -0.3247,-0.33425 -0.20055,-0.11938 -0.44408,-0.11938 -0.24352,0 -0.44407,0.1146 -0.20055,0.1146 -0.31992,0.33425 -0.11938,0.21965 -0.11938,0.5157 0,0.30083 0.11938,0.52525 0.11937,0.21965 0.31992,0.33902 0.20055,0.1146 0.44407,0.1146 0.24353,0 0.44408,-0.1146 0.20532,-0.11937 0.3247,-0.33902 0.11937,-0.22442 0.11937,-0.52047 z"
       style="font-size:4.77499px;line-height:1.05;font-family:Poppins;-inkscape-font-specification:Poppins;letter-spacing:0px;fill:#ffffff;stroke-width:0.264584"
       id="path415500" />
    <path
       d="m 174.19771,146.1174 -0.0573,0.95022 h -0.30082 l -0.0621,-0.95022 z"
       style="font-size:4.77499px;line-height:1.05;font-family:Poppins;-inkscape-font-specification:Poppins;letter-spacing:0px;fill:#ffffff;stroke-width:0.264584"
       id="path415502" />
    <path
       d="m 174.9617,146.87662 q -0.12415,0 -0.2101,-0.0859 -0.0859,-0.0859 -0.0859,-0.2101 0,-0.12415 0.0859,-0.2101 0.0859,-0.0859 0.2101,-0.0859 0.11938,0 0.20055,0.0859 0.0859,0.0859 0.0859,0.2101 0,0.12415 -0.0859,0.2101 -0.0812,0.0859 -0.20055,0.0859 z m 0.2101,0.42497 v 2.6167 h -0.43452 v -2.6167 z"
       style="font-size:4.77499px;line-height:1.05;font-family:Poppins;-inkscape-font-specification:Poppins;letter-spacing:0px;fill:#ffffff;stroke-width:0.264584"
       id="path415504" />
    <path
       d="m 177.18684,147.25384 q 0.4775,0 0.77355,0.29128 0.29605,0.2865 0.29605,0.83085 v 1.54232 h -0.42975 v -1.48025 q 0,-0.39155 -0.19577,-0.59687 -0.19578,-0.2101 -0.5348,-0.2101 -0.3438,0 -0.54913,0.21487 -0.20055,0.21488 -0.20055,0.62553 v 1.44682 h -0.43452 v -2.6167 h 0.43452 v 0.37245 q 0.12893,-0.20055 0.34858,-0.31037 0.22442,-0.10983 0.49182,-0.10983 z"
       style="font-size:4.77499px;line-height:1.05;font-family:Poppins;-inkscape-font-specification:Poppins;letter-spacing:0px;fill:#ffffff;stroke-width:0.264584"
       id="path415506" />
    <path
       d="m 179.49794,147.65972 v 1.54232 q 0,0.191 0.0812,0.27217 0.0812,0.0764 0.28172,0.0764 h 0.31993 v 0.36768 h -0.39155 q -0.3629,0 -0.54435,-0.16713 -0.18145,-0.16712 -0.18145,-0.54912 v -1.54232 h -0.33902 v -0.35813 h 0.33902 v -0.65894 h 0.43453 v 0.65894 h 0.68282 v 0.35813 z"
       style="font-size:4.77499px;line-height:1.05;font-family:Poppins;-inkscape-font-specification:Poppins;letter-spacing:0px;fill:#ffffff;stroke-width:0.264584"
       id="path415508" />
    <path
       d="m 184.10101,147.72657 q 0.1146,-0.22443 0.3247,-0.34858 0.21488,-0.12415 0.52048,-0.12415 v 0.44885 h -0.1146 q -0.73058,0 -0.73058,0.79265 v 1.42295 h -0.43452 v -2.6167 h 0.43452 z"
       style="font-size:4.77499px;line-height:1.05;font-family:Poppins;-inkscape-font-specification:Poppins;letter-spacing:0px;fill:#ffffff;stroke-width:0.264584"
       id="path415512" />
    <path
       d="m 187.83505,148.50967 q 0,0.12415 -0.0143,0.26262 h -2.09144 q 0.0239,0.38678 0.26262,0.60643 0.24353,0.21487 0.58733,0.21487 0.28172,0 0.46794,-0.12893 0.191,-0.13369 0.2674,-0.35334 h 0.46795 q -0.10505,0.37722 -0.4202,0.61597 -0.31515,0.23397 -0.78309,0.23397 -0.37245,0 -0.6685,-0.16712 -0.29128,-0.16713 -0.4584,-0.47272 -0.16713,-0.31038 -0.16713,-0.71625 0,-0.40588 0.16235,-0.71148 0.16235,-0.3056 0.45363,-0.46795 0.29605,-0.16712 0.67805,-0.16712 0.37244,0 0.65894,0.16235 0.2865,0.16235 0.4393,0.44885 0.15758,0.28172 0.15758,0.63985 z m -0.44885,-0.0907 q 0,-0.2483 -0.10983,-0.42497 -0.10982,-0.18145 -0.30082,-0.27218 -0.18623,-0.0955 -0.41542,-0.0955 -0.32948,0 -0.56345,0.2101 -0.2292,0.2101 -0.26263,0.58255 z m -0.8213,-1.75719 -0.66372,0.40587 v -0.3438 l 0.66372,-0.39632 0.65895,0.39632 v 0.3438 z"
       style="font-size:4.77499px;line-height:1.05;font-family:Poppins;-inkscape-font-specification:Poppins;letter-spacing:0px;fill:#ffffff;stroke-width:0.264584"
       id="path415514" />
    <path
       d="m 188.93807,147.65972 v 1.54232 q 0,0.191 0.0812,0.27217 0.0812,0.0764 0.28172,0.0764 h 0.31993 v 0.36768 h -0.39155 q -0.3629,0 -0.54435,-0.16713 -0.18145,-0.16712 -0.18145,-0.54912 v -1.54232 h -0.33903 v -0.35813 h 0.33903 v -0.65894 h 0.43452 v 0.65894 h 0.68283 v 0.35813 z"
       style="font-size:4.77499px;line-height:1.05;font-family:Poppins;-inkscape-font-specification:Poppins;letter-spacing:0px;fill:#ffffff;stroke-width:0.264584"
       id="path415516" />
    <path
       d="m 193.80854,148.50967 q 0,0.12415 -0.0143,0.26262 h -2.09145 q 0.0239,0.38678 0.26263,0.60643 0.24352,0.21487 0.58732,0.21487 0.28173,0 0.46795,-0.12893 0.191,-0.13369 0.2674,-0.35334 h 0.46795 q -0.10505,0.37722 -0.4202,0.61597 -0.31515,0.23397 -0.7831,0.23397 -0.37245,0 -0.6685,-0.16712 -0.29127,-0.16713 -0.4584,-0.47272 -0.16712,-0.31038 -0.16712,-0.71625 0,-0.40588 0.16235,-0.71148 0.16235,-0.3056 0.45362,-0.46795 0.29605,-0.16712 0.67805,-0.16712 0.37245,0 0.65895,0.16235 0.2865,0.16235 0.4393,0.44885 0.15757,0.28172 0.15757,0.63985 z m -0.44885,-0.0907 q 0,-0.2483 -0.10982,-0.42497 -0.10983,-0.18145 -0.30082,-0.27218 -0.18623,-0.0955 -0.41543,-0.0955 -0.32947,0 -0.56345,0.2101 -0.2292,0.2101 -0.26262,0.58255 z m -0.35812,-1.85747 -1.01707,0.54435 v -0.3247 l 1.01707,-0.59687 z"
       style="font-size:4.77499px;line-height:1.05;font-family:Poppins;-inkscape-font-specification:Poppins;letter-spacing:0px;fill:#ffffff;stroke-width:0.264584"
       id="path415518" />
    <path
       d="m 194.21919,148.60517 q 0,-0.40588 0.16235,-0.7067 0.16235,-0.3056 0.44884,-0.47273 0.29128,-0.16712 0.66373,-0.16712 0.48227,0 0.79265,0.23397 0.31515,0.23398 0.41542,0.6494 h -0.46795 q -0.0669,-0.23875 -0.26262,-0.37722 -0.191,-0.13848 -0.4775,-0.13848 -0.37245,0 -0.60165,0.25785 -0.2292,0.25308 -0.2292,0.72103 0,0.47272 0.2292,0.73057 0.2292,0.25785 0.60165,0.25785 0.2865,0 0.4775,-0.1337 0.191,-0.1337 0.26262,-0.382 h 0.46795 q -0.10505,0.4011 -0.4202,0.64462 -0.31515,0.23875 -0.78787,0.23875 -0.37245,0 -0.66373,-0.16712 -0.28649,-0.16713 -0.44884,-0.47272 -0.16235,-0.3056 -0.16235,-0.71625 z"
       style="font-size:4.77499px;line-height:1.05;font-family:Poppins;-inkscape-font-specification:Poppins;letter-spacing:0px;fill:#ffffff;stroke-width:0.264584"
       id="path415520" />
    <path
       d="m 198.42117,149.96126 q -0.36767,0 -0.6685,-0.16712 -0.29605,-0.16713 -0.46794,-0.47272 -0.16713,-0.31038 -0.16713,-0.71625 0,-0.4011 0.1719,-0.7067 0.17667,-0.31038 0.4775,-0.47273 0.30082,-0.16712 0.67327,-0.16712 0.37245,0 0.67328,0.16712 0.30082,0.16235 0.47272,0.46795 0.17668,0.3056 0.17668,0.71148 0,0.40587 -0.18145,0.71625 -0.17668,0.30559 -0.48228,0.47272 -0.3056,0.16712 -0.67805,0.16712 z m 0,-0.382 q 0.23398,0 0.4393,-0.10982 0.20533,-0.10982 0.32948,-0.32947 0.12892,-0.21965 0.12892,-0.5348 0,-0.31515 -0.12415,-0.5348 -0.12415,-0.21965 -0.3247,-0.3247 -0.20055,-0.10983 -0.43452,-0.10983 -0.23875,0 -0.4393,0.10983 -0.19578,0.10505 -0.31515,0.3247 -0.11938,0.21965 -0.11938,0.5348 0,0.31992 0.1146,0.53957 0.11938,0.21965 0.31515,0.32947 0.19578,0.10505 0.42975,0.10505 z"
       style="font-size:4.77499px;line-height:1.05;font-family:Poppins;-inkscape-font-specification:Poppins;letter-spacing:0px;fill:#ffffff;stroke-width:0.264584"
       id="path415522" />
    <path
       d="m 200.77046,146.3848 v 3.53349 h -0.43453 v -3.53349 z"
       style="font-size:4.77499px;line-height:1.05;font-family:Poppins;-inkscape-font-specification:Poppins;letter-spacing:0px;fill:#ffffff;stroke-width:0.264584"
       id="path415524" />
    <path
       d="m 202.6518,149.96126 q -0.36767,0 -0.6685,-0.16712 -0.29605,-0.16713 -0.46795,-0.47272 -0.16712,-0.31038 -0.16712,-0.71625 0,-0.4011 0.1719,-0.7067 0.17667,-0.31038 0.4775,-0.47273 0.30082,-0.16712 0.67327,-0.16712 0.37245,0 0.67328,0.16712 0.30082,0.16235 0.47272,0.46795 0.17667,0.3056 0.17667,0.71148 0,0.40587 -0.18145,0.71625 -0.17667,0.30559 -0.48227,0.47272 -0.3056,0.16712 -0.67805,0.16712 z m 0,-0.382 q 0.23398,0 0.4393,-0.10982 0.20533,-0.10982 0.32948,-0.32947 0.12892,-0.21965 0.12892,-0.5348 0,-0.31515 -0.12415,-0.5348 -0.12415,-0.21965 -0.3247,-0.3247 -0.20055,-0.10983 -0.43452,-0.10983 -0.23875,0 -0.4393,0.10983 -0.19578,0.10505 -0.31515,0.3247 -0.11938,0.21965 -0.11938,0.5348 0,0.31992 0.1146,0.53957 0.11938,0.21965 0.31515,0.32947 0.19578,0.10505 0.42975,0.10505 z"
       style="font-size:4.77499px;line-height:1.05;font-family:Poppins;-inkscape-font-specification:Poppins;letter-spacing:0px;fill:#ffffff;stroke-width:0.264584"
       id="path415526" />
    <path
       d="m 205.64572,147.25862 q 0.33902,0 0.5921,0.14802 0.25785,0.14803 0.382,0.37245 v -0.4775 h 0.4393 v 2.674 q 0,0.35812 -0.1528,0.63507 -0.1528,0.28173 -0.4393,0.4393 -0.28173,0.15758 -0.65895,0.15758 -0.5157,0 -0.8595,-0.24353 -0.3438,-0.24352 -0.40587,-0.66372 h 0.42975 q 0.0716,0.23875 0.29604,0.382 0.22443,0.14802 0.53958,0.14802 0.35812,0 0.58255,-0.22442 0.2292,-0.22443 0.2292,-0.6303 v -0.54913 q -0.12893,0.2292 -0.382,0.382 -0.25308,0.1528 -0.5921,0.1528 -0.34858,0 -0.63507,-0.1719 -0.28173,-0.1719 -0.44408,-0.48227 -0.16235,-0.31037 -0.16235,-0.7067 0,-0.4011 0.16235,-0.70192 0.16235,-0.3056 0.44408,-0.47273 0.28649,-0.16712 0.63507,-0.16712 z m 0.9741,1.34655 q 0,-0.29605 -0.11938,-0.5157 -0.11937,-0.21965 -0.3247,-0.33425 -0.20055,-0.11938 -0.44407,-0.11938 -0.24353,0 -0.44408,0.1146 -0.20054,0.1146 -0.31992,0.33425 -0.11937,0.21965 -0.11937,0.5157 0,0.30083 0.11937,0.52525 0.11938,0.21965 0.31992,0.33902 0.20055,0.1146 0.44408,0.1146 0.24352,0 0.44407,-0.1146 0.20533,-0.11937 0.3247,-0.33902 0.11938,-0.22442 0.11938,-0.52047 z"
       style="font-size:4.77499px;line-height:1.05;font-family:Poppins;-inkscape-font-specification:Poppins;letter-spacing:0px;fill:#ffffff;stroke-width:0.264584"
       id="path415528" />
    <path
       d="m 208.01888,146.87662 q -0.12415,0 -0.2101,-0.0859 -0.086,-0.0859 -0.086,-0.2101 0,-0.12415 0.086,-0.2101 0.0859,-0.0859 0.2101,-0.0859 0.11937,0 0.20055,0.0859 0.0859,0.0859 0.0859,0.2101 0,0.12415 -0.0859,0.2101 -0.0812,0.0859 -0.20055,0.0859 z m 0.2101,0.42497 v 2.6167 h -0.43453 v -2.6167 z"
       style="font-size:4.77499px;line-height:1.05;font-family:Poppins;-inkscape-font-specification:Poppins;letter-spacing:0px;fill:#ffffff;stroke-width:0.264584"
       id="path415530" />
    <path
       d="m 208.80675,148.60039 q 0,-0.4011 0.16235,-0.70192 0.16235,-0.3056 0.44407,-0.47273 0.2865,-0.16712 0.63985,-0.16712 0.33903,0 0.5921,0.1528 0.25785,0.14802 0.37722,0.36767 v -0.4775 h 0.4393 v 3.8582 h -0.4393 v -1.72378 q -0.12415,0.21965 -0.382,0.37245 -0.25784,0.1528 -0.60164,0.1528 -0.3438,0 -0.62553,-0.1719 -0.28172,-0.1719 -0.44407,-0.48227 -0.16235,-0.31037 -0.16235,-0.7067 z m 2.21559,0.005 q 0,-0.29605 -0.11937,-0.5157 -0.11938,-0.21965 -0.3247,-0.33425 -0.20055,-0.11938 -0.44407,-0.11938 -0.24353,0 -0.44408,0.1146 -0.20055,0.1146 -0.31992,0.33425 -0.11938,0.21965 -0.11938,0.5157 0,0.30083 0.11938,0.52525 0.11937,0.21965 0.31992,0.33902 0.20055,0.1146 0.44408,0.1146 0.24352,0 0.44407,-0.1146 0.20532,-0.11937 0.3247,-0.33902 0.11937,-0.22442 0.11937,-0.52047 z"
       style="font-size:4.77499px;line-height:1.05;font-family:Poppins;-inkscape-font-specification:Poppins;letter-spacing:0px;fill:#ffffff;stroke-width:0.264584"
       id="path415532" />
    <path
       d="m 214.51763,147.30159 v 2.6167 h -0.43453 v -0.38678 q -0.12415,0.20055 -0.34857,0.31515 -0.21965,0.10983 -0.48705,0.10983 -0.3056,0 -0.54913,-0.12415 -0.24352,-0.12893 -0.38677,-0.382 -0.13847,-0.25307 -0.13847,-0.61597 v -1.53278 h 0.42974 v 1.47548 q 0,0.38677 0.19578,0.59687 0.19577,0.20532 0.5348,0.20532 0.34857,0 0.54912,-0.21487 0.20055,-0.21487 0.20055,-0.62552 v -1.43728 z"
       style="font-size:4.77499px;line-height:1.05;font-family:Poppins;-inkscape-font-specification:Poppins;letter-spacing:0px;fill:#ffffff;stroke-width:0.264584"
       id="path415534" />
    <path
       d="m 217.64047,148.50967 q 0,0.12415 -0.0143,0.26262 h -2.09144 q 0.0239,0.38678 0.26262,0.60643 0.24353,0.21487 0.58733,0.21487 0.28172,0 0.46794,-0.12893 0.191,-0.13369 0.2674,-0.35334 h 0.46795 q -0.10505,0.37722 -0.4202,0.61597 -0.31515,0.23397 -0.78309,0.23397 -0.37245,0 -0.6685,-0.16712 -0.29128,-0.16713 -0.4584,-0.47272 -0.16713,-0.31038 -0.16713,-0.71625 0,-0.40588 0.16235,-0.71148 0.16235,-0.3056 0.45363,-0.46795 0.29605,-0.16712 0.67805,-0.16712 0.37244,0 0.65894,0.16235 0.2865,0.16235 0.4393,0.44885 0.15758,0.28172 0.15758,0.63985 z m -0.44885,-0.0907 q 0,-0.2483 -0.10983,-0.42497 -0.10982,-0.18145 -0.30082,-0.27218 -0.18623,-0.0955 -0.41542,-0.0955 -0.32948,0 -0.56345,0.2101 -0.2292,0.2101 -0.26263,0.58255 z"
       style="font-size:4.77499px;line-height:1.05;font-family:Poppins;-inkscape-font-specification:Poppins;letter-spacing:0px;fill:#ffffff;stroke-width:0.264584"
       id="path415536" />
    <path
       d="m 117.46136,143.88609 c -0.097,-0.66729 -1.46769,-0.7395 -3.11328,-0.75863 a 7.92216,7.92216 0 0 1 -0.83476,-0.0317 5.1090363,5.1090363 0 0 0 -1.51771,-0.0566 1.0679169,1.0679169 0 0 0 -0.0513,-0.17095 l 0.30886,-0.10999 a 0.11440413,0.11440413 0 0 0 0.0752,-0.0974 l 0.0296,-0.32494 0.40367,-0.43499 -0.16748,-0.15747 -0.4302,0.46545 a 0.11527412,0.11527412 0 0 0 -0.03,0.0675 l -0.0265,0.29144 -0.26839,0.0957 a 1.2005909,1.2005909 0 0 0 -0.0709,-0.0979 0.45892152,0.45892152 0 0 0 0.20792,-0.37671 0.49850623,0.49850623 0 0 0 -0.25055,-0.43761 0.26708797,0.26708797 0 0 0 -0.0161,-0.0313 0.51590609,0.51590609 0 0 0 -0.43805,-0.18444 0.5146011,0.5146011 0 0 0 -0.43804,0.18488 0.26099802,0.26099802 0 0 0 -0.0162,0.031 0.49720123,0.49720123 0 0 0 -0.25013,0.43804 0.45718153,0.45718153 0 0 0 0.20749,0.37628 c -0.0248,0.0305 -0.0478,0.0635 -0.0709,0.0979 l -0.2697,-0.0936 -0.0265,-0.29145 a 0.11266414,0.11266414 0 0 0 -0.03,-0.0675 l -0.4289,-0.46761 -0.16748,0.15529 0.40367,0.435 0.03,0.32494 a 0.11309915,0.11309915 0 0 0 0.0752,0.0974 l 0.30842,0.10999 a 1.0370321,1.0370321 0 0 0 -0.0509,0.17096 5.1233912,5.1233912 0 0 0 -1.5177,0.0566 7.9282499,7.9282499 0 0 1 -0.83476,0.0318 c -1.64646,0.0205 -3.01669,0.0914 -3.11413,0.75863 a 0.45413656,0.45413656 0 0 0 0.271,0.45762 4.5548505,4.5548505 0 0 0 2.09408,0.37322 c 0.29971,0 0.6116,-0.0165 0.92436,-0.0466 -0.348,0.11961 -0.6525,0.21489 -0.85738,0.26449 -0.80779,0.19356 -2.00098,0.91349 -1.93617,1.47333 0.0179,0.14746 0.18444,0.20663 0.23925,0.2262 a 4.8484733,4.8484733 0 0 0 1.3424,0.14007 c 1.20451,0 2.81748,-0.22664 3.54392,-0.9322 a 1.4307042,1.4307042 0 0 0 0.15747,-0.18401 c -0.0123,0.11048 -0.0261,0.22055 -0.0396,0.32407 -0.0205,0.15878 -0.0396,0.30711 -0.0483,0.43022 -0.0344,0.48416 -0.0675,2.61433 -0.0153,2.96189 0.16051,1.06966 0.42716,1.06966 0.5146,1.06966 0.0874,0 0.35365,0 0.5146,-1.06966 0.0522,-0.348 0.0191,-2.47948 -0.0153,-2.96233 -0.009,-0.12269 -0.0279,-0.271 -0.0483,-0.42934 -0.0134,-0.10395 -0.0274,-0.21402 -0.0396,-0.32494 a 1.4389691,1.4389691 0 0 0 0.15748,0.18444 c 0.72643,0.70556 2.33897,0.9322 3.54347,0.9322 a 4.8310733,4.8310733 0 0 0 1.34315,-0.14051 c 0.0547,-0.0191 0.22141,-0.0783 0.23925,-0.22576 0.067,-0.55984 -1.12838,-1.27977 -1.93574,-1.4729 -0.20662,-0.0496 -0.51025,-0.14485 -0.85782,-0.26492 0.31277,0.0305 0.62466,0.0466 0.92437,0.0466 a 4.5548505,4.5548505 0 0 0 2.09408,-0.37322 0.45326657,0.45326657 0 0 0 0.27057,-0.45545 z m -5.91597,-1.54336 a 0.41237687,0.41237687 0 0 1 -0.006,-0.31886 c 0.002,-0.005 0.01,-0.009 0.0139,-0.0143 a 0.18617859,0.18617859 0 0 1 0.11838,0.174 0.1840036,0.1840036 0 0 1 -0.12658,0.15921 z m -0.55462,-0.33321 c 0.004,0.005 0.0111,0.009 0.0139,0.0143 a 0.41455186,0.41455186 0 0 1 -0.006,0.31886 0.17399868,0.17399868 0 0 1 -0.007,-0.33321 z m 0.14182,0.62944 a 0.15050886,0.15050886 0 0 0 0.0566,-0.15138 0.14702888,0.14702888 0 0 0 -0.0522,-0.0826 0.55636079,0.55636079 0 0 0 0,-0.455 0.26404299,0.26404299 0 0 0 -0.0365,-0.0473 0.15268384,0.15268384 0 0 0 0.007,-0.0287 0.60073044,0.60073044 0 0 1 0.32582,0 0.18052363,0.18052363 0 0 0 0.009,0.03 0.26404299,0.26404299 0 0 0 -0.0365,0.0473 0.55810077,0.55810077 0 0 0 0,0.45501 0.14659389,0.14659389 0 0 0 0.005,0.23402 0.83258368,0.83258368 0 0 1 0.28579,0.46197 1.4276591,1.4276591 0 0 0 -0.41237,0.18575 l 0.174,0.25055 a 1.1309914,1.1309914 0 0 1 0.32755,-0.14876 0.88782827,0.88782827 0 0 1 -0.0174,0.0869 v 0 0 a 1.1344714,1.1344714 0 0 1 -0.0666,0.164 c -0.0305,-0.0196 -0.0644,-0.0365 -0.0931,-0.057 l -0.0213,0.0305 c -0.0869,-0.0435 -0.17052,-0.0871 -0.23838,-0.12702 l -0.0761,0.1305 -0.0761,-0.1305 c -0.0678,0.0391 -0.15008,0.0822 -0.23838,0.12658 l -0.0213,-0.03 c -0.0287,0.0205 -0.0626,0.0379 -0.0931,0.057 a 1.1344714,1.1344714 0 0 1 -0.0666,-0.164 v 0 a 0.88782827,0.88782827 0 0 1 -0.0174,-0.0869 1.1262065,1.1262065 0 0 1 0.32755,0.14833 l 0.174,-0.25056 a 1.4072143,1.4072143 0 0 0 -0.41107,-0.18531 0.82214377,0.82214377 0 0 1 0.2797,-0.46326 z m 0.34321,1.28107 c -0.01,0.005 -0.0126,0.017 -0.0183,0.0265 a 0.76950916,0.76950916 0 0 0 -0.1305,-0.0714 l -0.0535,0.14225 -0.0566,-0.14268 a 0.78299406,0.78299406 0 0 0 -0.13051,0.0714 c -0.006,-0.01 -0.009,-0.0213 -0.0182,-0.0265 -0.01,-0.005 -0.01,-0.01 -0.0143,-0.0123 0.0797,-0.0401 0.15225,-0.0779 0.2175,-0.11443 0.0661,0.0365 0.13833,0.0744 0.2175,0.11443 -0.004,0.002 -0.009,0.0111 -0.0134,0.0111 z m -5.96381,0.16486 c -0.0518,-0.0327 -0.13789,-0.0948 -0.13049,-0.15486 0.0678,-0.46371 1.92398,-0.48676 2.81617,-0.49763 a 7.9930644,7.9930644 0 0 0 0.87999,-0.0356 4.4304414,4.4304414 0 0 1 1.55076,-0.037 c 0.004,0.0217 0.005,0.0435 0.01,0.0649 l -0.27752,0.18921 -0.93742,-0.0974 -0.0126,0.12133 0.9596,0.0996 h 0.006 a 0.05872456,0.05872456 0 0 0 0.0344,-0.0111 l 0.26101,-0.17922 a 1.1744911,1.1744911 0 0 0 0.0648,0.15834 c -0.067,0.0392 -0.13615,0.0761 -0.20836,0.11184 -0.10222,0.0465 -0.20923,0.0936 -0.32146,0.14182 -1.5934,0.62248 -4.02024,0.5407 -4.69579,0.12571 z m 0.36844,2.24936 c 0.0435,-0.29927 0.90958,-0.91349 1.70388,-1.10358 a 22.245732,22.245732 0 0 0 2.76441,-1.00049 l 0.006,-0.002 c 0.20879,-0.09 0.40324,-0.17792 0.5755,-0.261 0.005,0.004 0.009,0.01 0.0126,0.0139 a 0.49981121,0.49981121 0 0 0 -0.13049,0.22272 0.58507057,0.58507057 0 0 0 -0.0483,0.0826 l -0.28319,0.14572 a 0.05828955,0.05828955 0 0 0 -0.0287,0.0331 l -0.2958,0.78821 -0.36365,0.72818 0.0678,0.0339 c -1.35196,0.59073 -3.64918,0.48415 -3.98064,0.31972 z m 4.39695,-0.53851 a 2.4442464,2.4442464 0 0 1 -0.348,0.19095 l 0.34147,-0.68424 0.29015,-0.77213 0.15703,-0.0809 a 0.36452724,0.36452724 0 0 0 0.0131,0.15051 0.96830266,0.96830266 0 0 1 -0.45413,1.19581 z m 1.20799,3.53347 a 2.5664806,2.5664806 0 0 1 -0.21358,0.78299 2.5664806,2.5664806 0 0 1 -0.2136,-0.78299 c -0.0435,-0.29842 -0.0174,-2.39901 0.0179,-2.8949 0.009,-0.11838 0.027,-0.26101 0.0466,-0.41326 a 2.9475376,2.9475376 0 0 0 -0.009,-1.32978 1.6029628,1.6029628 0 0 1 -0.084,-0.23185 v 0 a 0.526781,0.526781 0 0 1 0.24404,-0.26927 0.54548587,0.54548587 0 0 1 0.24273,0.26101 1.4920387,1.4920387 0 0 1 -0.0843,0.23881 2.9492776,2.9492776 0 0 0 -0.009,1.33022 c 0.0196,0.15225 0.0379,0.29493 0.0466,0.41281 0.0331,0.49677 0.0604,2.59693 0.0157,2.89621 z m 0.32841,-4.72928 a 0.36452724,0.36452724 0 0 0 0.0131,-0.15051 l 0.15748,0.0809 0.29188,0.77821 0.3393,0.6786 a 2.4694763,2.4694763 0 0 1 -0.34799,-0.1914 0.96873766,0.96873766 0 0 1 -0.45414,-1.1958 z m 3.14416,0.63117 c 0.79431,0.19053 1.66039,0.80388 1.70388,1.10315 -0.33146,0.16443 -2.62868,0.27144 -3.98195,-0.31798 l 0.0678,-0.0339 -0.36149,-0.7221 -0.29753,-0.79431 a 0.05915955,0.05915955 0 0 0 -0.0291,-0.033 l -0.28319,-0.14573 a 0.68033484,0.68033484 0 0 0 -0.0435,-0.0788 0.49328626,0.49328626 0 0 0 -0.1305,-0.22664 c 0.005,-0.004 0.009,-0.01 0.0126,-0.0139 0.17181,0.0826 0.36539,0.17052 0.57288,0.261 l 0.01,0.004 a 22.254866,22.254866 0 0 0 2.76048,0.99832 z m 2.07232,-1.14621 c -0.6651,0.4102 -3.18069,0.4811 -4.76538,-0.15486 l -0.14181,-0.0613 a 3.4530039,3.4530039 0 0 1 -0.32059,-0.16355 1.2471355,1.2471355 0 0 0 0.0649,-0.15748 l 0.261,0.17878 a 0.05785456,0.05785456 0 0 0 0.0344,0.0111 h 0.006 l 0.9596,-0.0996 -0.0126,-0.12133 -0.93742,0.0974 -0.27709,-0.18922 c 0.005,-0.0222 0.006,-0.0435 0.01,-0.0652 a 4.4326164,4.4326164 0 0 1 1.55077,0.0374 7.9991544,7.9991544 0 0 0 0.88,0.0356 c 0.89217,0.0111 2.7483,0.0339 2.81617,0.49763 0.0111,0.0601 -0.0752,0.1222 -0.12702,0.15486 z"
       id="path2"
       style="font-size:4.77499px;line-height:1.05;font-family:Roboto;-inkscape-font-specification:'Roboto, Normal';letter-spacing:0px;fill:#ffffff;fill-opacity:0.776358;stroke-width:0.0933388" />
  </g>
</svg>
