<?xml version="1.0" encoding="UTF-8" standalone="no"?>
<!-- Created with Inkscape (http://www.inkscape.org/) -->

<svg
   width="171.72607mm"
   height="16.199968mm"
   viewBox="0 0 171.72609 16.199969"
   version="1.1"
   id="svg415175"
   inkscape:version="1.1 (c68e22c387, 2021-05-23)"
   sodipodi:docname="obepine_title.svg"
   xmlns:inkscape="http://www.inkscape.org/namespaces/inkscape"
   xmlns:sodipodi="http://sodipodi.sourceforge.net/DTD/sodipodi-0.dtd"
   xmlns="http://www.w3.org/2000/svg"
   xmlns:svg="http://www.w3.org/2000/svg">
  <sodipodi:namedview
     id="namedview415177"
     pagecolor="#086570"
     bordercolor="#666666"
     borderopacity="1.0"
     inkscape:pageshadow="2"
     inkscape:pageopacity="1"
     inkscape:pagecheckerboard="0"
     inkscape:document-units="mm"
     showgrid="false"
     lock-margins="false"
     fit-margin-top="1"
     fit-margin-left="3"
     fit-margin-right="3"
     fit-margin-bottom="2"
     inkscape:zoom="1.4142136"
     inkscape:cx="229.8097"
     inkscape:cy="-64.700269"
     inkscape:window-width="2400"
     inkscape:window-height="1271"
     inkscape:window-x="2391"
     inkscape:window-y="-9"
     inkscape:window-maximized="1"
     inkscape:current-layer="layer1" />
  <defs
     id="defs415172" />
  <g
     inkscape:label="Calque 1"
     inkscape:groupmode="layer"
     id="layer1"
     transform="translate(-44.151901,-137.00757)">
    <g
       aria-label="OBÉPINE"
       id="text10383-4"
       style="font-size:12.2343px;line-height:1.25;font-family:Roboto;-inkscape-font-specification:'Roboto, Normal';letter-spacing:0.89411px;fill:#ffffff;stroke-width:0.264584">
      <path
         d="m 51.568483,150.03388 q -1.211196,0 -2.226643,-0.56278 -1.003212,-0.56277 -1.602693,-1.56599 -0.587246,-1.01544 -0.587246,-2.27558 0,-1.26013 0.587246,-2.26334 0.599481,-1.00321 1.602693,-1.56599 1.015447,-0.56278 2.226643,-0.56278 1.211196,0 2.214408,0.56278 1.015447,0.56278 1.590459,1.56599 0.587247,1.00321 0.587247,2.26334 0,1.26014 -0.587247,2.27558 -0.587246,1.00322 -1.590459,1.56599 -1.003212,0.56278 -2.214408,0.56278 z m 0,-1.90855 q 1.027681,0 1.639396,-0.68512 0.623949,-0.68512 0.623949,-1.81068 0,-1.13779 -0.623949,-1.81067 -0.611715,-0.68512 -1.639396,-0.68512 -1.039915,0 -1.663865,0.67288 -0.611715,0.67289 -0.611715,1.82291 0,1.13779 0.611715,1.82292 0.62395,0.67288 1.663865,0.67288 z"
         style="font-weight:bold;font-family:Poppins;-inkscape-font-specification:'Poppins Bold'"
         id="path415385" />
      <path
         d="m 63.216533,145.54389 q 0.746293,0.15905 1.198962,0.7463 0.452669,0.57501 0.452669,1.3213 0,1.07662 -0.758527,1.7128 -0.746292,0.62395 -2.092065,0.62395 h -4.000616 v -8.58848 h 3.866039 q 1.30907,0 2.043128,0.59948 0.746292,0.59949 0.746292,1.62717 0,0.75852 -0.403732,1.26013 -0.391497,0.50161 -1.05215,0.69735 z m -3.107512,-0.70959 h 1.370242 q 0.51384,0 0.782995,-0.22021 0.281389,-0.23245 0.281389,-0.67289 0,-0.44043 -0.281389,-0.67289 -0.269155,-0.23245 -0.782995,-0.23245 h -1.370242 z m 1.541522,3.42561 q 0.526075,0 0.807464,-0.23245 0.293623,-0.24469 0.293623,-0.69736 0,-0.45267 -0.305857,-0.70959 -0.293624,-0.25692 -0.819698,-0.25692 h -1.517054 v 1.89632 z"
         style="font-weight:bold;font-family:Poppins;-inkscape-font-specification:'Poppins Bold'"
         id="path415387" />
      <path
         d="m 69.065516,143.03586 v 1.73727 h 2.801654 v 1.61493 h -2.801654 v 1.88408 h 3.168683 v 1.6761 H 66.97345 v -8.58848 h 5.260749 v 1.6761 z m 1.90855,-3.40113 -2.948466,1.23566 v -1.44365 l 2.948466,-1.41917 z"
         style="font-weight:bold;font-family:Poppins;-inkscape-font-specification:'Poppins Bold'"
         id="path415389" />
      <path
         d="m 81.031649,144.12472 q 0,0.74629 -0.342561,1.37024 -0.34256,0.61171 -1.05215,0.99098 -0.709589,0.37926 -1.761739,0.37926 h -1.296835 v 3.08304 h -2.092066 v -8.58848 h 3.388901 q 1.027682,0 1.737271,0.3548 0.709589,0.35479 1.064384,0.97874 0.354795,0.62395 0.354795,1.43142 z m -3.315496,1.07661 q 0.599481,0 0.893104,-0.28138 0.293624,-0.28139 0.293624,-0.79523 0,-0.51385 -0.293624,-0.79523 -0.293623,-0.28139 -0.893104,-0.28139 h -1.137789 v 2.15323 z"
         style="font-weight:bold;font-family:Poppins;-inkscape-font-specification:'Poppins Bold'"
         id="path415391" />
      <path
         d="m 85.106661,141.35976 v 8.58848 h -2.092065 v -8.58848 z"
         style="font-weight:bold;font-family:Poppins;-inkscape-font-specification:'Poppins Bold'"
         id="path415393" />
      <path
         d="m 95.20094,149.94824 h -2.092065 l -3.49901,-5.29745 v 5.29745 H 87.5178 v -8.58848 h 2.092065 l 3.49901,5.32192 v -5.32192 h 2.092065 z"
         style="font-weight:bold;font-family:Poppins;-inkscape-font-specification:'Poppins Bold'"
         id="path415395" />
      <path
         d="m 99.704157,143.03586 v 1.73727 h 2.801653 v 1.61493 h -2.801653 v 1.88408 h 3.168683 v 1.6761 h -5.260748 v -8.58848 h 5.260748 v 1.6761 z"
         style="font-weight:bold;font-family:Poppins;-inkscape-font-specification:'Poppins Bold'"
         id="path415397" />
    </g>
    <g
       aria-label="Observatoire de la biodiversité et des  éléments paysagers d'interêt écologique"
       id="text10383-6-0"
       style="font-size:4.77499px;line-height:1.05;font-family:Roboto;-inkscape-font-specification:'Roboto, Normal';letter-spacing:0px;fill:#ffffff;stroke-width:0.264584"
       transform="translate(67.832471,-11.038231)">
      <path
         d="m 49.526779,155.9762 q -0.463174,0 -0.845174,-0.21487 -0.381999,-0.21965 -0.606423,-0.60642 -0.21965,-0.39155 -0.21965,-0.8786 0,-0.48705 0.21965,-0.87383 0.224424,-0.39154 0.606423,-0.60642 0.382,-0.21965 0.845174,-0.21965 0.467949,0 0.849948,0.21965 0.381999,0.21488 0.601649,0.60165 0.219649,0.38677 0.219649,0.8786 0,0.49182 -0.219649,0.8786 -0.21965,0.38677 -0.601649,0.60642 -0.381999,0.21487 -0.849948,0.21487 z m 0,-0.37722 q 0.348574,0 0.625523,-0.16235 0.281725,-0.16235 0.439299,-0.46317 0.16235,-0.30083 0.16235,-0.69715 0,-0.4011 -0.16235,-0.69715 -0.157574,-0.30082 -0.434524,-0.46317 -0.276949,-0.16235 -0.630298,-0.16235 -0.35335,0 -0.630299,0.16235 -0.276949,0.16235 -0.439299,0.46317 -0.157575,0.29605 -0.157575,0.69715 0,0.39632 0.157575,0.69715 0.16235,0.30082 0.439299,0.46317 0.281724,0.16235 0.630299,0.16235 z"
         style="font-family:Poppins;-inkscape-font-specification:Poppins"
         id="path415400" />
      <path
         d="m 52.205545,153.81313 q 0.133699,-0.23397 0.391549,-0.382 0.257849,-0.14802 0.587324,-0.14802 0.353349,0 0.635073,0.16712 0.281725,0.16713 0.444074,0.47273 0.16235,0.30082 0.16235,0.70192 0,0.39633 -0.16235,0.7067 -0.162349,0.31038 -0.448849,0.48227 -0.281724,0.1719 -0.630298,0.1719 -0.339025,0 -0.596874,-0.14802 -0.253075,-0.14802 -0.381999,-0.37722 v 0.48227 h -0.434524 v -3.53349 h 0.434524 z m 1.776296,0.81175 q 0,-0.29605 -0.119375,-0.5157 -0.119375,-0.21965 -0.324699,-0.33425 -0.20055,-0.1146 -0.444074,-0.1146 -0.23875,0 -0.444074,0.11938 -0.20055,0.1146 -0.3247,0.33902 -0.119374,0.21965 -0.119374,0.51093 0,0.29605 0.119374,0.52047 0.12415,0.21965 0.3247,0.33903 0.205324,0.1146 0.444074,0.1146 0.243524,0 0.444074,-0.1146 0.205324,-0.11938 0.324699,-0.33903 0.119375,-0.22442 0.119375,-0.52525 z"
         style="font-family:Poppins;-inkscape-font-specification:Poppins"
         id="path415402" />
      <path
         d="m 55.925256,155.98575 q -0.300825,0 -0.539574,-0.10027 -0.23875,-0.10505 -0.377225,-0.2865 -0.138474,-0.18622 -0.152799,-0.42497 h 0.448849 q 0.0191,0.19577 0.181449,0.31992 0.167125,0.12415 0.434525,0.12415 0.248299,0 0.391549,-0.10982 0.143249,-0.10983 0.143249,-0.27695 0,-0.1719 -0.152799,-0.25308 -0.1528,-0.0859 -0.472724,-0.16712 -0.291275,-0.0764 -0.477499,-0.1528 -0.18145,-0.0812 -0.31515,-0.23398 -0.128924,-0.15757 -0.128924,-0.41065 0,-0.20055 0.119374,-0.36767 0.119375,-0.16713 0.339025,-0.26263 0.219649,-0.10027 0.501374,-0.10027 0.434524,0 0.701923,0.21965 0.2674,0.21965 0.2865,0.60165 h -0.434525 q -0.01432,-0.20533 -0.167124,-0.32948 -0.148025,-0.12415 -0.401099,-0.12415 -0.233975,0 -0.37245,0.10028 -0.138474,0.10027 -0.138474,0.26262 0,0.12893 0.08118,0.21488 0.08595,0.0812 0.210099,0.1337 0.128925,0.0478 0.353349,0.10982 0.281725,0.0764 0.458399,0.1528 0.176675,0.0716 0.300825,0.21965 0.128925,0.14803 0.1337,0.38678 0,0.21487 -0.119375,0.38677 -0.119375,0.1719 -0.339025,0.27217 -0.214874,0.0955 -0.496598,0.0955 z"
         style="font-family:Poppins;-inkscape-font-specification:Poppins"
         id="path415404" />
      <path
         d="m 59.878945,154.53416 q 0,0.12415 -0.01432,0.26262 h -2.091446 q 0.02388,0.38678 0.262625,0.60643 0.243524,0.21487 0.587323,0.21487 0.281725,0 0.467949,-0.12892 0.191,-0.1337 0.2674,-0.35335 h 0.467949 q -0.10505,0.37722 -0.420199,0.61597 -0.31515,0.23397 -0.783099,0.23397 -0.372449,0 -0.668498,-0.16712 -0.291275,-0.16712 -0.458399,-0.47272 -0.167125,-0.31038 -0.167125,-0.71625 0,-0.40588 0.16235,-0.71148 0.162349,-0.3056 0.453624,-0.46795 0.296049,-0.16712 0.678048,-0.16712 0.37245,0 0.658949,0.16235 0.286499,0.16235 0.439299,0.44885 0.157575,0.28172 0.157575,0.63985 z m -0.448849,-0.0907 q 0,-0.2483 -0.109825,-0.42497 -0.109825,-0.18145 -0.300824,-0.27218 -0.186225,-0.0955 -0.415425,-0.0955 -0.329474,0 -0.563448,0.2101 -0.2292,0.2101 -0.262625,0.58255 z"
         style="font-family:Poppins;-inkscape-font-specification:Poppins"
         id="path415406" />
      <path
         d="m 60.886462,153.75106 q 0.1146,-0.22443 0.324699,-0.34858 0.214875,-0.12414 0.520474,-0.12414 v 0.44884 h -0.114599 q -0.730574,0 -0.730574,0.79265 v 1.42295 h -0.434524 v -2.6167 h 0.434524 z"
         style="font-family:Poppins;-inkscape-font-specification:Poppins"
         id="path415408" />
      <path
         d="m 63.207104,155.54168 0.811748,-2.2156 h 0.463174 l -1.026623,2.6167 h -0.506149 l -1.026622,-2.6167 h 0.467949 z"
         style="font-family:Poppins;-inkscape-font-specification:Poppins"
         id="path415410" />
      <path
         d="m 64.749421,154.62488 q 0,-0.4011 0.162349,-0.70192 0.16235,-0.3056 0.444074,-0.47273 0.2865,-0.16712 0.635074,-0.16712 0.343799,0 0.596874,0.14802 0.253074,0.14803 0.377224,0.37245 v -0.4775 h 0.439299 v 2.6167 h -0.439299 v -0.48705 q -0.128925,0.2292 -0.386774,0.382 -0.253075,0.14802 -0.592099,0.14802 -0.348574,0 -0.630299,-0.1719 -0.281724,-0.17189 -0.444074,-0.48227 -0.162349,-0.31037 -0.162349,-0.7067 z m 2.215595,0.005 q 0,-0.29605 -0.119375,-0.5157 -0.119375,-0.21965 -0.324699,-0.33425 -0.20055,-0.11938 -0.444074,-0.11938 -0.243525,0 -0.444074,0.1146 -0.20055,0.1146 -0.319925,0.33425 -0.119374,0.21965 -0.119374,0.5157 0,0.30083 0.119374,0.52525 0.119375,0.21965 0.319925,0.33903 0.200549,0.1146 0.444074,0.1146 0.243524,0 0.444074,-0.1146 0.205324,-0.11938 0.324699,-0.33903 0.119375,-0.22442 0.119375,-0.52047 z"
         style="font-family:Poppins;-inkscape-font-specification:Poppins"
         id="path415412" />
      <path
         d="m 68.66968,153.68421 v 1.54232 q 0,0.191 0.08118,0.27218 0.08118,0.0764 0.281725,0.0764 h 0.319924 v 0.36767 H 68.96096 q -0.3629,0 -0.544349,-0.16713 -0.18145,-0.16712 -0.18145,-0.54912 v -1.54232 h -0.339024 v -0.35813 h 0.339024 v -0.65894 h 0.434524 v 0.65894 h 0.682824 v 0.35813 z"
         style="font-family:Poppins;-inkscape-font-specification:Poppins"
         id="path415414" />
      <path
         d="m 71.018968,155.98575 q -0.367675,0 -0.668499,-0.16712 -0.296049,-0.16712 -0.467949,-0.47272 -0.167125,-0.31038 -0.167125,-0.71625 0,-0.4011 0.1719,-0.7067 0.176675,-0.31038 0.477499,-0.47273 0.300824,-0.16712 0.673274,-0.16712 0.372449,0 0.673273,0.16712 0.300825,0.16235 0.472724,0.46795 0.176675,0.3056 0.176675,0.71148 0,0.40587 -0.18145,0.71625 -0.176674,0.3056 -0.482274,0.47272 -0.305599,0.16712 -0.678048,0.16712 z m 0,-0.38199 q 0.233974,0 0.439299,-0.10983 0.205324,-0.10982 0.329474,-0.32947 0.128925,-0.21965 0.128925,-0.5348 0,-0.31515 -0.12415,-0.5348 -0.12415,-0.21965 -0.324699,-0.3247 -0.20055,-0.10983 -0.434524,-0.10983 -0.23875,0 -0.439299,0.10983 -0.195775,0.10505 -0.31515,0.3247 -0.119375,0.21965 -0.119375,0.5348 0,0.31992 0.1146,0.53957 0.119375,0.21965 0.31515,0.32948 0.195774,0.10505 0.429749,0.10505 z"
         style="font-family:Poppins;-inkscape-font-specification:Poppins"
         id="path415416" />
      <path
         d="m 73.158162,152.90111 q -0.12415,0 -0.2101,-0.0859 -0.08595,-0.0859 -0.08595,-0.2101 0,-0.12415 0.08595,-0.2101 0.08595,-0.0859 0.2101,-0.0859 0.119374,0 0.200549,0.0859 0.08595,0.0859 0.08595,0.2101 0,0.12415 -0.08595,0.2101 -0.08118,0.0859 -0.200549,0.0859 z m 0.210099,0.42497 v 2.6167 h -0.434524 v -2.6167 z"
         style="font-family:Poppins;-inkscape-font-specification:Poppins"
         id="path415418" />
      <path
         d="m 74.5429,153.75106 q 0.1146,-0.22443 0.324699,-0.34858 0.214875,-0.12414 0.520474,-0.12414 v 0.44884 h -0.1146 q -0.730573,0 -0.730573,0.79265 v 1.42295 h -0.434524 v -2.6167 H 74.5429 Z"
         style="font-family:Poppins;-inkscape-font-specification:Poppins"
         id="path415420" />
      <path
         d="m 78.276938,154.53416 q 0,0.12415 -0.01432,0.26262 h -2.091446 q 0.02388,0.38678 0.262625,0.60643 0.243524,0.21487 0.587323,0.21487 0.281725,0 0.467949,-0.12892 0.191,-0.1337 0.2674,-0.35335 h 0.467949 q -0.10505,0.37722 -0.420199,0.61597 -0.31515,0.23397 -0.783099,0.23397 -0.372449,0 -0.668498,-0.16712 -0.291275,-0.16712 -0.458399,-0.47272 -0.167125,-0.31038 -0.167125,-0.71625 0,-0.40588 0.16235,-0.71148 0.162349,-0.3056 0.453624,-0.46795 0.296049,-0.16712 0.678048,-0.16712 0.37245,0 0.658949,0.16235 0.286499,0.16235 0.439299,0.44885 0.157575,0.28172 0.157575,0.63985 z m -0.448849,-0.0907 q 0,-0.2483 -0.109825,-0.42497 -0.109825,-0.18145 -0.300824,-0.27218 -0.186225,-0.0955 -0.415425,-0.0955 -0.329474,0 -0.563448,0.2101 -0.2292,0.2101 -0.262625,0.58255 z"
         style="font-family:Poppins;-inkscape-font-specification:Poppins"
         id="path415422" />
      <path
         d="m 79.962496,154.62488 q 0,-0.4011 0.16235,-0.70192 0.16235,-0.3056 0.444074,-0.47273 0.286499,-0.16712 0.639849,-0.16712 0.305599,0 0.568223,0.14325 0.262625,0.13847 0.4011,0.36767 v -1.38474 h 0.439299 v 3.53349 h -0.439299 v -0.49182 q -0.128925,0.23397 -0.382,0.38677 -0.253074,0.14802 -0.592098,0.14802 -0.348575,0 -0.635074,-0.1719 -0.281724,-0.17189 -0.444074,-0.48227 -0.16235,-0.31037 -0.16235,-0.7067 z m 2.215596,0.005 q 0,-0.29605 -0.119375,-0.5157 -0.119375,-0.21965 -0.324699,-0.33425 -0.20055,-0.11938 -0.444075,-0.11938 -0.243524,0 -0.444074,0.1146 -0.200549,0.1146 -0.319924,0.33425 -0.119375,0.21965 -0.119375,0.5157 0,0.30083 0.119375,0.52525 0.119375,0.21965 0.319924,0.33903 0.20055,0.1146 0.444074,0.1146 0.243525,0 0.444075,-0.1146 0.205324,-0.11938 0.324699,-0.33903 0.119375,-0.22442 0.119375,-0.52047 z"
         style="font-family:Poppins;-inkscape-font-specification:Poppins"
         id="path415424" />
      <path
         d="m 85.740227,154.53416 q 0,0.12415 -0.01432,0.26262 h -2.091446 q 0.02388,0.38678 0.262625,0.60643 0.243524,0.21487 0.587324,0.21487 0.281724,0 0.467949,-0.12892 0.190999,-0.1337 0.267399,-0.35335 h 0.467949 q -0.10505,0.37722 -0.420199,0.61597 -0.315149,0.23397 -0.783098,0.23397 -0.37245,0 -0.668499,-0.16712 -0.291274,-0.16712 -0.458399,-0.47272 -0.167125,-0.31038 -0.167125,-0.71625 0,-0.40588 0.16235,-0.71148 0.16235,-0.3056 0.453624,-0.46795 0.29605,-0.16712 0.678049,-0.16712 0.372449,0 0.658948,0.16235 0.2865,0.16235 0.439299,0.44885 0.157575,0.28172 0.157575,0.63985 z m -0.448849,-0.0907 q 0,-0.2483 -0.109825,-0.42497 -0.109825,-0.18145 -0.300824,-0.27218 -0.186225,-0.0955 -0.415424,-0.0955 -0.329475,0 -0.563449,0.2101 -0.2292,0.2101 -0.262625,0.58255 z"
         style="font-family:Poppins;-inkscape-font-specification:Poppins"
         id="path415426" />
      <path
         d="m 88.022661,152.40929 v 3.53349 h -0.434524 v -3.53349 z"
         style="font-family:Poppins;-inkscape-font-specification:Poppins"
         id="path415428" />
      <path
         d="m 88.600428,154.62488 q 0,-0.4011 0.16235,-0.70192 0.162349,-0.3056 0.444074,-0.47273 0.286499,-0.16712 0.635073,-0.16712 0.3438,0 0.596874,0.14802 0.253075,0.14803 0.377224,0.37245 v -0.4775 h 0.4393 v 2.6167 h -0.4393 v -0.48705 q -0.128924,0.2292 -0.386774,0.382 -0.253074,0.14802 -0.592099,0.14802 -0.348574,0 -0.630298,-0.1719 -0.281725,-0.17189 -0.444074,-0.48227 -0.16235,-0.31037 -0.16235,-0.7067 z m 2.215595,0.005 q 0,-0.29605 -0.119374,-0.5157 -0.119375,-0.21965 -0.3247,-0.33425 -0.200549,-0.11938 -0.444074,-0.11938 -0.243524,0 -0.444074,0.1146 -0.200549,0.1146 -0.319924,0.33425 -0.119375,0.21965 -0.119375,0.5157 0,0.30083 0.119375,0.52525 0.119375,0.21965 0.319924,0.33903 0.20055,0.1146 0.444074,0.1146 0.243525,0 0.444074,-0.1146 0.205325,-0.11938 0.3247,-0.33903 0.119374,-0.22442 0.119374,-0.52047 z"
         style="font-family:Poppins;-inkscape-font-specification:Poppins"
         id="path415430" />
      <path
         d="m 93.700102,153.81313 q 0.133699,-0.23397 0.391549,-0.382 0.257849,-0.14802 0.587324,-0.14802 0.353349,0 0.635073,0.16712 0.281725,0.16713 0.444075,0.47273 0.162349,0.30082 0.162349,0.70192 0,0.39633 -0.162349,0.7067 -0.16235,0.31038 -0.44885,0.48227 -0.281724,0.1719 -0.630298,0.1719 -0.339025,0 -0.596874,-0.14802 -0.253074,-0.14802 -0.381999,-0.37722 v 0.48227 h -0.434524 v -3.53349 h 0.434524 z m 1.776296,0.81175 q 0,-0.29605 -0.119375,-0.5157 -0.119374,-0.21965 -0.324699,-0.33425 -0.20055,-0.1146 -0.444074,-0.1146 -0.23875,0 -0.444074,0.11938 -0.20055,0.1146 -0.324699,0.33902 -0.119375,0.21965 -0.119375,0.51093 0,0.29605 0.119375,0.52047 0.124149,0.21965 0.324699,0.33903 0.205324,0.1146 0.444074,0.1146 0.243524,0 0.444074,-0.1146 0.205325,-0.11938 0.324699,-0.33903 0.119375,-0.22442 0.119375,-0.52525 z"
         style="font-family:Poppins;-inkscape-font-specification:Poppins"
         id="path415432" />
      <path
         d="m 96.717888,152.90111 q -0.124149,0 -0.210099,-0.0859 -0.08595,-0.0859 -0.08595,-0.2101 0,-0.12415 0.08595,-0.2101 0.08595,-0.0859 0.210099,-0.0859 0.119375,0 0.20055,0.0859 0.08595,0.0859 0.08595,0.2101 0,0.12415 -0.08595,0.2101 -0.08118,0.0859 -0.20055,0.0859 z m 0.2101,0.42497 v 2.6167 h -0.434524 v -2.6167 z"
         style="font-family:Poppins;-inkscape-font-specification:Poppins"
         id="path415434" />
      <path
         d="m 98.809327,155.98575 q -0.367674,0 -0.668498,-0.16712 -0.29605,-0.16712 -0.467949,-0.47272 -0.167125,-0.31038 -0.167125,-0.71625 0,-0.4011 0.1719,-0.7067 0.176674,-0.31038 0.477499,-0.47273 0.300824,-0.16712 0.673273,-0.16712 0.372449,0 0.673274,0.16712 0.300824,0.16235 0.472724,0.46795 0.176675,0.3056 0.176675,0.71148 0,0.40587 -0.18145,0.71625 -0.176675,0.3056 -0.482274,0.47272 -0.3056,0.16712 -0.678049,0.16712 z m 0,-0.38199 q 0.233975,0 0.439299,-0.10983 0.205325,-0.10982 0.329475,-0.32947 0.128924,-0.21965 0.128924,-0.5348 0,-0.31515 -0.124149,-0.5348 -0.12415,-0.21965 -0.3247,-0.3247 -0.200549,-0.10983 -0.434524,-0.10983 -0.238749,0 -0.439299,0.10983 -0.195775,0.10505 -0.315149,0.3247 -0.119375,0.21965 -0.119375,0.5348 0,0.31992 0.1146,0.53957 0.119374,0.21965 0.315149,0.32948 0.195775,0.10505 0.429749,0.10505 z"
         style="font-family:Poppins;-inkscape-font-specification:Poppins"
         id="path415436" />
      <path
         d="m 100.56175,154.62488 q 0,-0.4011 0.16235,-0.70192 0.16235,-0.3056 0.44407,-0.47273 0.2865,-0.16712 0.63985,-0.16712 0.3056,0 0.56822,0.14325 0.26263,0.13847 0.4011,0.36767 v -1.38474 h 0.4393 v 3.53349 h -0.4393 v -0.49182 q -0.12892,0.23397 -0.382,0.38677 -0.25307,0.14802 -0.5921,0.14802 -0.34857,0 -0.63507,-0.1719 -0.28172,-0.17189 -0.44407,-0.48227 -0.16235,-0.31037 -0.16235,-0.7067 z m 2.21559,0.005 q 0,-0.29605 -0.11937,-0.5157 -0.11938,-0.21965 -0.3247,-0.33425 -0.20055,-0.11938 -0.44408,-0.11938 -0.24352,0 -0.44407,0.1146 -0.20055,0.1146 -0.31992,0.33425 -0.11938,0.21965 -0.11938,0.5157 0,0.30083 0.11938,0.52525 0.11937,0.21965 0.31992,0.33903 0.20055,0.1146 0.44407,0.1146 0.24353,0 0.44408,-0.1146 0.20532,-0.11938 0.3247,-0.33903 0.11937,-0.22442 0.11937,-0.52047 z"
         style="font-family:Poppins;-inkscape-font-specification:Poppins"
         id="path415438" />
      <path
         d="m 104.17641,152.90111 q -0.12415,0 -0.2101,-0.0859 -0.0859,-0.0859 -0.0859,-0.2101 0,-0.12415 0.0859,-0.2101 0.086,-0.0859 0.2101,-0.0859 0.11937,0 0.20055,0.0859 0.0859,0.0859 0.0859,0.2101 0,0.12415 -0.0859,0.2101 -0.0812,0.0859 -0.20055,0.0859 z m 0.2101,0.42497 v 2.6167 h -0.43453 v -2.6167 z"
         style="font-family:Poppins;-inkscape-font-specification:Poppins"
         id="path415440" />
      <path
         d="m 106.10072,155.54168 0.81175,-2.2156 h 0.46317 l -1.02662,2.6167 h -0.50615 l -1.02662,-2.6167 h 0.46794 z"
         style="font-family:Poppins;-inkscape-font-specification:Poppins"
         id="path415442" />
      <path
         d="m 110.19288,154.53416 q 0,0.12415 -0.0143,0.26262 h -2.09144 q 0.0239,0.38678 0.26262,0.60643 0.24353,0.21487 0.58733,0.21487 0.28172,0 0.46795,-0.12892 0.191,-0.1337 0.2674,-0.35335 h 0.46794 q -0.10505,0.37722 -0.42019,0.61597 -0.31515,0.23397 -0.7831,0.23397 -0.37245,0 -0.6685,-0.16712 -0.29128,-0.16712 -0.4584,-0.47272 -0.16713,-0.31038 -0.16713,-0.71625 0,-0.40588 0.16235,-0.71148 0.16235,-0.3056 0.45363,-0.46795 0.29605,-0.16712 0.67805,-0.16712 0.37245,0 0.65895,0.16235 0.28649,0.16235 0.43929,0.44885 0.15758,0.28172 0.15758,0.63985 z m -0.44885,-0.0907 q 0,-0.2483 -0.10982,-0.42497 -0.10983,-0.18145 -0.30083,-0.27218 -0.18622,-0.0955 -0.41542,-0.0955 -0.32948,0 -0.56345,0.2101 -0.2292,0.2101 -0.26263,0.58255 z"
         style="font-family:Poppins;-inkscape-font-specification:Poppins"
         id="path415444" />
      <path
         d="m 111.2004,153.75106 q 0.1146,-0.22443 0.3247,-0.34858 0.21487,-0.12414 0.52047,-0.12414 v 0.44884 h -0.1146 q -0.73057,0 -0.73057,0.79265 v 1.42295 h -0.43452 v -2.6167 h 0.43452 z"
         style="font-family:Poppins;-inkscape-font-specification:Poppins"
         id="path415446" />
      <path
         d="m 113.47329,155.98575 q -0.30082,0 -0.53957,-0.10027 -0.23875,-0.10505 -0.37723,-0.2865 -0.13847,-0.18622 -0.1528,-0.42497 h 0.44885 q 0.0191,0.19577 0.18145,0.31992 0.16713,0.12415 0.43453,0.12415 0.24829,0 0.39154,-0.10982 0.14325,-0.10983 0.14325,-0.27695 0,-0.1719 -0.1528,-0.25308 -0.1528,-0.0859 -0.47272,-0.16712 -0.29127,-0.0764 -0.4775,-0.1528 -0.18145,-0.0812 -0.31515,-0.23398 -0.12892,-0.15757 -0.12892,-0.41065 0,-0.20055 0.11937,-0.36767 0.11938,-0.16713 0.33903,-0.26263 0.21965,-0.10027 0.50137,-0.10027 0.43452,0 0.70192,0.21965 0.2674,0.21965 0.2865,0.60165 h -0.43452 q -0.0143,-0.20533 -0.16713,-0.32948 -0.14802,-0.12415 -0.40109,-0.12415 -0.23398,0 -0.37245,0.10028 -0.13848,0.10027 -0.13848,0.26262 0,0.12893 0.0812,0.21488 0.0859,0.0812 0.2101,0.1337 0.12892,0.0478 0.35335,0.10982 0.28172,0.0764 0.45839,0.1528 0.17668,0.0716 0.30083,0.21965 0.12892,0.14803 0.1337,0.38678 0,0.21487 -0.11938,0.38677 -0.11937,0.1719 -0.33902,0.27217 -0.21488,0.0955 -0.4966,0.0955 z"
         style="font-family:Poppins;-inkscape-font-specification:Poppins"
         id="path415448" />
      <path
         d="m 115.26391,152.90111 q -0.12415,0 -0.2101,-0.0859 -0.0859,-0.0859 -0.0859,-0.2101 0,-0.12415 0.0859,-0.2101 0.0859,-0.0859 0.2101,-0.0859 0.11937,0 0.20054,0.0859 0.0859,0.0859 0.0859,0.2101 0,0.12415 -0.0859,0.2101 -0.0812,0.0859 -0.20054,0.0859 z m 0.21009,0.42497 v 2.6167 h -0.43452 v -2.6167 z"
         style="font-family:Poppins;-inkscape-font-specification:Poppins"
         id="path415450" />
      <path
         d="m 116.74415,153.68421 v 1.54232 q 0,0.191 0.0812,0.27218 0.0812,0.0764 0.28173,0.0764 h 0.31992 v 0.36767 h -0.39155 q -0.3629,0 -0.54435,-0.16713 -0.18145,-0.16712 -0.18145,-0.54912 v -1.54232 h -0.33902 v -0.35813 h 0.33902 v -0.65894 h 0.43453 v 0.65894 h 0.68282 v 0.35813 z"
         style="font-family:Poppins;-inkscape-font-specification:Poppins"
         id="path415452" />
      <path
         d="m 120.33971,154.53416 q 0,0.12415 -0.0143,0.26262 h -2.09145 q 0.0239,0.38678 0.26262,0.60643 0.24353,0.21487 0.58733,0.21487 0.28172,0 0.46795,-0.12892 0.191,-0.1337 0.2674,-0.35335 h 0.46795 q -0.10505,0.37722 -0.4202,0.61597 -0.31515,0.23397 -0.7831,0.23397 -0.37245,0 -0.6685,-0.16712 -0.29127,-0.16712 -0.4584,-0.47272 -0.16712,-0.31038 -0.16712,-0.71625 0,-0.40588 0.16235,-0.71148 0.16235,-0.3056 0.45362,-0.46795 0.29605,-0.16712 0.67805,-0.16712 0.37245,0 0.65895,0.16235 0.2865,0.16235 0.4393,0.44885 0.15757,0.28172 0.15757,0.63985 z m -0.44885,-0.0907 q 0,-0.2483 -0.10982,-0.42497 -0.10983,-0.18145 -0.30083,-0.27218 -0.18622,-0.0955 -0.41542,-0.0955 -0.32948,0 -0.56345,0.2101 -0.2292,0.2101 -0.26263,0.58255 z m -0.35812,-1.85747 -1.01708,0.54435 v -0.3247 l 1.01708,-0.59687 z"
         style="font-family:Poppins;-inkscape-font-specification:Poppins"
         id="path415454" />
      <path
         d="m 124.57511,154.53416 q 0,0.12415 -0.0143,0.26262 h -2.09144 q 0.0239,0.38678 0.26262,0.60643 0.24353,0.21487 0.58733,0.21487 0.28172,0 0.46794,-0.12892 0.191,-0.1337 0.2674,-0.35335 h 0.46795 q -0.10505,0.37722 -0.4202,0.61597 -0.31515,0.23397 -0.78309,0.23397 -0.37245,0 -0.6685,-0.16712 -0.29128,-0.16712 -0.4584,-0.47272 -0.16713,-0.31038 -0.16713,-0.71625 0,-0.40588 0.16235,-0.71148 0.16235,-0.3056 0.45363,-0.46795 0.29605,-0.16712 0.67805,-0.16712 0.37244,0 0.65894,0.16235 0.2865,0.16235 0.4393,0.44885 0.15758,0.28172 0.15758,0.63985 z m -0.44885,-0.0907 q 0,-0.2483 -0.10983,-0.42497 -0.10982,-0.18145 -0.30082,-0.27218 -0.18622,-0.0955 -0.41542,-0.0955 -0.32948,0 -0.56345,0.2101 -0.2292,0.2101 -0.26263,0.58255 z"
         style="font-family:Poppins;-inkscape-font-specification:Poppins"
         id="path415456" />
      <path
         d="m 125.67813,153.68421 v 1.54232 q 0,0.191 0.0812,0.27218 0.0812,0.0764 0.28172,0.0764 h 0.31993 v 0.36767 h -0.39155 q -0.3629,0 -0.54435,-0.16713 -0.18145,-0.16712 -0.18145,-0.54912 v -1.54232 h -0.33903 v -0.35813 h 0.33903 v -0.65894 h 0.43452 v 0.65894 h 0.68283 v 0.35813 z"
         style="font-family:Poppins;-inkscape-font-specification:Poppins"
         id="path415458" />
      <path
         d="m 127.99876,154.62488 q 0,-0.4011 0.16235,-0.70192 0.16235,-0.3056 0.44407,-0.47273 0.2865,-0.16712 0.63985,-0.16712 0.3056,0 0.56822,0.14325 0.26263,0.13847 0.4011,0.36767 v -1.38474 h 0.4393 v 3.53349 h -0.4393 v -0.49182 q -0.12892,0.23397 -0.382,0.38677 -0.25307,0.14802 -0.59209,0.14802 -0.34858,0 -0.63508,-0.1719 -0.28172,-0.17189 -0.44407,-0.48227 -0.16235,-0.31037 -0.16235,-0.7067 z m 2.21559,0.005 q 0,-0.29605 -0.11937,-0.5157 -0.11938,-0.21965 -0.3247,-0.33425 -0.20055,-0.11938 -0.44407,-0.11938 -0.24353,0 -0.44408,0.1146 -0.20055,0.1146 -0.31992,0.33425 -0.11938,0.21965 -0.11938,0.5157 0,0.30083 0.11938,0.52525 0.11937,0.21965 0.31992,0.33903 0.20055,0.1146 0.44408,0.1146 0.24352,0 0.44407,-0.1146 0.20532,-0.11938 0.3247,-0.33903 0.11937,-0.22442 0.11937,-0.52047 z"
         style="font-family:Poppins;-inkscape-font-specification:Poppins"
         id="path415460" />
      <path
         d="m 133.77649,154.53416 q 0,0.12415 -0.0143,0.26262 h -2.09144 q 0.0239,0.38678 0.26262,0.60643 0.24352,0.21487 0.58732,0.21487 0.28173,0 0.46795,-0.12892 0.191,-0.1337 0.2674,-0.35335 h 0.46795 q -0.10505,0.37722 -0.4202,0.61597 -0.31515,0.23397 -0.7831,0.23397 -0.37245,0 -0.6685,-0.16712 -0.29127,-0.16712 -0.45839,-0.47272 -0.16713,-0.31038 -0.16713,-0.71625 0,-0.40588 0.16235,-0.71148 0.16235,-0.3056 0.45362,-0.46795 0.29605,-0.16712 0.67805,-0.16712 0.37245,0 0.65895,0.16235 0.2865,0.16235 0.4393,0.44885 0.15758,0.28172 0.15758,0.63985 z m -0.44885,-0.0907 q 0,-0.2483 -0.10983,-0.42497 -0.10982,-0.18145 -0.30082,-0.27218 -0.18623,-0.0955 -0.41543,-0.0955 -0.32947,0 -0.56345,0.2101 -0.22919,0.2101 -0.26262,0.58255 z"
         style="font-family:Poppins;-inkscape-font-specification:Poppins"
         id="path415462" />
      <path
         d="m 135.27583,155.98575 q -0.30082,0 -0.53957,-0.10027 -0.23875,-0.10505 -0.37722,-0.2865 -0.13848,-0.18622 -0.1528,-0.42497 h 0.44885 q 0.0191,0.19577 0.18144,0.31992 0.16713,0.12415 0.43453,0.12415 0.2483,0 0.39155,-0.10982 0.14325,-0.10983 0.14325,-0.27695 0,-0.1719 -0.1528,-0.25308 -0.1528,-0.0859 -0.47273,-0.16712 -0.29127,-0.0764 -0.47749,-0.1528 -0.18145,-0.0812 -0.31515,-0.23398 -0.12893,-0.15757 -0.12893,-0.41065 0,-0.20055 0.11938,-0.36767 0.11937,-0.16713 0.33902,-0.26263 0.21965,-0.10027 0.50137,-0.10027 0.43453,0 0.70193,0.21965 0.2674,0.21965 0.2865,0.60165 h -0.43453 q -0.0143,-0.20533 -0.16712,-0.32948 -0.14803,-0.12415 -0.4011,-0.12415 -0.23398,0 -0.37245,0.10028 -0.13847,0.10027 -0.13847,0.26262 0,0.12893 0.0812,0.21488 0.0859,0.0812 0.2101,0.1337 0.12892,0.0478 0.35335,0.10982 0.28172,0.0764 0.4584,0.1528 0.17667,0.0716 0.30082,0.21965 0.12893,0.14803 0.1337,0.38678 0,0.21487 -0.11937,0.38677 -0.11938,0.1719 -0.33903,0.27217 -0.21487,0.0955 -0.4966,0.0955 z"
         style="font-family:Poppins;-inkscape-font-specification:Poppins"
         id="path415464" />
      <path
         d="m 50.405377,159.5479 q 0,0.12415 -0.01432,0.26262 h -2.091446 q 0.02388,0.38678 0.262625,0.60643 0.243524,0.21487 0.587323,0.21487 0.281725,0 0.467949,-0.12893 0.191,-0.13369 0.2674,-0.35334 h 0.467949 q -0.10505,0.37722 -0.420199,0.61597 -0.31515,0.23397 -0.783099,0.23397 -0.372449,0 -0.668498,-0.16712 -0.291275,-0.16713 -0.458399,-0.47272 -0.167125,-0.31038 -0.167125,-0.71625 0,-0.40588 0.16235,-0.71148 0.162349,-0.3056 0.453624,-0.46795 0.296049,-0.16712 0.678048,-0.16712 0.37245,0 0.658949,0.16235 0.286499,0.16235 0.439299,0.44885 0.157575,0.28172 0.157575,0.63985 z m -0.448849,-0.0907 q 0,-0.2483 -0.109825,-0.42497 -0.109825,-0.18145 -0.300824,-0.27218 -0.186225,-0.0955 -0.415425,-0.0955 -0.329474,0 -0.563448,0.2101 -0.2292,0.2101 -0.262625,0.58255 z m -0.358125,-1.85747 -1.017072,0.54435 v -0.3247 l 1.017072,-0.59687 z"
         style="font-family:Poppins;-inkscape-font-specification:Poppins"
         id="path415466" />
      <path
         d="m 51.412895,157.42303 v 3.53349 h -0.434524 v -3.53349 z"
         style="font-family:Poppins;-inkscape-font-specification:Poppins"
         id="path415468" />
      <path
         d="m 54.540505,159.5479 q 0,0.12415 -0.01433,0.26262 H 52.43473 q 0.02387,0.38678 0.262624,0.60643 0.243525,0.21487 0.587324,0.21487 0.281724,0 0.467949,-0.12893 0.191,-0.13369 0.267399,-0.35334 h 0.467949 q -0.105049,0.37722 -0.420199,0.61597 -0.315149,0.23397 -0.783098,0.23397 -0.372449,0 -0.668499,-0.16712 -0.291274,-0.16713 -0.458399,-0.47272 -0.167124,-0.31038 -0.167124,-0.71625 0,-0.40588 0.162349,-0.71148 0.16235,-0.3056 0.453624,-0.46795 0.29605,-0.16712 0.678049,-0.16712 0.372449,0 0.658949,0.16235 0.286499,0.16235 0.439299,0.44885 0.157574,0.28172 0.157574,0.63985 z m -0.448849,-0.0907 q 0,-0.2483 -0.109825,-0.42497 -0.109824,-0.18145 -0.300824,-0.27218 -0.186225,-0.0955 -0.415424,-0.0955 -0.329474,0 -0.563449,0.2101 -0.229199,0.2101 -0.262624,0.58255 z m -0.358124,-1.85747 -1.017073,0.54435 v -0.3247 l 1.017073,-0.59687 z"
         style="font-family:Poppins;-inkscape-font-specification:Poppins"
         id="path415470" />
      <path
         d="m 58.260218,158.29207 q 0.305599,0 0.544348,0.12893 0.23875,0.12415 0.377225,0.37722 0.138474,0.25308 0.138474,0.61598 v 1.54232 h -0.429749 v -1.48025 q 0,-0.39155 -0.195774,-0.59687 -0.191,-0.2101 -0.520474,-0.2101 -0.339025,0 -0.539574,0.21965 -0.20055,0.21487 -0.20055,0.62552 v 1.44205 h -0.429749 v -1.48025 q 0,-0.39155 -0.195774,-0.59687 -0.191,-0.2101 -0.520474,-0.2101 -0.339025,0 -0.539574,0.21965 -0.20055,0.21487 -0.20055,0.62552 v 1.44205 h -0.434524 v -2.6167 h 0.434524 v 0.37723 q 0.128925,-0.20533 0.343799,-0.31515 0.21965,-0.10983 0.482274,-0.10983 0.329475,0 0.582549,0.14803 0.253075,0.14802 0.377224,0.43452 0.109825,-0.27695 0.3629,-0.42975 0.253074,-0.1528 0.563449,-0.1528 z"
         style="font-family:Poppins;-inkscape-font-specification:Poppins"
         id="path415472" />
      <path
         d="m 62.419228,159.5479 q 0,0.12415 -0.01432,0.26262 h -2.091446 q 0.02388,0.38678 0.262625,0.60643 0.243524,0.21487 0.587324,0.21487 0.281724,0 0.467949,-0.12893 0.190999,-0.13369 0.267399,-0.35334 h 0.467949 q -0.10505,0.37722 -0.420199,0.61597 -0.315149,0.23397 -0.783098,0.23397 -0.37245,0 -0.668499,-0.16712 -0.291274,-0.16713 -0.458399,-0.47272 -0.167125,-0.31038 -0.167125,-0.71625 0,-0.40588 0.16235,-0.71148 0.16235,-0.3056 0.453624,-0.46795 0.296049,-0.16712 0.678049,-0.16712 0.372449,0 0.658948,0.16235 0.2865,0.16235 0.439299,0.44885 0.157575,0.28172 0.157575,0.63985 z m -0.448849,-0.0907 q 0,-0.2483 -0.109825,-0.42497 -0.109825,-0.18145 -0.300824,-0.27218 -0.186225,-0.0955 -0.415424,-0.0955 -0.329475,0 -0.563449,0.2101 -0.2292,0.2101 -0.262625,0.58255 z"
         style="font-family:Poppins;-inkscape-font-specification:Poppins"
         id="path415474" />
      <path
         d="m 64.267145,158.29207 q 0.477499,0 0.773548,0.29128 0.296049,0.2865 0.296049,0.83085 v 1.54232 h -0.429749 v -1.48025 q 0,-0.39155 -0.195774,-0.59687 -0.195775,-0.2101 -0.534799,-0.2101 -0.3438,0 -0.549124,0.21487 -0.20055,0.21488 -0.20055,0.62553 v 1.44682 h -0.434524 v -2.6167 h 0.434524 v 0.37245 q 0.128925,-0.20055 0.348575,-0.31037 0.224424,-0.10983 0.491824,-0.10983 z"
         style="font-family:Poppins;-inkscape-font-specification:Poppins"
         id="path415476" />
      <path
         d="m 66.578236,158.69795 v 1.54232 q 0,0.191 0.08118,0.27217 0.08117,0.0764 0.281725,0.0764 h 0.319924 v 0.36768 h -0.391549 q -0.3629,0 -0.544349,-0.16713 -0.18145,-0.16712 -0.18145,-0.54912 v -1.54232 h -0.339024 v -0.35813 h 0.339024 v -0.65894 h 0.434524 v 0.65894 h 0.682824 v 0.35813 z"
         style="font-family:Poppins;-inkscape-font-specification:Poppins"
         id="path415478" />
      <path
         d="m 68.712649,160.99949 q -0.300824,0 -0.539574,-0.10027 -0.238749,-0.10505 -0.377224,-0.2865 -0.138475,-0.18622 -0.1528,-0.42497 H 68.0919 q 0.0191,0.19577 0.18145,0.31992 0.167125,0.12415 0.434524,0.12415 0.2483,0 0.391549,-0.10983 0.14325,-0.10982 0.14325,-0.27694 0,-0.1719 -0.1528,-0.25308 -0.152799,-0.0859 -0.472724,-0.16712 -0.291274,-0.0764 -0.477499,-0.1528 -0.181449,-0.0812 -0.315149,-0.23398 -0.128925,-0.15757 -0.128925,-0.41065 0,-0.20055 0.119375,-0.36767 0.119375,-0.16713 0.339024,-0.26263 0.21965,-0.10027 0.501374,-0.10027 0.434524,0 0.701924,0.21965 0.267399,0.21965 0.286499,0.60165 h -0.434524 q -0.01432,-0.20533 -0.167125,-0.32948 -0.148024,-0.12415 -0.401099,-0.12415 -0.233974,0 -0.372449,0.10028 -0.138475,0.10027 -0.138475,0.26262 0,0.12893 0.08118,0.21488 0.08595,0.0812 0.2101,0.1337 0.128924,0.0478 0.353349,0.10982 0.281724,0.0764 0.458399,0.1528 0.176675,0.0716 0.300824,0.21965 0.128925,0.14803 0.1337,0.38678 0,0.21487 -0.119375,0.38677 -0.119374,0.1719 -0.339024,0.27217 -0.214874,0.0955 -0.496599,0.0955 z"
         style="font-family:Poppins;-inkscape-font-specification:Poppins"
         id="path415480" />
      <path
         d="m 71.988281,158.8221 q 0.128925,-0.22443 0.381999,-0.37245 0.25785,-0.1528 0.596874,-0.1528 0.348574,0 0.630299,0.16712 0.286499,0.16713 0.448849,0.47273 0.16235,0.30082 0.16235,0.70192 0,0.39633 -0.16235,0.7067 -0.16235,0.31037 -0.448849,0.48227 -0.281725,0.1719 -0.630299,0.1719 -0.334249,0 -0.592099,-0.14802 -0.253074,-0.1528 -0.386774,-0.37723 v 1.72378 h -0.434524 v -3.8582 h 0.434524 z m 1.776296,0.81652 q 0,-0.29605 -0.119374,-0.5157 -0.119375,-0.21965 -0.3247,-0.33425 -0.200549,-0.1146 -0.444074,-0.1146 -0.238749,0 -0.444074,0.11938 -0.200549,0.1146 -0.324699,0.33902 -0.119375,0.21965 -0.119375,0.51093 0,0.29605 0.119375,0.52047 0.12415,0.21965 0.324699,0.33902 0.205325,0.1146 0.444074,0.1146 0.243525,0 0.444074,-0.1146 0.205325,-0.11937 0.3247,-0.33902 0.119374,-0.22442 0.119374,-0.52525 z"
         style="font-family:Poppins;-inkscape-font-specification:Poppins"
         id="path415482" />
      <path
         d="m 74.619296,159.63862 q 0,-0.4011 0.162349,-0.70192 0.16235,-0.3056 0.444074,-0.47273 0.2865,-0.16712 0.635074,-0.16712 0.343799,0 0.596874,0.14802 0.253074,0.14803 0.377224,0.37245 v -0.4775 h 0.439299 v 2.6167 h -0.439299 v -0.48705 q -0.128925,0.2292 -0.386774,0.382 -0.253075,0.14802 -0.592099,0.14802 -0.348574,0 -0.630299,-0.1719 -0.281724,-0.1719 -0.444074,-0.48227 -0.162349,-0.31037 -0.162349,-0.7067 z m 2.215595,0.005 q 0,-0.29605 -0.119375,-0.5157 -0.119375,-0.21965 -0.324699,-0.33425 -0.20055,-0.11938 -0.444074,-0.11938 -0.243525,0 -0.444074,0.1146 -0.20055,0.1146 -0.319925,0.33425 -0.119374,0.21965 -0.119374,0.5157 0,0.30083 0.119374,0.52525 0.119375,0.21965 0.319925,0.33902 0.200549,0.1146 0.444074,0.1146 0.243524,0 0.444074,-0.1146 0.205324,-0.11937 0.324699,-0.33902 0.119375,-0.22442 0.119375,-0.52047 z"
         style="font-family:Poppins;-inkscape-font-specification:Poppins"
         id="path415484" />
      <path
         d="m 80.263327,158.33982 -1.575747,3.84865 h -0.448849 l 0.515699,-1.2606 -1.055273,-2.58805 h 0.482274 l 0.821298,2.1201 0.811749,-2.1201 z"
         style="font-family:Poppins;-inkscape-font-specification:Poppins"
         id="path415486" />
      <path
         d="m 81.624196,160.99949 q -0.300825,0 -0.539574,-0.10027 -0.23875,-0.10505 -0.377224,-0.2865 -0.138475,-0.18622 -0.1528,-0.42497 h 0.448849 q 0.0191,0.19577 0.18145,0.31992 0.167124,0.12415 0.434524,0.12415 0.248299,0 0.391549,-0.10983 0.14325,-0.10982 0.14325,-0.27694 0,-0.1719 -0.1528,-0.25308 -0.1528,-0.0859 -0.472724,-0.16712 -0.291274,-0.0764 -0.477499,-0.1528 -0.18145,-0.0812 -0.315149,-0.23398 -0.128925,-0.15757 -0.128925,-0.41065 0,-0.20055 0.119375,-0.36767 0.119374,-0.16713 0.339024,-0.26263 0.21965,-0.10027 0.501374,-0.10027 0.434524,0 0.701923,0.21965 0.2674,0.21965 0.2865,0.60165 h -0.434524 q -0.01432,-0.20533 -0.167125,-0.32948 -0.148025,-0.12415 -0.401099,-0.12415 -0.233975,0 -0.372449,0.10028 -0.138475,0.10027 -0.138475,0.26262 0,0.12893 0.08118,0.21488 0.08595,0.0812 0.210099,0.1337 0.128925,0.0478 0.35335,0.10982 0.281724,0.0764 0.458399,0.1528 0.176674,0.0716 0.300824,0.21965 0.128925,0.14803 0.1337,0.38678 0,0.21487 -0.119375,0.38677 -0.119375,0.1719 -0.339024,0.27217 -0.214875,0.0955 -0.496599,0.0955 z"
         style="font-family:Poppins;-inkscape-font-specification:Poppins"
         id="path415488" />
      <path
         d="m 83.02804,159.63862 q 0,-0.4011 0.16235,-0.70192 0.16235,-0.3056 0.444074,-0.47273 0.286499,-0.16712 0.635074,-0.16712 0.343799,0 0.596874,0.14802 0.253074,0.14803 0.377224,0.37245 v -0.4775 h 0.439299 v 2.6167 h -0.439299 v -0.48705 q -0.128925,0.2292 -0.386774,0.382 -0.253075,0.14802 -0.592099,0.14802 -0.348575,0 -0.630299,-0.1719 -0.281724,-0.1719 -0.444074,-0.48227 -0.16235,-0.31037 -0.16235,-0.7067 z m 2.215596,0.005 q 0,-0.29605 -0.119375,-0.5157 -0.119375,-0.21965 -0.324699,-0.33425 -0.20055,-0.11938 -0.444074,-0.11938 -0.243525,0 -0.444075,0.1146 -0.200549,0.1146 -0.319924,0.33425 -0.119375,0.21965 -0.119375,0.5157 0,0.30083 0.119375,0.52525 0.119375,0.21965 0.319924,0.33902 0.20055,0.1146 0.444075,0.1146 0.243524,0 0.444074,-0.1146 0.205324,-0.11937 0.324699,-0.33902 0.119375,-0.22442 0.119375,-0.52047 z"
         style="font-family:Poppins;-inkscape-font-specification:Poppins"
         id="path415490" />
      <path
         d="m 87.497424,158.29685 q 0.339024,0 0.592099,0.14802 0.257849,0.14803 0.381999,0.37245 v -0.4775 h 0.439299 v 2.674 q 0,0.35812 -0.1528,0.63507 -0.152799,0.28173 -0.439299,0.4393 -0.281724,0.15758 -0.658948,0.15758 -0.515699,0 -0.859499,-0.24353 -0.343799,-0.24352 -0.405874,-0.66372 h 0.429749 q 0.07162,0.23875 0.29605,0.382 0.224424,0.14802 0.539574,0.14802 0.358124,0 0.582548,-0.22442 0.2292,-0.22443 0.2292,-0.6303 v -0.54913 q -0.128925,0.2292 -0.381999,0.382 -0.253075,0.1528 -0.592099,0.1528 -0.348574,0 -0.635074,-0.1719 -0.281724,-0.1719 -0.444074,-0.48227 -0.162349,-0.31037 -0.162349,-0.7067 0,-0.4011 0.162349,-0.70192 0.16235,-0.3056 0.444074,-0.47273 0.2865,-0.16712 0.635074,-0.16712 z m 0.974098,1.34655 q 0,-0.29605 -0.119375,-0.5157 -0.119375,-0.21965 -0.324699,-0.33425 -0.20055,-0.11938 -0.444074,-0.11938 -0.243525,0 -0.444074,0.1146 -0.20055,0.1146 -0.319925,0.33425 -0.119374,0.21965 -0.119374,0.5157 0,0.30083 0.119374,0.52525 0.119375,0.21965 0.319925,0.33902 0.200549,0.1146 0.444074,0.1146 0.243524,0 0.444074,-0.1146 0.205324,-0.11937 0.324699,-0.33902 0.119375,-0.22442 0.119375,-0.52047 z"
         style="font-family:Poppins;-inkscape-font-specification:Poppins"
         id="path415492" />
      <path
         d="m 92.033661,159.5479 q 0,0.12415 -0.01432,0.26262 h -2.091445 q 0.02388,0.38678 0.262624,0.60643 0.243525,0.21487 0.587324,0.21487 0.281724,0 0.467949,-0.12893 0.190999,-0.13369 0.267399,-0.35334 h 0.467949 q -0.105049,0.37722 -0.420199,0.61597 -0.315149,0.23397 -0.783098,0.23397 -0.372449,0 -0.668499,-0.16712 -0.291274,-0.16713 -0.458399,-0.47272 -0.167124,-0.31038 -0.167124,-0.71625 0,-0.40588 0.162349,-0.71148 0.16235,-0.3056 0.453624,-0.46795 0.29605,-0.16712 0.678049,-0.16712 0.372449,0 0.658948,0.16235 0.2865,0.16235 0.4393,0.44885 0.157574,0.28172 0.157574,0.63985 z m -0.448849,-0.0907 q 0,-0.2483 -0.109825,-0.42497 -0.109824,-0.18145 -0.300824,-0.27218 -0.186225,-0.0955 -0.415424,-0.0955 -0.329474,0 -0.563449,0.2101 -0.229199,0.2101 -0.262624,0.58255 z"
         style="font-family:Poppins;-inkscape-font-specification:Poppins"
         id="path415494" />
      <path
         d="m 93.041178,158.7648 q 0.114599,-0.22443 0.324699,-0.34858 0.214875,-0.12415 0.520474,-0.12415 v 0.44885 h -0.1146 q -0.730573,0 -0.730573,0.79265 v 1.42295 h -0.434524 v -2.6167 h 0.434524 z"
         style="font-family:Poppins;-inkscape-font-specification:Poppins"
         id="path415496" />
      <path
         d="m 95.314069,160.99949 q -0.300825,0 -0.539574,-0.10027 -0.23875,-0.10505 -0.377225,-0.2865 -0.138474,-0.18622 -0.152799,-0.42497 h 0.448849 q 0.0191,0.19577 0.181449,0.31992 0.167125,0.12415 0.434525,0.12415 0.248299,0 0.391549,-0.10983 0.143249,-0.10982 0.143249,-0.27694 0,-0.1719 -0.152799,-0.25308 -0.1528,-0.0859 -0.472724,-0.16712 -0.291275,-0.0764 -0.477499,-0.1528 -0.18145,-0.0812 -0.31515,-0.23398 -0.128924,-0.15757 -0.128924,-0.41065 0,-0.20055 0.119374,-0.36767 0.119375,-0.16713 0.339025,-0.26263 0.219649,-0.10027 0.501374,-0.10027 0.434524,0 0.701923,0.21965 0.2674,0.21965 0.2865,0.60165 h -0.434524 q -0.01433,-0.20533 -0.167125,-0.32948 -0.148025,-0.12415 -0.401099,-0.12415 -0.233975,0 -0.37245,0.10028 -0.138474,0.10027 -0.138474,0.26262 0,0.12893 0.08118,0.21488 0.08595,0.0812 0.210099,0.1337 0.128925,0.0478 0.353349,0.10982 0.281725,0.0764 0.458399,0.1528 0.176675,0.0716 0.300825,0.21965 0.128925,0.14803 0.1337,0.38678 0,0.21487 -0.119375,0.38677 -0.119375,0.1719 -0.339024,0.27217 -0.214875,0.0955 -0.496599,0.0955 z"
         style="font-family:Poppins;-inkscape-font-specification:Poppins"
         id="path415498" />
      <path
         d="m 97.992827,159.63862 q 0,-0.4011 0.16235,-0.70192 0.162349,-0.3056 0.444074,-0.47273 0.286499,-0.16712 0.639848,-0.16712 0.3056,0 0.568224,0.14325 0.262627,0.13847 0.401097,0.36767 v -1.38474 h 0.4393 v 3.53349 h -0.4393 v -0.49183 q -0.12892,0.23398 -0.381997,0.38678 -0.253074,0.14802 -0.592099,0.14802 -0.348574,0 -0.635073,-0.1719 -0.281725,-0.1719 -0.444074,-0.48227 -0.16235,-0.31037 -0.16235,-0.7067 z m 2.215593,0.005 q 0,-0.29605 -0.11937,-0.5157 -0.119377,-0.21965 -0.324702,-0.33425 -0.200549,-0.11938 -0.444074,-0.11938 -0.243524,0 -0.444074,0.1146 -0.20055,0.1146 -0.319924,0.33425 -0.119375,0.21965 -0.119375,0.5157 0,0.30083 0.119375,0.52525 0.119374,0.21965 0.319924,0.33902 0.20055,0.1146 0.444074,0.1146 0.243525,0 0.444074,-0.1146 0.205325,-0.11937 0.324702,-0.33902 0.11937,-0.22442 0.11937,-0.52047 z"
         style="font-family:Poppins;-inkscape-font-specification:Poppins"
         id="path415500" />
      <path
         d="m 101.60271,157.15563 -0.0573,0.95022 h -0.30082 l -0.0621,-0.95022 z"
         style="font-family:Poppins;-inkscape-font-specification:Poppins"
         id="path415502" />
      <path
         d="m 102.3667,157.91485 q -0.12415,0 -0.2101,-0.0859 -0.0859,-0.0859 -0.0859,-0.2101 0,-0.12415 0.0859,-0.2101 0.0859,-0.0859 0.2101,-0.0859 0.11938,0 0.20055,0.0859 0.0859,0.0859 0.0859,0.2101 0,0.12415 -0.0859,0.2101 -0.0812,0.0859 -0.20055,0.0859 z m 0.2101,0.42497 v 2.6167 h -0.43452 v -2.6167 z"
         style="font-family:Poppins;-inkscape-font-specification:Poppins"
         id="path415504" />
      <path
         d="m 104.59184,158.29207 q 0.4775,0 0.77355,0.29128 0.29605,0.2865 0.29605,0.83085 v 1.54232 h -0.42975 v -1.48025 q 0,-0.39155 -0.19577,-0.59687 -0.19578,-0.2101 -0.5348,-0.2101 -0.3438,0 -0.54913,0.21487 -0.20055,0.21488 -0.20055,0.62553 v 1.44682 h -0.43452 v -2.6167 h 0.43452 v 0.37245 q 0.12893,-0.20055 0.34858,-0.31037 0.22442,-0.10983 0.49182,-0.10983 z"
         style="font-family:Poppins;-inkscape-font-specification:Poppins"
         id="path415506" />
      <path
         d="m 106.90294,158.69795 v 1.54232 q 0,0.191 0.0812,0.27217 0.0812,0.0764 0.28172,0.0764 h 0.31993 v 0.36768 h -0.39155 q -0.3629,0 -0.54435,-0.16713 -0.18145,-0.16712 -0.18145,-0.54912 v -1.54232 h -0.33902 v -0.35813 h 0.33902 v -0.65894 h 0.43453 v 0.65894 h 0.68282 v 0.35813 z"
         style="font-family:Poppins;-inkscape-font-specification:Poppins"
         id="path415508" />
      <path
         d="m 110.49849,159.5479 q 0,0.12415 -0.0143,0.26262 h -2.09145 q 0.0239,0.38678 0.26263,0.60643 0.24352,0.21487 0.58732,0.21487 0.28173,0 0.46795,-0.12893 0.191,-0.13369 0.2674,-0.35334 h 0.46795 q -0.10505,0.37722 -0.4202,0.61597 -0.31515,0.23397 -0.7831,0.23397 -0.37245,0 -0.6685,-0.16712 -0.29127,-0.16713 -0.4584,-0.47272 -0.16712,-0.31038 -0.16712,-0.71625 0,-0.40588 0.16235,-0.71148 0.16235,-0.3056 0.45362,-0.46795 0.29605,-0.16712 0.67805,-0.16712 0.37245,0 0.65895,0.16235 0.2865,0.16235 0.4393,0.44885 0.15757,0.28172 0.15757,0.63985 z m -0.44885,-0.0907 q 0,-0.2483 -0.10982,-0.42497 -0.10983,-0.18145 -0.30082,-0.27218 -0.18623,-0.0955 -0.41543,-0.0955 -0.32947,0 -0.56345,0.2101 -0.2292,0.2101 -0.26262,0.58255 z"
         style="font-family:Poppins;-inkscape-font-specification:Poppins"
         id="path415510" />
      <path
         d="m 111.50601,158.7648 q 0.1146,-0.22443 0.3247,-0.34858 0.21488,-0.12415 0.52048,-0.12415 v 0.44885 h -0.1146 q -0.73058,0 -0.73058,0.79265 v 1.42295 h -0.43452 v -2.6167 h 0.43452 z"
         style="font-family:Poppins;-inkscape-font-specification:Poppins"
         id="path415512" />
      <path
         d="m 115.24005,159.5479 q 0,0.12415 -0.0143,0.26262 h -2.09144 q 0.0239,0.38678 0.26262,0.60643 0.24353,0.21487 0.58733,0.21487 0.28172,0 0.46794,-0.12893 0.191,-0.13369 0.2674,-0.35334 h 0.46795 q -0.10505,0.37722 -0.4202,0.61597 -0.31515,0.23397 -0.78309,0.23397 -0.37245,0 -0.6685,-0.16712 -0.29128,-0.16713 -0.4584,-0.47272 -0.16713,-0.31038 -0.16713,-0.71625 0,-0.40588 0.16235,-0.71148 0.16235,-0.3056 0.45363,-0.46795 0.29605,-0.16712 0.67805,-0.16712 0.37244,0 0.65894,0.16235 0.2865,0.16235 0.4393,0.44885 0.15758,0.28172 0.15758,0.63985 z m -0.44885,-0.0907 q 0,-0.2483 -0.10983,-0.42497 -0.10982,-0.18145 -0.30082,-0.27218 -0.18623,-0.0955 -0.41542,-0.0955 -0.32948,0 -0.56345,0.2101 -0.2292,0.2101 -0.26263,0.58255 z m -0.8213,-1.75719 -0.66372,0.40587 v -0.3438 l 0.66372,-0.39632 0.65895,0.39632 v 0.3438 z"
         style="font-family:Poppins;-inkscape-font-specification:Poppins"
         id="path415514" />
      <path
         d="m 116.34307,158.69795 v 1.54232 q 0,0.191 0.0812,0.27217 0.0812,0.0764 0.28172,0.0764 h 0.31993 v 0.36768 h -0.39155 q -0.3629,0 -0.54435,-0.16713 -0.18145,-0.16712 -0.18145,-0.54912 v -1.54232 h -0.33903 v -0.35813 h 0.33903 v -0.65894 h 0.43452 v 0.65894 h 0.68283 v 0.35813 z"
         style="font-family:Poppins;-inkscape-font-specification:Poppins"
         id="path415516" />
      <path
         d="m 121.21354,159.5479 q 0,0.12415 -0.0143,0.26262 h -2.09145 q 0.0239,0.38678 0.26263,0.60643 0.24352,0.21487 0.58732,0.21487 0.28173,0 0.46795,-0.12893 0.191,-0.13369 0.2674,-0.35334 h 0.46795 q -0.10505,0.37722 -0.4202,0.61597 -0.31515,0.23397 -0.7831,0.23397 -0.37245,0 -0.6685,-0.16712 -0.29127,-0.16713 -0.4584,-0.47272 -0.16712,-0.31038 -0.16712,-0.71625 0,-0.40588 0.16235,-0.71148 0.16235,-0.3056 0.45362,-0.46795 0.29605,-0.16712 0.67805,-0.16712 0.37245,0 0.65895,0.16235 0.2865,0.16235 0.4393,0.44885 0.15757,0.28172 0.15757,0.63985 z m -0.44885,-0.0907 q 0,-0.2483 -0.10982,-0.42497 -0.10983,-0.18145 -0.30082,-0.27218 -0.18623,-0.0955 -0.41543,-0.0955 -0.32947,0 -0.56345,0.2101 -0.2292,0.2101 -0.26262,0.58255 z m -0.35812,-1.85747 -1.01707,0.54435 v -0.3247 l 1.01707,-0.59687 z"
         style="font-family:Poppins;-inkscape-font-specification:Poppins"
         id="path415518" />
      <path
         d="m 121.62419,159.6434 q 0,-0.40588 0.16235,-0.7067 0.16235,-0.3056 0.44884,-0.47273 0.29128,-0.16712 0.66373,-0.16712 0.48227,0 0.79265,0.23397 0.31515,0.23398 0.41542,0.6494 h -0.46795 q -0.0669,-0.23875 -0.26262,-0.37722 -0.191,-0.13848 -0.4775,-0.13848 -0.37245,0 -0.60165,0.25785 -0.2292,0.25308 -0.2292,0.72103 0,0.47272 0.2292,0.73057 0.2292,0.25785 0.60165,0.25785 0.2865,0 0.4775,-0.1337 0.191,-0.1337 0.26262,-0.382 h 0.46795 q -0.10505,0.4011 -0.4202,0.64462 -0.31515,0.23875 -0.78787,0.23875 -0.37245,0 -0.66373,-0.16712 -0.28649,-0.16713 -0.44884,-0.47272 -0.16235,-0.3056 -0.16235,-0.71625 z"
         style="font-family:Poppins;-inkscape-font-specification:Poppins"
         id="path415520" />
      <path
         d="m 125.82617,160.99949 q -0.36767,0 -0.6685,-0.16712 -0.29605,-0.16713 -0.46794,-0.47272 -0.16713,-0.31038 -0.16713,-0.71625 0,-0.4011 0.1719,-0.7067 0.17667,-0.31038 0.4775,-0.47273 0.30082,-0.16712 0.67327,-0.16712 0.37245,0 0.67328,0.16712 0.30082,0.16235 0.47272,0.46795 0.17668,0.3056 0.17668,0.71148 0,0.40587 -0.18145,0.71625 -0.17668,0.30559 -0.48228,0.47272 -0.3056,0.16712 -0.67805,0.16712 z m 0,-0.382 q 0.23398,0 0.4393,-0.10982 0.20533,-0.10982 0.32948,-0.32947 0.12892,-0.21965 0.12892,-0.5348 0,-0.31515 -0.12415,-0.5348 -0.12415,-0.21965 -0.3247,-0.3247 -0.20055,-0.10983 -0.43452,-0.10983 -0.23875,0 -0.4393,0.10983 -0.19578,0.10505 -0.31515,0.3247 -0.11938,0.21965 -0.11938,0.5348 0,0.31992 0.1146,0.53957 0.11938,0.21965 0.31515,0.32947 0.19578,0.10505 0.42975,0.10505 z"
         style="font-family:Poppins;-inkscape-font-specification:Poppins"
         id="path415522" />
      <path
         d="m 128.17546,157.42303 v 3.53349 h -0.43453 v -3.53349 z"
         style="font-family:Poppins;-inkscape-font-specification:Poppins"
         id="path415524" />
      <path
         d="m 130.0568,160.99949 q -0.36767,0 -0.6685,-0.16712 -0.29605,-0.16713 -0.46795,-0.47272 -0.16712,-0.31038 -0.16712,-0.71625 0,-0.4011 0.1719,-0.7067 0.17667,-0.31038 0.4775,-0.47273 0.30082,-0.16712 0.67327,-0.16712 0.37245,0 0.67328,0.16712 0.30082,0.16235 0.47272,0.46795 0.17667,0.3056 0.17667,0.71148 0,0.40587 -0.18145,0.71625 -0.17667,0.30559 -0.48227,0.47272 -0.3056,0.16712 -0.67805,0.16712 z m 0,-0.382 q 0.23398,0 0.4393,-0.10982 0.20533,-0.10982 0.32948,-0.32947 0.12892,-0.21965 0.12892,-0.5348 0,-0.31515 -0.12415,-0.5348 -0.12415,-0.21965 -0.3247,-0.3247 -0.20055,-0.10983 -0.43452,-0.10983 -0.23875,0 -0.4393,0.10983 -0.19578,0.10505 -0.31515,0.3247 -0.11938,0.21965 -0.11938,0.5348 0,0.31992 0.1146,0.53957 0.11938,0.21965 0.31515,0.32947 0.19578,0.10505 0.42975,0.10505 z"
         style="font-family:Poppins;-inkscape-font-specification:Poppins"
         id="path415526" />
      <path
         d="m 133.05072,158.29685 q 0.33902,0 0.5921,0.14802 0.25785,0.14803 0.382,0.37245 v -0.4775 h 0.4393 v 2.674 q 0,0.35812 -0.1528,0.63507 -0.1528,0.28173 -0.4393,0.4393 -0.28173,0.15758 -0.65895,0.15758 -0.5157,0 -0.8595,-0.24353 -0.3438,-0.24352 -0.40587,-0.66372 h 0.42975 q 0.0716,0.23875 0.29604,0.382 0.22443,0.14802 0.53958,0.14802 0.35812,0 0.58255,-0.22442 0.2292,-0.22443 0.2292,-0.6303 v -0.54913 q -0.12893,0.2292 -0.382,0.382 -0.25308,0.1528 -0.5921,0.1528 -0.34858,0 -0.63507,-0.1719 -0.28173,-0.1719 -0.44408,-0.48227 -0.16235,-0.31037 -0.16235,-0.7067 0,-0.4011 0.16235,-0.70192 0.16235,-0.3056 0.44408,-0.47273 0.28649,-0.16712 0.63507,-0.16712 z m 0.9741,1.34655 q 0,-0.29605 -0.11938,-0.5157 -0.11937,-0.21965 -0.3247,-0.33425 -0.20055,-0.11938 -0.44407,-0.11938 -0.24353,0 -0.44408,0.1146 -0.20054,0.1146 -0.31992,0.33425 -0.11937,0.21965 -0.11937,0.5157 0,0.30083 0.11937,0.52525 0.11938,0.21965 0.31992,0.33902 0.20055,0.1146 0.44408,0.1146 0.24352,0 0.44407,-0.1146 0.20533,-0.11937 0.3247,-0.33902 0.11938,-0.22442 0.11938,-0.52047 z"
         style="font-family:Poppins;-inkscape-font-specification:Poppins"
         id="path415528" />
      <path
         d="m 135.42388,157.91485 q -0.12415,0 -0.2101,-0.0859 -0.086,-0.0859 -0.086,-0.2101 0,-0.12415 0.086,-0.2101 0.0859,-0.0859 0.2101,-0.0859 0.11937,0 0.20055,0.0859 0.0859,0.0859 0.0859,0.2101 0,0.12415 -0.0859,0.2101 -0.0812,0.0859 -0.20055,0.0859 z m 0.2101,0.42497 v 2.6167 h -0.43453 v -2.6167 z"
         style="font-family:Poppins;-inkscape-font-specification:Poppins"
         id="path415530" />
      <path
         d="m 136.21175,159.63862 q 0,-0.4011 0.16235,-0.70192 0.16235,-0.3056 0.44407,-0.47273 0.2865,-0.16712 0.63985,-0.16712 0.33903,0 0.5921,0.1528 0.25785,0.14802 0.37722,0.36767 v -0.4775 h 0.4393 v 3.8582 h -0.4393 v -1.72378 q -0.12415,0.21965 -0.382,0.37245 -0.25784,0.1528 -0.60164,0.1528 -0.3438,0 -0.62553,-0.1719 -0.28172,-0.1719 -0.44407,-0.48227 -0.16235,-0.31037 -0.16235,-0.7067 z m 2.21559,0.005 q 0,-0.29605 -0.11937,-0.5157 -0.11938,-0.21965 -0.3247,-0.33425 -0.20055,-0.11938 -0.44407,-0.11938 -0.24353,0 -0.44408,0.1146 -0.20055,0.1146 -0.31992,0.33425 -0.11938,0.21965 -0.11938,0.5157 0,0.30083 0.11938,0.52525 0.11937,0.21965 0.31992,0.33902 0.20055,0.1146 0.44408,0.1146 0.24352,0 0.44407,-0.1146 0.20532,-0.11937 0.3247,-0.33902 0.11937,-0.22442 0.11937,-0.52047 z"
         style="font-family:Poppins;-inkscape-font-specification:Poppins"
         id="path415532" />
      <path
         d="m 141.92263,158.33982 v 2.6167 h -0.43453 v -0.38678 q -0.12415,0.20055 -0.34857,0.31515 -0.21965,0.10983 -0.48705,0.10983 -0.3056,0 -0.54913,-0.12415 -0.24352,-0.12893 -0.38677,-0.382 -0.13847,-0.25307 -0.13847,-0.61597 v -1.53278 h 0.42974 v 1.47548 q 0,0.38677 0.19578,0.59687 0.19577,0.20532 0.5348,0.20532 0.34857,0 0.54912,-0.21487 0.20055,-0.21487 0.20055,-0.62552 v -1.43728 z"
         style="font-family:Poppins;-inkscape-font-specification:Poppins"
         id="path415534" />
      <path
         d="m 145.04547,159.5479 q 0,0.12415 -0.0143,0.26262 h -2.09144 q 0.0239,0.38678 0.26262,0.60643 0.24353,0.21487 0.58733,0.21487 0.28172,0 0.46794,-0.12893 0.191,-0.13369 0.2674,-0.35334 h 0.46795 q -0.10505,0.37722 -0.4202,0.61597 -0.31515,0.23397 -0.78309,0.23397 -0.37245,0 -0.6685,-0.16712 -0.29128,-0.16713 -0.4584,-0.47272 -0.16713,-0.31038 -0.16713,-0.71625 0,-0.40588 0.16235,-0.71148 0.16235,-0.3056 0.45363,-0.46795 0.29605,-0.16712 0.67805,-0.16712 0.37244,0 0.65894,0.16235 0.2865,0.16235 0.4393,0.44885 0.15758,0.28172 0.15758,0.63985 z m -0.44885,-0.0907 q 0,-0.2483 -0.10983,-0.42497 -0.10982,-0.18145 -0.30082,-0.27218 -0.18623,-0.0955 -0.41542,-0.0955 -0.32948,0 -0.56345,0.2101 -0.2292,0.2101 -0.26263,0.58255 z"
         style="font-family:Poppins;-inkscape-font-specification:Poppins"
         id="path415536" />
    </g>
    <path
       style="fill:#ffffff;fill-opacity:0.472843;stroke-width:1"
       d="m 108.52206,148.3282 c -0.14546,-0.0482 -0.22244,-0.0961 -0.32584,-0.20262 -0.14036,-0.14464 -0.19901,-0.2911 -0.20056,-0.50084 -0.002,-0.29577 0.0412,-0.36078 0.64369,-0.96555 l 0.51625,-0.51817 0.0991,0.0501 c 0.0545,0.0276 0.12099,0.0559 0.14782,0.0629 0.0485,0.0127 0.0488,0.0169 0.0488,0.77982 v 0.76707 l -0.0697,0.13941 c -0.08,0.16013 -0.21102,0.28849 -0.36307,0.35575 -0.13045,0.0577 -0.37202,0.0733 -0.49645,0.0321 z m 1.78569,-0.0104 c -0.14505,-0.0519 -0.26469,-0.14063 -0.3521,-0.2613 -0.13624,-0.18807 -0.13913,-0.21071 -0.13219,-1.03546 l 0.006,-0.75278 0.14617,-0.0587 0.14616,-0.0587 0.5029,0.50178 c 0.59544,0.59411 0.65124,0.67769 0.64866,0.97168 -0.002,0.21753 -0.0634,0.36599 -0.21197,0.51194 -0.20163,0.19804 -0.5041,0.27089 -0.75396,0.18159 z m -3.04217,-1.26735 c -0.21208,-0.0533 -0.40987,-0.21993 -0.50294,-0.42377 -0.0795,-0.1742 -0.0749,-0.43727 0.0107,-0.61167 0.0757,-0.15416 0.20681,-0.27919 0.37213,-0.35488 0.12014,-0.055 0.12062,-0.055 0.88172,-0.049 l 0.7615,0.006 0.0587,0.14616 0.0587,0.14616 -0.50177,0.50291 c -0.40877,0.40967 -0.52791,0.51585 -0.64275,0.57275 -0.1552,0.0769 -0.34848,0.10234 -0.49605,0.0653 z m 4.37179,-0.008 c -0.18489,-0.0605 -0.29619,-0.15152 -0.78365,-0.64068 l -0.49031,-0.49202 0.0587,-0.14616 0.0587,-0.14616 0.76151,-0.006 c 0.76109,-0.006 0.76157,-0.006 0.88172,0.049 0.16531,0.0757 0.29642,0.20072 0.37213,0.35488 0.0854,0.17394 0.0898,0.43618 0.0103,0.61377 -0.0649,0.14504 -0.23298,0.31311 -0.37611,0.37619 -0.13972,0.0616 -0.36642,0.0787 -0.49305,0.0372 z m -2.22054,-1.15879 c -0.39125,-0.18114 -0.38093,-0.76435 0.0165,-0.93035 0.11899,-0.0497 0.32113,-0.0458 0.42609,0.008 0.38556,0.19833 0.37147,0.76524 -0.0231,0.93007 -0.11491,0.048 -0.30654,0.0444 -0.41944,-0.008 z m -2.29957,-0.71414 c -0.15964,-0.0798 -0.28753,-0.20961 -0.35831,-0.36375 -0.0368,-0.0802 -0.0486,-0.15076 -0.0485,-0.28959 2.7e-4,-0.22831 0.0586,-0.37176 0.21256,-0.52299 0.15196,-0.14926 0.29534,-0.20832 0.50964,-0.2099 0.29415,-0.002 0.37781,0.0537 0.97168,0.64889 l 0.50178,0.5029 -0.0587,0.14616 -0.0587,0.14617 -0.76573,0.006 -0.76572,0.006 z m 3.34251,0.006 c -0.0125,-0.0347 -0.0399,-0.10244 -0.0609,-0.15054 l -0.0382,-0.0875 0.50313,-0.50425 c 0.59559,-0.59692 0.67892,-0.65259 0.97303,-0.65001 0.21753,0.002 0.36599,0.0634 0.51194,0.21197 0.15472,0.15751 0.2105,0.2955 0.2105,0.52069 0,0.30041 -0.13507,0.51745 -0.4064,0.65303 l -0.1394,0.0697 h -0.76549 -0.76549 z m -1.82813,-0.99801 c -0.59403,-0.59633 -0.63815,-0.66277 -0.63598,-0.95786 0.002,-0.21384 0.0607,-0.35736 0.2099,-0.50921 0.15096,-0.1537 0.29463,-0.21219 0.52298,-0.21291 0.15499,-5.4e-4 0.20376,0.009 0.31342,0.0632 0.15416,0.0757 0.27919,0.20682 0.35487,0.37214 0.055,0.12014 0.055,0.12063 0.049,0.8815 l -0.006,0.76129 -0.13766,0.0561 c -0.0757,0.0308 -0.14312,0.0561 -0.1498,0.0562 -0.007,7e-5 -0.24098,-0.22961 -0.52067,-0.51037 z m 1.32434,0.45209 -0.12618,-0.0533 -0.006,-0.76163 c -0.006,-0.76123 -0.006,-0.76169 0.049,-0.88184 0.0757,-0.16532 0.20071,-0.29643 0.35487,-0.37214 0.10967,-0.0538 0.15843,-0.0637 0.31342,-0.0632 0.22835,6.7e-4 0.37202,0.0592 0.52298,0.21291 0.14917,0.15185 0.20832,0.29537 0.2099,0.50921 0.002,0.29509 -0.0419,0.36153 -0.63599,0.95786 -0.27968,0.28076 -0.51914,0.50932 -0.53213,0.50792 -0.013,-0.001 -0.0804,-0.0265 -0.14981,-0.0558 z"
       id="path197269" />
  </g>
</svg>
