<?xml version="1.0" encoding="UTF-8" standalone="no"?>
<!-- Created with Inkscape (http://www.inkscape.org/) -->

<svg
   width="100"
   height="100"
   viewBox="0 0 26.458333 26.458334"
   version="1.1"
   id="svg67584"
   inkscape:version="1.1 (c68e22c387, 2021-05-23)"
   sodipodi:docname="site_icon.svg"
   xmlns:inkscape="http://www.inkscape.org/namespaces/inkscape"
   xmlns:sodipodi="http://sodipodi.sourceforge.net/DTD/sodipodi-0.dtd"
   xmlns="http://www.w3.org/2000/svg"
   xmlns:svg="http://www.w3.org/2000/svg">
  <sodipodi:namedview
     id="namedview67586"
     pagecolor="#ffffff"
     bordercolor="#666666"
     borderopacity="1.0"
     inkscape:pageshadow="2"
     inkscape:pageopacity="0.0"
     inkscape:pagecheckerboard="0"
     inkscape:document-units="mm"
     showgrid="false"
     units="px"
     inkscape:zoom="5.9722783"
     inkscape:cx="65.301712"
     inkscape:cy="60.529664"
     inkscape:window-width="2400"
     inkscape:window-height="1271"
     inkscape:window-x="2391"
     inkscape:window-y="-9"
     inkscape:window-maximized="1"
     inkscape:current-layer="layer1" />
  <defs
     id="defs67581" />
  <g
     inkscape:label="Calque 1"
     inkscape:groupmode="layer"
     id="layer1">
    <g
       id="g939">
      <path
         style="fill:#834b70;fill-opacity:1;stroke:#834b70;stroke-width:0.5;stroke-miterlimit:4;stroke-dasharray:none;stroke-opacity:1"
         d="m 5.0921448,22.765169 4.0408181,-0.0419 V 19.934855 17.146444 L 8.0731739,16.107846 C 7.1347269,15.188163 6.9235039,15.056732 6.2283569,14.95994 3.9197338,14.638486 1.8318392,12.469187 1.651965,10.205119 1.5547767,8.9818153 1.6881984,8.8296989 2.8399311,8.8506859 c 2.3919528,0.043586 4.5394998,2.1519471 4.9577548,4.8672831 0.072146,0.468372 0.268787,0.810663 0.717334,1.248659 l 0.617943,0.603406 V 11.546998 7.5239641 L 8.6226939,7.4136407 C 6.6649889,6.9903751 4.984385,5.1423175 4.7830324,3.1913993 4.6673417,2.0704649 4.959701,1.7736833 6.0521669,1.9030702 c 1.652287,0.1956887 3.20027,1.3432934 3.922049,2.9076293 0.2925451,0.6340427 0.3415821,1.0703473 0.3880831,3.4530092 l 0.05323,2.7272663 0.596383,-0.582353 c 0.470424,-0.4593562 0.617444,-0.7411173 0.696101,-1.3340589 0.139969,-1.0551412 0.938424,-2.5646836 1.714089,-3.2406245 0.841948,-0.7337014 2.070839,-1.3050815 3.058462,-1.4220522 0.667064,-0.079004 0.827544,-0.042144 1.129015,0.2593291 0.307317,0.3073168 0.338236,0.4526369 0.246347,1.1578453 -0.30826,2.365748 -2.315329,4.4182022 -4.639734,4.7446492 -0.601685,0.0845 -0.866238,0.254841 -1.767391,1.137976 l -1.059789,1.038597 v 4.991934 4.991934 l 3.807389,-0.04204 c 4.792299,-0.06229 -6.5163901,-0.04204 -1.849761,-0.04204 h 4.862232 l 0.428198,-1.020537 0.428199,-1.020538 -0.34475,-0.14314 c -2.159876,-0.89679 -3.030611,-1.886919 -3.425787,-3.895562 -0.155387,-0.789816 -0.225058,-0.906983 -0.539312,-0.906983 -0.356076,0 -0.854318,-0.366264 -0.854318,-0.628023 0,-0.324526 0.53654,-0.628023 1.110255,-0.628023 0.339244,0 0.616809,-0.07045 0.616809,-0.156553 0,-0.0861 0.254896,-0.438695 0.566437,-0.783533 0.910097,-1.007369 2.228043,-1.156507 3.336443,-0.377551 0.433752,0.304829 0.955914,1.374329 0.960849,1.968024 0.0026,0.31185 0.200086,0.564836 0.79529,1.018744 0.630722,0.480995 0.782469,0.684099 0.745777,0.998173 -0.08116,0.694705 -0.645895,0.590507 -1.778057,-0.328066 -0.991434,-0.804397 -1.015609,-0.841771 -1.015609,-1.570228 0,-0.619148 -0.07044,-0.801631 -0.413688,-1.071626 -0.227527,-0.178973 -0.619329,-0.325407 -0.870667,-0.325407 -0.567081,0 -1.062984,0.649672 -1.227736,1.161141 L 15.5702,15.427802 c -0.09039,0.280611 -0.175349,1.20063 0.135913,1.884069 0.157314,0.345412 0.574676,0.888268 0.927473,1.206345 1.450322,1.307592 3.482186,1.201813 5.207767,-0.271116 0.677266,-0.578104 0.869748,-0.670286 1.11997,-0.536369 0.469985,0.251527 0.361006,0.656538 -0.365118,1.356942 -0.788047,0.760136 -1.485478,1.140693 -2.529269,1.380111 -0.737491,0.16916 -0.775481,0.205791 -1.138292,1.097559 -0.206434,0.507405 -0.375336,0.979971 -0.375336,1.050146 0,0.07018 1.747717,0.14649 3.883818,0.169587 -5.228254,-0.115005 -13.3041631,-0.04181 -17.3449812,9.3e-5 z M 6.6174229,13.504482 C 6.6117859,13.055471 6.0696969,11.993626 5.5354913,11.385199 5.0241712,10.802838 3.6415729,10.011105 3.1359186,10.011105 c -0.6422377,0 -0.089662,1.574513 0.8929897,2.544493 1.0272885,1.01404 2.5965516,1.589294 2.5885146,0.948884 z M 14.157145,9.0567401 c 0.948454,-0.42883 1.687523,-1.1575182 2.137271,-2.107246 C 16.962142,5.5394619 16.688266,5.28177 15.280254,5.9952635 14.410377,6.4360638 13.483053,7.4005982 13.140178,8.2212172 12.640035,9.4182219 12.89477,9.6275078 14.157145,9.0567401 Z M 9.1329629,5.999663 c 0,-0.9825372 -1.915292,-2.8968084 -2.898351,-2.8968084 -0.543313,0 -0.07988,1.2504607 0.783365,2.1137017 0.875796,0.8757952 2.114986,1.3346255 2.114986,0.7831067 z"
         id="path834"
         sodipodi:nodetypes="ccccssssssccccsscccccssssscccccccccsssssssscsssssssssssssssscccssscssscsssss" />
      <rect
         style="fill:#834b70;fill-opacity:1;stroke:#834b70;stroke-width:1.765;stroke-linecap:round;stroke-linejoin:round;stroke-miterlimit:4;stroke-dasharray:none;stroke-opacity:1;paint-order:markers fill stroke"
         id="rect1359"
         width="20.643953"
         height="0.031326178"
         x="2.7880301"
         y="23.118721" />
      <ellipse
         style="fill:#834b70;fill-opacity:1;stroke:none;stroke-width:1.76501;stroke-linecap:round;stroke-linejoin:round;stroke-miterlimit:4;stroke-dasharray:none;stroke-opacity:1;paint-order:markers fill stroke"
         id="path2798"
         cx="16.979088"
         cy="15.061105"
         rx="0.45447603"
         ry="0.46362698" />
    </g>
  </g>
</svg>
