<?xml version="1.0" encoding="UTF-8" standalone="no"?>
<!-- Created with Inkscape (http://www.inkscape.org/) -->

<svg
   width="100"
   height="100"
   viewBox="0 0 26.458333 26.458334"
   version="1.1"
   id="svg67584"
   inkscape:version="1.1 (c68e22c387, 2021-05-23)"
   sodipodi:docname="species_icon.svg"
   xmlns:inkscape="http://www.inkscape.org/namespaces/inkscape"
   xmlns:sodipodi="http://sodipodi.sourceforge.net/DTD/sodipodi-0.dtd"
   xmlns="http://www.w3.org/2000/svg"
   xmlns:svg="http://www.w3.org/2000/svg">
  <sodipodi:namedview
     id="namedview67586"
     pagecolor="#ffffff"
     bordercolor="#666666"
     borderopacity="1.0"
     inkscape:pageshadow="2"
     inkscape:pageopacity="0.0"
     inkscape:pagecheckerboard="0"
     inkscape:document-units="mm"
     showgrid="false"
     units="px"
     inkscape:zoom="8.446077"
     inkscape:cx="44.636107"
     inkscape:cy="50.852011"
     inkscape:window-width="2400"
     inkscape:window-height="1271"
     inkscape:window-x="2391"
     inkscape:window-y="-9"
     inkscape:window-maximized="1"
     inkscape:current-layer="layer1" />
  <defs
     id="defs67581" />
  <g
     inkscape:label="Calque 1"
     inkscape:groupmode="layer"
     id="layer1">
    <path
       style="fill:#086570;fill-opacity:1;stroke:#086570;stroke-width:0.32;stroke-miterlimit:4;stroke-dasharray:none;stroke-opacity:1"
       d="M 9.4291429,25.10648 C 8.7343366,25.005559 7.9028227,24.677199 7.3009657,24.269612 6.3568746,23.628643 5.6130448,22.54581 5.2998262,21.356018 5.1614435,20.829739 5.129979,19.908198 5.2319027,19.362259 5.5551522,17.632688 6.5805055,15.998084 8.5465423,14.078581 10.070555,12.590586 10.889845,12.00611 11.894763,11.690082 c 1.420373,-0.446975 3.057571,-0.183517 4.281674,0.688682 0.507851,0.361775 1.619251,1.351544 2.307155,2.054907 2.871423,2.935682 3.690772,5.567854 2.484933,7.982961 -0.498738,0.998878 -1.290142,1.768961 -2.318365,2.255915 -1.418176,0.671707 -2.994279,0.63376 -4.429277,-0.106165 -0.486087,-0.251013 -0.529943,-0.263466 -0.861715,-0.266743 -0.333739,-0.0027 -0.373727,0.01307 -0.884654,0.263466 -1.023405,0.508583 -2.042955,0.690059 -3.0454576,0.544628 z m 1.2299231,-1.393553 c 0.435087,-0.07078 0.702588,-0.162541 1.26965,-0.446975 0.565997,-0.283785 0.939423,-0.38799 1.393664,-0.38799 0.471075,-9.18e-4 0.754095,0.07406 1.328359,0.354565 0.657468,0.320485 0.939135,0.416825 1.415009,0.486297 0.71058,0.104207 1.467571,-0.02622 2.158185,-0.388646 0.525616,-0.270674 1.184604,-0.929996 1.453975,-1.453717 0.330197,-0.64228 0.409584,-0.973907 0.406044,-1.69916 -0.0027,-0.54725 -0.01967,-0.682326 -0.130852,-1.047181 -0.501363,-1.642536 -2.049048,-3.583731 -4.295768,-5.388212 -1.448915,-1.163709 -3.202338,-1.162594 -4.64914,0.0027 -2.4515458,1.975013 -4.057288,4.091132 -4.3808449,5.773056 -0.461832,2.400887 1.6273218,4.574876 4.0316419,4.195407 z M 3.7817775,15.403646 C 3.444171,15.313194 3.2462611,15.22472 2.9887241,15.052357 2.0591534,14.428427 1.4856029,13.3201 1.4873125,12.150951 1.4883037,11.440053 1.6301517,10.962797 2.0011302,10.421643 L 2.1306574,10.232883 1.8300228,9.7111943 C 1.6646897,9.4241327 1.540468,9.1711526 1.5541699,9.1488709 1.5672321,9.1292015 1.7938366,8.9876357 2.0565793,8.8395275 2.319322,8.6920648 2.5764287,8.543947 2.6277575,8.5105226 c 0.087575,-0.058989 0.1127576,-0.01967 0.3958178,0.4731888 l 0.3022732,0.5328329 0.3975236,3.264e-4 c 0.7672439,5.897e-4 1.2942698,0.2274196 1.8888909,0.8147793 0.6530551,0.644903 0.9858957,1.398077 1.0303669,2.332594 0.029505,0.628518 -0.055726,1.072151 -0.3001083,1.561398 -0.4787456,0.956671 -1.551659,1.450638 -2.560794,1.178782 z M 4.6666199,14.015664 C 5.3502559,13.729914 5.461064,12.48402 4.8801314,11.614318 4.5478363,11.116879 4.1525025,10.885003 3.7003711,10.922819 c -0.3101374,0.01967 -0.481433,0.14681 -0.6541694,0.46467 -0.1874812,0.344079 -0.2185578,0.908959 -0.07578,1.378873 0.2781484,0.915841 1.0806007,1.507133 1.6960867,1.250022 z M 21.775707,15.334436 C 21.444722,15.251206 21.022695,14.999532 20.7559,14.72689 20.155813,14.114103 19.898532,13.12735 20.084786,12.154032 20.273323,11.16872 20.849217,10.310751 21.630687,9.8507335 22.066428,9.5938215 22.415218,9.5014119 22.92787,9.5040338 l 0.419023,0.00269 0.299454,-0.5302108 c 0.283852,-0.5026814 0.304567,-0.526932 0.39582,-0.4686019 0.05309,0.032769 0.311187,0.1835169 0.573997,0.331627 0.262742,0.1474627 0.487725,0.2857496 0.500115,0.3047543 0.01172,0.01967 -0.114717,0.2772307 -0.282279,0.5714994 l -0.304567,0.5354532 0.181585,0.280506 c 0.305485,0.472535 0.405324,0.859674 0.404472,1.568346 -5.17e-4,0.442386 -0.0236,0.680226 -0.08357,0.884512 -0.325874,1.098431 -1.023283,1.913932 -1.934315,2.262075 -0.297158,0.11404 -1.027536,0.162541 -1.321927,0.08782 z m 0.976207,-1.467612 c 0.317087,-0.158603 0.589926,-0.464016 0.790136,-0.885166 0.4107,-0.864656 0.168214,-1.889815 -0.488775,-2.066311 -0.785364,-0.211035 -1.713794,0.934847 -1.624252,2.004768 0.07316,0.874355 0.645776,1.284104 1.322943,0.946709 z M 8.8787798,10.632154 C 7.9252226,10.471591 7.1141817,9.8106246 6.6245464,8.7948373 6.2993299,8.1203101 6.2217787,7.7570296 6.2217787,6.9095462 c 0,-0.7547452 0.049829,-1.0425925 0.2896201,-1.6798919 C 6.8299959,4.3835463 7.5843063,3.5960314 8.3427333,3.3176885 L 8.610524,3.2193801 V 2.2713599 1.3232746 h 0.6984119 0.6984191 l 4.19e-4,0.9426455 4.27e-4,0.9426456 0.400604,0.1828637 c 0.672315,0.3073764 1.282779,0.9588979 1.626836,1.7363858 0.259203,0.5852621 0.323316,0.9466448 0.320234,1.8046793 -0.0025,0.7261709 -0.01306,0.8255935 -0.130584,1.2080113 -0.408668,1.3323413 -1.291976,2.2335662 -2.417169,2.4659662 -0.3811344,0.07931 -0.580289,0.08388 -0.929323,0.01967 z M 9.8228785,9.1387845 C 10.093553,9.0221321 10.478437,8.6302042 10.671765,8.2722291 10.864692,7.9150436 10.984984,7.384243 10.984984,6.8885074 c 0,-0.5079253 -0.08241,-0.8597384 -0.310466,-1.3267691 C 10.166732,4.522031 9.1645465,4.2278258 8.4177469,4.8992067 7.5797633,5.6524442 7.3490635,7.0831574 7.8872133,8.1896504 8.3351494,9.1106039 9.0609228,9.4665448 9.8229361,9.1387845 Z M 16.828419,10.606201 C 15.594307,10.332902 14.603174,9.1674262 14.339788,7.6807416 14.267023,7.2698129 14.279471,6.4001784 14.364702,5.9881355 14.62338,4.733131 15.434246,3.6892938 16.452604,3.3005816 l 0.212726,-0.08127 V 2.2712947 1.3234052 h 0.698417 0.698414 v 0.950642 0.9507073 l 0.174631,0.058989 c 0.595104,0.1887416 1.317111,0.8115676 1.673911,1.4440823 0.707661,1.2544802 0.747998,2.8077505 0.107109,4.1244926 -0.394966,0.811437 -1.105373,1.4602716 -1.852731,1.6924106 -0.4126,0.127794 -0.937757,0.15336 -1.336737,0.06554 z m 1.094183,-1.4735766 c 0.289424,-0.137628 0.662555,-0.5321758 0.835973,-0.8849724 0.420469,-0.8539047 0.421648,-1.8226352 0.0035,-2.6711021 -0.680737,-1.3807714 -2.081522,-1.3836564 -2.777097,-0.00519 -0.21043,0.4161726 -0.295716,0.8021304 -0.296503,1.3394829 -0.0013,0.7346266 0.22472,1.3788064 0.638503,1.8211294 0.495462,0.5295539 1.03889,0.6660717 1.595749,0.4017528 z"
       id="path47249"
       sodipodi:nodetypes="csscssccscsccccccccccsscscscccccscscccccccscccssccssscsscccscccscsscccccscsccssscccccccccsscccccssscsccsccccccccccssccccscccccc" />
  </g>
</svg>
