<?xml version="1.0" encoding="UTF-8" standalone="no"?>
<!-- Created with Inkscape (http://www.inkscape.org/) -->

<svg
   width="100"
   height="100"
   viewBox="0 0 26.458333 26.458334"
   version="1.1"
   id="svg67584"
   inkscape:version="1.1 (c68e22c387, 2021-05-23)"
   sodipodi:docname="urbain_icon.svg"
   xmlns:inkscape="http://www.inkscape.org/namespaces/inkscape"
   xmlns:sodipodi="http://sodipodi.sourceforge.net/DTD/sodipodi-0.dtd"
   xmlns="http://www.w3.org/2000/svg"
   xmlns:svg="http://www.w3.org/2000/svg">
  <sodipodi:namedview
     id="namedview67586"
     pagecolor="#ffffff"
     bordercolor="#666666"
     borderopacity="1.0"
     inkscape:pageshadow="2"
     inkscape:pageopacity="0.0"
     inkscape:pagecheckerboard="0"
     inkscape:document-units="mm"
     showgrid="false"
     units="px"
     inkscape:zoom="8.446077"
     inkscape:cx="38.716199"
     inkscape:cy="43.392927"
     inkscape:window-width="2400"
     inkscape:window-height="1271"
     inkscape:window-x="-9"
     inkscape:window-y="-9"
     inkscape:window-maximized="1"
     inkscape:current-layer="layer1" />
  <defs
     id="defs67581" />
  <g
     inkscape:label="Calque 1"
     inkscape:groupmode="layer"
     id="layer1">
    <path
       style="fill:#18563d;fill-opacity:1;stroke-width:0.999999"
       d="m 20.026013,24.964784 v -1.183607 -1.183606 l -0.498648,-0.103102 c -1.790131,-0.370157 -3.228326,-1.609258 -3.781062,-3.25764 -0.625337,-1.864915 -0.07481,-4.668789 1.32685,-6.757759 0.533975,-0.795809 1.538263,-1.743347 2.193947,-2.06997 0.506893,-0.252516 0.623054,-0.278574 1.241874,-0.279003 0.631493,-3.93e-4 0.729414,0.02279 1.30616,0.307801 1.164631,0.575771 2.483579,2.131294 3.181695,3.752385 0.561589,1.304061 0.734555,2.095509 0.73799,3.376941 0.0024,0.957098 -0.02342,1.200941 -0.180421,1.679738 -0.494601,1.510272 -1.97864,2.803765 -3.687974,3.214462 l -0.562234,0.135101 v 1.184146 1.184145 c -1.278177,-3.2e-5 0,0 -1.278177,-3.2e-5 z m -0.01683,-4.36636 -0.02309,-0.68756 -0.99857,-0.625294 c -1.030814,-0.645484 -1.233261,-0.855954 -1.152865,-1.198535 0.144199,-0.614448 0.623467,-0.640053 1.496655,-0.07994 0.342867,0.219919 0.639442,0.399855 0.659057,0.399855 0.01948,0 0.03567,-0.521832 0.03567,-1.159619 0,-1.052987 0.01485,-1.174328 0.159769,-1.319565 0.199782,-0.200007 0.639781,-0.21008 0.872937,-0.01982 0.126705,0.103269 0.186556,0.270417 0.228551,0.638075 l 0.05688,0.498119 0.599139,-0.357263 c 0.32953,-0.196506 0.659292,-0.357671 0.732811,-0.358167 0.245706,-0.0016 0.625241,0.392698 0.625241,0.649633 0,0.318702 -0.204632,0.504485 -1.178307,1.069789 l -0.818827,0.475402 v 1.381323 c 0,1.584018 -0.0429,1.514848 0.754759,1.216065 1.123946,-0.420987 1.974822,-1.287094 2.292234,-2.333257 0.346388,-1.141679 0.07659,-2.900884 -0.671554,-4.379229 -0.610373,-1.206053 -1.529837,-2.294747 -2.334385,-2.764033 -0.483405,-0.281942 -1.115075,-0.313878 -1.558529,-0.07873 -0.39852,0.211299 -1.242218,1.042514 -1.617316,1.59336 -0.426414,0.626218 -0.96905,1.789165 -1.180024,2.528983 -0.218884,0.767512 -0.300103,2.206381 -0.158513,2.807886 0.281366,1.195319 1.195427,2.193806 2.408043,2.630512 0.235181,0.08472 0.509881,0.155288 0.610453,0.156872 0.178343,0.0028 0.182269,-0.01383 0.159768,-0.684677 z"
       id="path18144"
       sodipodi:nodetypes="cccssscccssccccccccsssssccccsssscssscccscscscc" />
    <rect
       style="fill:#18563d;fill-opacity:1;stroke:none;stroke-width:0.399999;stroke-linejoin:round;stroke-miterlimit:4;stroke-dasharray:none;stroke-opacity:1;paint-order:markers fill stroke"
       id="rect11189"
       width="22.248911"
       height="1.3900478"
       x="0.26736617"
       y="24.343042" />
    <rect
       style="fill:none;fill-opacity:1;stroke:#18563d;stroke-width:1.2;stroke-linejoin:round;stroke-miterlimit:4;stroke-dasharray:none;stroke-opacity:1;paint-order:markers fill stroke"
       id="rect11427"
       width="11.841297"
       height="22.836784"
       x="1.5349828"
       y="2.0362017" />
    <rect
       style="fill:none;fill-opacity:1;stroke:#18563d;stroke-width:1.2;stroke-linejoin:round;stroke-miterlimit:4;stroke-dasharray:none;stroke-opacity:1;paint-order:markers fill stroke"
       id="rect11585"
       width="7.2050214"
       height="0.25060943"
       x="3.8374567"
       y="5.6700387" />
    <rect
       style="fill:none;fill-opacity:1;stroke:#18563d;stroke-width:1.2;stroke-linejoin:round;stroke-miterlimit:4;stroke-dasharray:none;stroke-opacity:1;paint-order:markers fill stroke"
       id="rect11585-5"
       width="7.2050214"
       height="0.25060943"
       x="3.8374567"
       y="8.1134806" />
    <rect
       style="fill:none;fill-opacity:1;stroke:#18563d;stroke-width:1.2;stroke-linejoin:round;stroke-miterlimit:4;stroke-dasharray:none;stroke-opacity:1;paint-order:markers fill stroke"
       id="rect11585-50"
       width="7.2050214"
       height="0.25060943"
       x="3.8374567"
       y="10.619576" />
    <rect
       style="fill:none;fill-opacity:1;stroke:#18563d;stroke-width:1.2;stroke-linejoin:round;stroke-miterlimit:4;stroke-dasharray:none;stroke-opacity:1;paint-order:markers fill stroke"
       id="rect11585-5-0"
       width="7.2050214"
       height="0.25060943"
       x="3.8374567"
       y="13.063018" />
    <rect
       style="fill:none;fill-opacity:1;stroke:#18563d;stroke-width:1.2;stroke-linejoin:round;stroke-miterlimit:4;stroke-dasharray:none;stroke-opacity:1;paint-order:markers fill stroke"
       id="rect11585-3"
       width="7.2050214"
       height="0.25060943"
       x="3.8374567"
       y="15.412481" />
    <rect
       style="fill:none;fill-opacity:1;stroke:#18563d;stroke-width:1.2;stroke-linejoin:round;stroke-miterlimit:4;stroke-dasharray:none;stroke-opacity:1;paint-order:markers fill stroke"
       id="rect11585-5-8"
       width="7.2050214"
       height="0.25060943"
       x="3.8374567"
       y="17.855923" />
  </g>
</svg>
